/* XPM */
static char *result[] = {
/* columns rows colors chars-per-pixel */
"32 32 182 2 ",
"   c black",
".  c #010000",
"X  c #050100",
"o  c #070301",
"O  c #070707",
"+  c #090402",
"@  c #080403",
"#  c #0B0206",
"$  c #160805",
"%  c #190B06",
"&  c #1B0B07",
"*  c #16050C",
"=  c #190D0A",
"-  c #1B0E0A",
";  c #1C0D0A",
":  c #1D0E0A",
">  c #1F110D",
",  c gray8",
"<  c #1B1A17",
"1  c #1E1A17",
"2  c #191919",
"3  c #1B1A18",
"4  c #1D1A18",
"5  c #1E1E1E",
"6  c #21110D",
"7  c #20110E",
"8  c #2A140E",
"9  c #2B150F",
"0  c #2E1B16",
"q  c #281F16",
"w  c #221B1C",
"e  c #231B1D",
"r  c #291E1F",
"t  c #24201D",
"y  c #27221F",
"u  c #35211B",
"i  c #34251F",
"p  c #351E24",
"a  c #232323",
"s  c #282421",
"d  c #2D2421",
"f  c #2C2724",
"g  c #2E2926",
"h  c #2F2A27",
"j  c #292928",
"k  c gray16",
"l  c #2B2A2A",
"z  c #2F2F2F",
"x  c #302B28",
"c  c #312B28",
"v  c #302C28",
"b  c #332F2B",
"n  c #342E29",
"m  c #302F2F",
"M  c #382B29",
"N  c #3E292D",
"B  c #3F292E",
"V  c #37302B",
"C  c #30302E",
"Z  c #34302C",
"A  c #37312D",
"S  c #3A312E",
"D  c #39322F",
"F  c gray19",
"G  c #323130",
"H  c #333232",
"J  c #323335",
"K  c #3C3935",
"L  c #3A3539",
"P  c #3A353A",
"I  c #3A363A",
"U  c #3D373C",
"Y  c #3E373C",
"T  c gray22",
"R  c #393838",
"E  c #393938",
"W  c #3B3A39",
"Q  c #3D3A39",
"!  c #3E3C3C",
"~  c #58142F",
"^  c #571D33",
"/  c #402D32",
"(  c #592F3F",
")  c #5F2C3D",
"_  c #4D333D",
"`  c #55313A",
"'  c #56313B",
"]  c #4D3C46",
"[  c #5C3A42",
"{  c #6F2740",
"}  c #652F45",
"|  c #682B40",
" . c #682B41",
".. c #6A2A40",
"X. c #742443",
"o. c #742543",
"O. c #772747",
"+. c #7B2345",
"@. c #7E2347",
"#. c #782747",
"$. c #7B2646",
"%. c #7D2547",
"&. c #752A48",
"*. c #603043",
"=. c #603144",
"-. c #6F354C",
";. c gray26",
":. c #5B404E",
">. c #524F48",
",. c #746F6D",
"<. c #747474",
"1. c #7F7C7A",
"2. c #801E45",
"3. c #842149",
"4. c #862049",
"5. c #862249",
"6. c #86274C",
"7. c #8D214C",
"8. c #92224F",
"9. c #A9285C",
"0. c #B0295F",
"q. c #B42B62",
"w. c #BB2F67",
"e. c #BC2C66",
"r. c #B63368",
"t. c #B03768",
"y. c #B03769",
"u. c #BC3268",
"i. c #B0386A",
"p. c #B63B6D",
"a. c #B23F6F",
"s. c #C02D68",
"d. c #C42E6A",
"f. c #C52E6B",
"g. c #C62E6B",
"h. c #C72E6C",
"j. c #C72F6C",
"k. c #C92F6D",
"l. c #CA2F6D",
"z. c #CB2F6E",
"x. c #CC2F6E",
"c. c #C5366E",
"v. c #CA306D",
"b. c #CB306D",
"n. c #CA306E",
"m. c #CC306E",
"M. c #CD306E",
"N. c #CD306F",
"B. c #CD316F",
"V. c #CE306F",
"C. c #C63571",
"Z. c #C43770",
"A. c #CD3170",
"S. c #CE3070",
"D. c #CF3070",
"F. c #CE3170",
"G. c #CC3270",
"H. c #CF3472",
"J. c #8D4666",
"K. c #8E4666",
"L. c #9B456A",
"P. c #9D446A",
"I. c #9E446A",
"U. c #9A4A69",
"Y. c #A3436C",
"T. c #837F7D",
"R. c #949391",
"E. c #9C9997",
"W. c gray62",
"Q. c #A2A19F",
"!. c #A7A7A7",
"~. c #C6C4C3",
"^. c #D2D2D1",
"/. c #D2D2D2",
"(. c #D7D7D7",
"). c #DBDAD9",
"_. c gainsboro",
"`. c #E7E6E5",
"'. c gray93",
"]. c gray95",
"[. c #FBFBFB",
"{. c None",
/* pixels */
"{.{.{.{.{.{.{.{.{.{.{.m.D.D.D.D.D.D.D.k.{.{.{.{.{.{.{.{.{.{.{.{.",
"{.{.{.{.{.{.{.V.N.N.M.N.D.D.D.D.D.D.D.N.N.N.M.B.{.{.{.{.{.{.{.{.",
"{.{.{.{.{.{.{.x.D.D.D.D.D.D.D.D.D.D.D.D.D.D.D.l.{.{.{.{.{.{.{.{.",
"{.{.{.{.{.S.V.S.D.D.D.D.D.D.D.D.D.D.D.D.D.D.D.D.V.V.{.{.{.{.{.{.",
"{.{.{.{.{.l.D.D.D.D.D.D.D.D.D.D.D.D.D.D.D.D.D.D.D.k.{.{.{.{.{.{.",
"{.{.{.{.{.D.D.D.D.D.D.D.D.D.D.D.D.D.D.D.D.D.D.D.D.D.{.{.{.{.{.{.",
"{.{.{.{.{.D.D.D.D.D.D.D.D.D.D.D.D.D.D.D.D.D.D.D.D.D.{.{.{.{.{.{.",
"{.{.{.D.V.S.D.D.D.D.D.D.D.D.D.D.D.D.D.D.D.D.~ ~ ~ D.V.V.{.{.{.{.",
"{.{.{.D.D.D.D.D.D.D.D.D.D.D.D.D.D.D.D.D.D.u.e   ~ D.D.D.{.{.{.{.",
"{.{.{.D.D.D.D.D.D.D.D.D.D.D.D.D.D.D.D.8.8.X.C   ~ D.D.D.{.{.{.{.",
"{.{.{.D.D.D.D.D.D.D.D.D.D.D.D.D.D.D.D.@.  /.Q.  ~ D.x.N.{.{.{.{.",
"{.{.{.D.D.D.D.D.D.D.D.D.D.D.D.D.D.D.D.X.>.'.R.p ~ S.{.{.{.{.{.{.",
"{.{.{.D.D.D.D.D.D.D.D.S.H.c.D.D.D.+.w ) K `.W.' D.D.{.{.{.{.{.{.",
"{.{.{.D.D.D.D.D.D.D.D.D.x.S.D.D.D.o.  g ;.~.(.' D.D.{.{.{.{.{.{.",
"{.{.{.D.D.D.D.D.D.S.N.V.N.V.w.N B r   h <.E.[.` D.D.{.{.{.{.{.{.",
"{.{.{.D.D.D.D.D.D.m.S.f.D.N.0.        x !.,.].[ D.D.{.{.{.{.{.{.",
"{.{.{.M.x.D.D.D.S.j.D.h.S.D.d.*         ^.1.).U.z.v.{.{.{.{.{.{.",
"{.{.{.{.{.D.D.n.D.k.D.D.N.D.S.s.#       _.T.F ; {.{.{.{.{.{.{.{.",
"{.{.{.{.{.D.D.N.S.D.D.D.S.S.D.g.2.    t v 1   7 {.{.{.{.{.{.{.{.",
"{.{.{.{.{.D.D.D.D.D.D.N.D.D.D.g.e..   c       : {.{.{.{.{.{.{.{.",
"{.{.{.{.D.{ / 6.D.x.D.x.N.D.D.V.q.9.3.^ < 4 3 V = u {.{.{.{.{.{.",
"{.{.{.X   A    .D.D.D.D.D.D.D.D.D.D.D.%.      s   - {.{.{.{.{.{.",
"{.{.{.+   A   ..D.r.A.C.G.A.G.S.F.t.D.$.      f   > {.{.{.{.{.{.",
"{.{.{.o   A   | D.i.D.D.D.D.D.D.D.p.D.$.      s   > {.{.{.{.{.{.",
"{.{.{.{.x.4.@.7.D.y.D.D.D.D.D.D.D.D.Z.#.b n Z y   > {.{.{.{.{.{.",
"{.{.{.{.{.D.D.D.D.y.D.D.D.D.D.D.D.D.D.Y.          % {.{.{.{.{.{.",
"{.{.{.{.{.D.D.O._ &.U L.D.D.D.a.I K.D.I.  G k j k Q 6 0 {.{.{.{.",
"{.{.{.{.{.D.D.=.  H   :.D.D.D.J.  ] D.P.  W       5   @ {.{.{.{.",
"{.{.{.{.{.D.D.}   O a ( L J P M {.q Y -.k ,   2 E D {.{.{.{.{.{.",
"{.{.{.{.{.D.D.*.      m       8 {.{.  !       l   $ {.{.{.{.{.{.",
"{.{.{.{.{.b.m.5.z z z d {.{.{.{.{.{.{.i T R E S {.{.{.{.{.{.{.{.",
"{.{.{.{.{.{.{.{.      9 {.{.{.{.{.{.{.{.      & {.{.{.{.{.{.{.{."
};
