/* XPM */
static char *result[] = {
/* columns rows colors chars-per-pixel */
"32 32 154 2 ",
"   c black",
".  c #030100",
"X  c #020201",
"o  c #050000",
"O  c #070000",
"+  c #040404",
"@  c #050707",
"#  c #080000",
"$  c #080100",
"%  c #0A0100",
"&  c #090303",
"*  c #0C0200",
"=  c #0D0401",
"-  c #0F0502",
";  c #0D0604",
":  c #090808",
">  c #0B0A09",
",  c #0C0A09",
"<  c #140705",
"1  c #140905",
"2  c #150907",
"3  c #160A07",
"4  c #1D0B05",
"5  c #180C0A",
"6  c #180D0A",
"7  c #1A0D0A",
"8  c #1D0F0C",
"9  c #1B1515",
"0  c #181716",
"q  c #321E19",
"w  c #25211D",
"e  c #25211E",
"r  c #252525",
"t  c gray15",
"y  c #322E2A",
"u  c #3F2A2E",
"i  c #343434",
"p  c #481025",
"a  c #4B1128",
"s  c #4F122B",
"d  c #50182E",
"f  c #5C1A35",
"g  c #761F3E",
"h  c #41222E",
"j  c #47222E",
"k  c #422B30",
"l  c #452B31",
"z  c #482C33",
"x  c #4E2C35",
"c  c #4F2C36",
"v  c #4F2C37",
"b  c #542534",
"n  c #532B37",
"m  c #5E273A",
"M  c #5F273B",
"N  c #5A2A3A",
"B  c #63203A",
"V  c #602539",
"C  c #67233C",
"Z  c #67203E",
"A  c #6A203C",
"S  c #6A233F",
"D  c #69243E",
"F  c #7A1F43",
"G  c #7E1F45",
"H  c #6F2641",
"J  c #702141",
"K  c #722140",
"L  c #752142",
"P  c #782043",
"I  c #7A2045",
"U  c #7F2549",
"Y  c gray25",
"T  c #464646",
"R  c #484848",
"E  c gray29",
"W  c #66605D",
"Q  c #656463",
"!  c #666562",
"~  c #656565",
"^  c #787777",
"/  c #801F46",
"(  c #821F47",
")  c #841F47",
"_  c #851F48",
"`  c #861F48",
"'  c #872E53",
"]  c #882C50",
"[  c #972352",
"{  c #902550",
"}  c #91335A",
"|  c #AC2A5A",
" . c #AE3768",
".. c #B53467",
"X. c #BA3167",
"o. c #B03A66",
"O. c #BC326A",
"+. c #B9366B",
"@. c #B7396D",
"#. c #C62F6B",
"$. c #C72F6C",
"%. c #CA2F6D",
"&. c #CB2F6D",
"*. c #CB2F6E",
"=. c #CC2F6E",
"-. c #C1306A",
";. c #C2306A",
":. c #C5306B",
">. c #C9306C",
",. c #CA306D",
"<. c #CA306E",
"1. c #CB306E",
"2. c #CB316E",
"3. c #CC306E",
"4. c #CD306E",
"5. c #CD306F",
"6. c #CD316F",
"7. c #CE306F",
"8. c #CE3070",
"9. c #CF3070",
"0. c #CE3170",
"q. c #CE3171",
"w. c #CF3171",
"e. c #CE3271",
"r. c #CF3372",
"t. c #C83671",
"y. c #CF3472",
"u. c #C83873",
"i. c #CE3975",
"p. c #CF3B77",
"a. c #CF3E78",
"s. c #9D4F72",
"d. c #AD4066",
"f. c #A1436B",
"g. c #AF5B74",
"h. c #8E7B8B",
"j. c #808080",
"k. c #848484",
"l. c #888685",
"z. c gray59",
"x. c #A3A19F",
"c. c #A3A1A0",
"v. c #A2A2A2",
"b. c #A4A2A1",
"n. c #AAA8A6",
"m. c #AFAEAE",
"M. c #B2B2B2",
"N. c gray74",
"B. c gray75",
"V. c #CAC9C8",
"C. c #CACACA",
"Z. c gray85",
"A. c #E2E2E2",
"S. c None",
/* pixels */
"S.S.S.S.S.S.S.S.7.7.7.5.9.9.9.9.9.9.9.9.7.7.7.7.S.S.S.S.S.S.S.S.",
"S.S.S.S.S.S.S.S.9.9.9.9.9.9.9.9.9.9.9.9.9.9.9.$.S.S.S.S.S.S.S.S.",
"S.S.S.S.S.S.5.5.9.9.9.9.9.9.9.9.9.9.9.9.9.9.9.9.4.6.S.S.S.S.S.S.",
"S.S.S.S.S.S.9.9.9.9.9.9.9.9.9.9.9.9.9.9.9.9.9.9.9.$.S.S.S.S.S.S.",
"S.S.S.S.S.S.9.9.9.9.9.9.9.9.9.9.9.9.9.9.9.9.9.9.9.5.S.S.S.S.S.S.",
"S.S.S.S.S.S.9.9.9.9.9.9.9.9.9.9.9.9.9.9.9.9.9.9.9.*.S.S.S.S.S.S.",
"S.S.S.S.1.,.9.9.9.9.9.9.9.9.9.9.9.9.9.9.9.` _ ` 9.3.>.2.S.S.S.S.",
"S.S.S.S.9.9.9.9.9.9.9.9.9.9.9.9.9.9.9.9.9.G   z 9.9.9.9.S.S.S.S.",
"S.S.S.S.9.9.9.9.9.9.9.9.9.9.9.9.9.9.9.` / S   k 9.9.9.9.S.S.S.S.",
"S.S.S.S.9.9.9.9.9.9.9.9.9.9.9.9.9.9.9.)   C.r l 9.=.8.9.S.S.S.S.",
"S.S.S.S.9.9.9.9.9.9.9.9.9.9.9.9.9.` F d l.Z.E l 9.*.S.S.S.S.S.S.",
"S.S.S.S.9.9.9.9.9.9.9.9.9.-.9.9.9.`   0 A.n.R l 9.=.S.S.S.S.S.S.",
"S.S.S.S.9.9.9.9.9.9.9.9.9.( K L L D   Q v.b.R l 9.=.S.S.S.S.S.S.",
"S.S.S.S.9.9.9.9.9.9.9.9.9.`         + m.Y c.R u 9.5.S.S.S.S.S.S.",
"S.S.S.S.8.9.9.9.9.9.9.9.9.` ,       t N.y x.! V 9.#.S.S.S.S.S.S.",
"S.S.S.S.S.S.9.9.g.9.9.9.9.9.N       ~ k.T M.i 9.S.S.S.S.S.S.S.S.",
"S.S.S.S.S.S.&.9.d...9.9.9.<.)       z.B.V.W 4 S.S.S.S.S.S.S.S.S.",
"S.S.S.S.S.S.S.S.9.9.;.9.9.9.` v     j.^   * S.S.S.S.S.S.S.S.S.S.",
"S.S.S.S.S.S.S.S.S.9.o.:.9.:.X.P M M m C 8.S.S.S.S.S.S.S.S.S.S.S.",
"S.S.S.S.S.S.S.S.S.S.9.9.9.9.9.9.9.9.9.9.S.S.S.S.S.S.S.S.S.S.S.S.",
"S.S.S.S.S.S.S.S.S.7.9.9.9.9.9.9.9.9.@.+.%.S.S.S.S.S.S.S.S.S.S.S.",
"S.S.S.S.S.S.S.S.% [ 9.q.e.h.9.9.9.9.9.t.  2 S.S.S.S.S.S.S.S.S.S.",
"S.S.S.S.S.S.S.S.- s 9.9. .J n c x H O.}   7 S.S.S.S.S.S.S.S.S.S.",
"S.S.S.S.S.S.S.S.- s 9.9.f o       X       6 S.S.S.S.S.S.S.S.S.S.",
"S.S.S.S.S.S.S.S.- s 9.9.Z &       :   ; S.S.S.S.S.S.S.S.S.S.S.S.",
"S.S.S.S.S.S.S.S.- s 9.9.{ p 9     :   < S.S.S.S.S.S.S.S.S.S.S.S.",
"S.S.S.S.S.S.S.S.S.| ] ' 9.9.A w e B s.f.g q S.S.S.S.S.S.S.S.S.S.",
"S.S.S.S.S.S.S.S.S.S.#   0.u.I     U 9.9.a 3 S.S.S.S.S.S.S.S.S.S.",
"S.S.S.S.S.S.S.S.S.S.$ @ p.9.r.y.y.w.9.i.a 5 S.S.S.S.S.S.S.S.S.S.",
"S.S.S.S.S.S.S.S.S.S.= > w.9.9.9.9.9.9.a.. 8 S.S.S.S.S.S.S.S.S.S.",
"S.S.S.S.S.S.S.S.S.S.S.S.j h h h h h h b S.S.S.S.S.S.S.S.S.S.S.S.",
"S.S.S.S.S.S.S.S.S.S.S.S.O             1 S.S.S.S.S.S.S.S.S.S.S.S."
};
