/* XPM */
static char *result[] = {
/* columns rows colors chars-per-pixel */
"32 32 181 2 ",
"   c black",
".  c #010100",
"X  c #010001",
"o  c #020000",
"O  c #030000",
"+  c #000202",
"@  c #010202",
"#  c #020202",
"$  c #020302",
"%  c #030302",
"&  c gray1",
"*  c #070100",
"=  c #050102",
"-  c #030403",
";  c #040403",
":  c #050403",
">  c #050605",
",  c #0F0503",
"<  c #090605",
"1  c #100501",
"2  c #160601",
"3  c #190600",
"4  c #180802",
"5  c #190904",
"6  c #190A04",
"7  c #190A05",
"8  c #1B0D09",
"9  c #1A120E",
"0  c #1D120D",
"q  c #171311",
"w  c #171513",
"e  c #22110C",
"r  c #2B120B",
"t  c #230813",
"y  c #270915",
"u  c #280C18",
"i  c #2C1611",
"p  c #2D1812",
"a  c #2E1812",
"s  c #2F1812",
"d  c #2E1913",
"f  c #23171C",
"g  c #28111B",
"h  c #25191F",
"j  c #25201D",
"k  c #24211D",
"l  c #25211D",
"z  c #2A221E",
"x  c #351624",
"c  c #361625",
"v  c #3B1E25",
"b  c #3B1E26",
"n  c #3C1A29",
"m  c #3D1F28",
"M  c #292825",
"N  c #2A2824",
"B  c #2E2924",
"V  c #2E2A25",
"C  c #2F2A26",
"Z  c #302924",
"A  c #312C27",
"S  c #3D2028",
"D  c #322D29",
"F  c #322D2A",
"G  c #481527",
"H  c #541931",
"J  c #591B35",
"K  c #601835",
"L  c #691F3B",
"P  c #40292F",
"I  c #482C38",
"U  c #522536",
"Y  c #552636",
"T  c #522835",
"R  c #5E243C",
"E  c #5A2C3E",
"W  c #602232",
"Q  c #66223B",
"!  c #62263E",
"~  c #66273F",
"^  c #69203C",
"/  c #7F1E45",
"(  c #4E3C42",
")  c #573343",
"_  c #5D3648",
"`  c #5F3649",
"'  c #6B3241",
"]  c #6C3344",
"[  c #603749",
"{  c #6F334D",
"}  c #66394E",
"|  c #773652",
" . c #7C3956",
".. c #7B3C55",
"X. c #821F47",
"o. c #93264F",
"O. c #833051",
"+. c #843B51",
"@. c #8D3D58",
"#. c #9F365D",
"$. c #963B5F",
"%. c #963E63",
"&. c #B02C62",
"*. c #A53E69",
"=. c #A93E6A",
"-. c #A83E6B",
";. c #A93E6B",
":. c #BC3369",
">. c #BB376A",
",. c #BC3569",
"<. c #BD356B",
"1. c #BE346C",
"2. c #B33E6F",
"3. c #BC3A6F",
"4. c #BA3D6F",
"5. c #C22F69",
"6. c #C52F6A",
"7. c #C62F6B",
"8. c #C72F6C",
"9. c #C82F6C",
"0. c #C92F6C",
"q. c #C92F6D",
"w. c #CA2F6D",
"e. c #CB2F6E",
"r. c #CC2F6E",
"t. c #C0336B",
"y. c #C5306C",
"u. c #C6306C",
"i. c #C5336E",
"p. c #C8316D",
"a. c #CB306D",
"s. c #CA316D",
"d. c #C8316E",
"f. c #CB306E",
"g. c #CC306E",
"h. c #CC306F",
"j. c #CD306F",
"k. c #CE306F",
"l. c #CE3070",
"z. c #CF3070",
"x. c #CF3171",
"c. c #CC3270",
"v. c #C93470",
"b. c #C23870",
"n. c #C53B71",
"m. c #C63C71",
"M. c #CA3C73",
"N. c #CF3974",
"B. c #CF3A75",
"V. c #CB3C74",
"C. c #CF3D76",
"Z. c #934265",
"A. c #964266",
"S. c #9B4268",
"D. c #9D4269",
"F. c #9F426A",
"G. c #A0426A",
"H. c #A5426C",
"J. c #AB416D",
"K. c #A04B6C",
"L. c #A24C6E",
"P. c #A44C6F",
"I. c #A94D72",
"U. c #B84676",
"Y. c #BB4E7A",
"T. c #C04370",
"R. c #CA4376",
"E. c #C24975",
"W. c #C24876",
"Q. c #C04B76",
"!. c #C44976",
"~. c #CD4378",
"^. c #CD4579",
"/. c #C84979",
"(. c #C94979",
"). c #C9497A",
"_. c #C9497B",
"`. c #C8487D",
"'. c #C94B7F",
"]. c #CA4D80",
"[. c None",
/* pixels */
"[.[.[.[.[.[.[.[.[.[.[.[.j.z.z.z.z.z.z.z.z.[.[.[.[.[.[.[.[.[.[.[.",
"[.[.[.[.[.[.[.[.h.z.z.a.z.z.z.z.z.z.z.z.l.z.z.j.[.[.[.[.[.[.[.[.",
"[.[.[.[.[.[.[.[.5.z.z.z.z.z.z.z.z.z.z.z.z.z.z.0.[.[.[.[.[.[.[.[.",
"[.[.[.[.[.[.s.e.j.z.z.z.z.z.z.z.z.z.z.z.z.z.z.z.w.f.[.[.[.[.[.[.",
"[.[.[.[.[.[.7.z.z.z.z.z.z.z.z.z.z.z.z.z.z.z.z.z.z.q.[.[.[.[.[.[.",
"[.[.[.[.[.[.r.z.z.z.z.z.z.z.z.z.z.z.z.z.z.z.z.z.z.l.[.[.[.[.[.[.",
"[.[.[.[.[.[.9.z.z.z.z.z.z.z.z.z.z.z.z.z.z.z.z.z.z.j.[.[.[.[.[.[.",
"[.[.[.[.p.6.r.z.z.z.z.z.z.z.z.z.z.z.z.z.z.z.z.z.z.j.7.[.[.[.[.[.",
"[.[.[.[.z.z.z.z.z.z.z.z.z.z.z.z.z.z.z.z.z.z.z.z.z.z.z.[.[.[.[.[.",
"[.[.[.[.l.z.z.z.z.z.z.z.z.z.z.z.z.z.z.z.z.z.z.z.z.z.z.[.[.[.[.[.",
"[.[.[.[.k.z.z.z.z.z.z.z.z.z.z.z.z.z.z.z.z.z.z.z.z.z.z.[.[.[.[.[.",
"[.[.[.[.k.z.z.z.z.z.z.z.z.z.z.z.z.z.z.z.z.z.z.z.z.z.z.[.[.[.[.[.",
"[.[.[.[.z.z.z.z.z.z.z.z.z.z.z.z.z.z.z.z.z.z.z.z.z.z.z.[.[.[.[.[.",
"[.[.[.z.L P ^ z.z.V.y.z.z.z.z.z.z.z.z.z.z.u./.,.z.z.g.[.[.[.[.[.",
"[.[.[.  V $ T z.z.z.>.z.z.z.z.z.z.z.z.z.z.<.z.T.z.r.[.[.[.[.[.[.",
"[.[.[.  C $ > ~ / #.n._./.!.z.z.z.j.W.(.).m.+.8.k.a.[.[.[.[.[.[.",
"[.[.[.* B $ $ $ Y u Q.z.z.z.y.z.z.:.z.z.z.M.K o.[.[.[.[.[.[.[.[.",
"[.[.[.[.9 l j k R z.$.' x.z.C.~.^.B.z.N.] t.z.1.8 [.[.[.[.[.[.[.",
"[.[.[.[.[.O     ;.z. .t R.z.z.z.z.z.z.E.H d.z.i.  [.[.[.[.[.[.[.",
"[.[.[.[.[.[.e - -.z.z.z.O.m b b v b S ( U.z.&.g   [.[.[.[.[.[.[.",
"[.[.[.[.[.[.[.& %.z.z.z.{ x n n n n c | U.X.G q w 0 [.[.[.[.[.[.",
"[.[.[.[.[.[.d . t y 3.z.z.z.z.z.z.z.z.b.J Q $ $ $ A o [.[.[.[.[.",
"[.[.[.[.[.[.d X h I =.c.v.v.v.v.v.v.z.*.+ C $ $ $ D   [.[.[.[.[.",
"[.[.[.[.[.[.p $ S.z.)             t t t   Z $ $ $ F   [.[.[.[.[.",
"[.[.[.[.[.[.p $ F.z.A._ [ [ ` ` ` ` ` [ } U N N M z 6 [.[.[.[.[.",
"[.[.[.[.[.[.a & A.z.z.z.z.z.z.z.z.z.z.z.z.2.= : : [.[.[.[.[.[.[.",
"[.[.[.[.[.[.a & A.z.z.z.z.z.J.D.G.G.G.G.H...3 4 2 [.[.[.[.[.[.[.",
"[.[.[.[.[.[.a $ Z.z.z.z.z.z.f @ # % % % % , [.[.[.[.[.[.[.[.[.[.",
"[.[.[.[.[.[.i ; 4.].'.'.'.`.! O 6 7 5 5 5 [.[.[.[.[.[.[.[.[.[.[.",
"[.[.[.[.[.[.s < Y.z.z.z.z.z.E 1 [.[.[.[.[.[.[.[.[.[.[.[.[.[.[.[.",
"[.[.[.[.[.[.[.[.@.I.L.L.P.K.W [.[.[.[.[.[.[.[.[.[.[.[.[.[.[.[.[.",
"[.[.[.[.[.[.[.[.r           [.[.[.[.[.[.[.[.[.[.[.[.[.[.[.[.[.[."
};
