/* XPM */
static char *result[] = {
/* columns rows colors chars-per-pixel */
"32 32 144 2 ",
"   c black",
".  c #010101",
"X  c #020302",
"o  c #060103",
"O  c #070706",
"+  c #090000",
"@  c #0F0100",
"#  c #090305",
"$  c #090807",
"%  c #0F0A07",
"&  c #0A0908",
"*  c #0A0A08",
"=  c #110907",
"-  c #110A07",
";  c #190905",
":  c #1F0D07",
">  c #120C09",
",  c #151311",
"<  c #151412",
"1  c #1A1615",
"2  c #200C06",
"3  c #210E08",
"4  c #220F0A",
"5  c #20130D",
"6  c #2D0A18",
"7  c #251813",
"8  c #221E1B",
"9  c #301812",
"0  c #23201D",
"q  c #24201D",
"w  c #272521",
"e  c #2F2C28",
"r  c #38202B",
"t  c #302C28",
"y  c #312D29",
"u  c #322D29",
"i  c #4D1324",
"p  c #5B1531",
"a  c #5F1733",
"s  c #6B1F36",
"d  c #412632",
"f  c #622B43",
"g  c #652D45",
"h  c #642D46",
"j  c #682A42",
"k  c #6F2E47",
"l  c #712942",
"z  c #6D314C",
"x  c #72324D",
"c  c #773350",
"v  c #7A3553",
"b  c #7A3653",
"n  c #7F3756",
"m  c #82284B",
"M  c #80304B",
"N  c #892C50",
"B  c #833354",
"V  c #853356",
"C  c #823858",
"Z  c #863F5D",
"A  c #883F58",
"S  c #8B3E58",
"D  c #9C3D65",
"F  c #A93561",
"G  c #A83D69",
"H  c #AE3D6B",
"J  c #AD3F6D",
"K  c #BA3368",
"L  c #BC3269",
"P  c #BF326A",
"I  c #B73B6E",
"U  c #B03D6D",
"Y  c #B33C6D",
"T  c #B33D6E",
"R  c #B43D6F",
"E  c #BA3A6F",
"W  c #BE396F",
"Q  c #BF3B6E",
"!  c #B83F6D",
"~  c #BF3B71",
"^  c #C52F6A",
"/  c #C62F6A",
"(  c #C62F6B",
")  c #C72F6B",
"_  c #C92F6D",
"`  c #CA2F6D",
"'  c #CB2F6D",
"]  c #CC2F6E",
"[  c #C3306A",
"{  c #C6306A",
"}  c #C6306B",
"|  c #C6316B",
" . c #C7316B",
".. c #C5336B",
"X. c #C6326C",
"o. c #C7356F",
"O. c #C5366F",
"+. c #C8316C",
"@. c #CA306D",
"#. c #CB306E",
"$. c #CC306E",
"%. c #CD306F",
"&. c #CE306F",
"*. c #C63671",
"=. c #CD3170",
"-. c #CE3070",
";. c #CF3070",
":. c #C93470",
">. c #CF3471",
",. c #CE3672",
"<. c #C03C72",
"1. c #C13D73",
"2. c #C33C73",
"3. c #CB3871",
"4. c #CA3D74",
"5. c #D03573",
"6. c #D13875",
"7. c #D13A76",
"8. c #8D415C",
"9. c #8F415C",
"0. c #8D4061",
"q. c #9F4169",
"w. c #9B4A6A",
"e. c #9A4B6A",
"r. c #9C4A6B",
"t. c #9C4B6B",
"y. c #A3416A",
"u. c #A8406C",
"i. c #AB406C",
"p. c #AB406D",
"a. c #A94C75",
"s. c #AB4E77",
"d. c #CF4177",
"f. c #CE417A",
"g. c #C8457B",
"h. c #C8467B",
"j. c #CC457B",
"k. c #C8467C",
"l. c #C8477C",
"z. c #C54C7C",
"x. c #C94E7A",
"c. c #CB487C",
"v. c #D04C7C",
"b. c None",
/* pixels */
"b.b.b.b.b.b.b.b.b.b.b.#.;.;.;.;.;.;.;.$.b.b.b.b.b.b.b.b.b.b.b.b.",
"b.b.b.b.b.b.b.b.X.) } ^ ;.;.;.;.;.;.;.) { (  .b.b.b.b.b.b.b.b.b.",
"b.b.b.b.b.b.b.b.` ;.;.;.;.;.;.;.;.;.;.;.;.;.;.b.b.b.b.b.b.b.b.b.",
"b.b.b.b.b.b...^ ;.;.;.;.;.;.;.;.;.;.;.;.;.;.;.( | b.b.b.b.b.b.b.",
"b.b.b.b.b.b.( ;.;.;.;.;.;.;.;.;.;.;.;.;.;.;.;.;.;.b.b.b.b.b.b.b.",
"b.b.b.b.b.b.^ ;.;.;.;.;.;.;.;.;.;.;.;.;.;.;.;.;.-.b.b.b.b.b.b.b.",
"b.b.b.b.b.&.^ ;.;.;.;.;.;.;.;.;.;.;.;.;.;.;.;.;.] ;.b.b.b.b.b.b.",
"b.b.b.b.| ;.;.;.;.;.;.;.;.;.;.;.;.;.;.;.;.;.;.;.;.;._ b.b.b.b.b.",
"b.b.b.b./ ;.;.;.;.;.;.;.;.;.;.;.;.;.;.;.;.;.;.;.;.;.$.b.b.b.b.b.",
"b.b.b.b.} ;.;.;.;.;.;.;.;.;.;.;.;.;.;.;.;.;.;.;.;.;.] b.b.b.b.b.",
"b.b.b.b.} ;.;.;.;.;.;.;.;.;.;.;.;.;.;.;.;.;.;.;.;.;.] b.b.b.b.b.",
"b.b.b.b./ ;.;.;.;.;.;.;.;.;.;.;.;.;.;.;.;.;.;.;.;.;.$.b.b.b.b.b.",
"b.b.b.b.+.;.;.;.P Q ;.;.;.;.;.;.;.;.;.;.;.! K ;.;.;.@.b.b.b.b.b.",
"b.b.b.b.b.b./ ;.4.;.%.;.;.;.;.;.;.;.;.;.;.;.x.;.-.b.b.b.b.b.b.b.",
"b.b.b.b.b.b.+.' [ F ;.;.;.o.;.;.;.O.;.;.3.L [ ] @.b.b.b.b.b.b.b.",
"b.b.b.b.b.b.b.b.s 6 d.5.6.>.;.;.;.,.7.5.v.6 i b.b.b.b.b.b.b.b.b.",
"b.b.b.b.b.b.b.= G ;.k l ;.;.;.;.;.;.;.M j ;.H - b.b.b.b.b.b.b.b.",
"b.b.b.b.b.b.9   Y ;.z m ;.;.;.;.;.;.;.N h ;.E   3 b.b.b.b.b.b.b.",
"b.b.b.b.b.      U ;.;.s.a 6 6 6 6 6 p a.;.;.I       b.b.b.b.b.b.",
"b.b.b.b.7 e 8   U ;.;.;.C v b b b b n ;.;.;.I . & O > b.b.b.b.b.",
"b.b.b.  0 X t   I ;.;.;.;.;.;.;.;.;.;.;.;.;.W . X X <   b.b.b.b.",
"b.b.b.  q X u   x D ;.;.;.;.;.;.;.;.;.;.;.D c . X X ,   b.b.b.b.",
"b.b.b.  0 X y     6 =.;.;.;.;.;.;.;.;.;.;.6   . X X <   b.b.b.b.",
"b.b.b.b.5 w 1   Z *.V g f f f f f f f g B :.0.. $ * % b.b.b.b.b.",
"b.b.b.b.b.      i.;.d # # # # # # # # # r ;.R       b.b.b.b.b.b.",
"b.b.b.b.b.b.b.  y.;.;.;.;.;.;.;.;.;.;.;.;.;.p.  : b.b.b.b.b.b.b.",
"b.b.b.b.b.b.b.  y.;.;.;.;.;.*.*.*.;.;.;.;.;.p.  b.b.b.b.b.b.b.b.",
"b.b.b.b.b.b.b.  q.;.;.;.;.T o   o J ;.;.;.;.u.  b.b.b.b.b.b.b.b.",
"b.b.b.b.b.b.b.  ~ k.g.g.k.2.      1.l.h.h.l.<.  b.b.b.b.b.b.b.b.",
"b.b.b.b.b.b.b.  z.;.;.;.;.f.      j.;.;.;.;.c.  2 b.b.b.b.b.b.b.",
"b.b.b.b.b.b.b.b.S r.w.w.r.8.b.b.b.9.r.e.e.t.A b.b.b.b.b.b.b.b.b.",
"b.b.b.b.b.b.b.b.4         + b.b.b.;         @ b.b.b.b.b.b.b.b.b."
};
