/* XPM */
static char *result[] = {
/* columns rows colors chars-per-pixel */
"32 32 184 2 ",
"   c black",
".  c #010000",
"X  c #020000",
"o  c gray1",
"O  c #040100",
"+  c #040201",
"@  c #040404",
"#  c #060504",
"$  c #060606",
"%  c #070606",
"&  c #070707",
"*  c #090606",
"=  c #0C0605",
"-  c #0C0907",
";  c #0E0806",
":  c #090909",
">  c #0A0909",
",  c #0A0A09",
"<  c gray4",
"1  c #0F0E0D",
"2  c #100706",
"3  c #100806",
"4  c #160905",
"5  c #110A08",
"6  c #100D0B",
"7  c #110E0B",
"8  c #100C0C",
"9  c #120F0D",
"0  c #180B08",
"q  c #1A0C08",
"w  c #1A0D09",
"e  c #1B0D09",
"r  c #1A0E0A",
"t  c #1B0E0A",
"y  c #1D0E0A",
"u  c #1A0E0C",
"i  c #13100E",
"p  c #13100F",
"a  c #1A110E",
"s  c #1D100C",
"d  c #1F100C",
"f  c #131313",
"g  c gray8",
"h  c #151515",
"j  c #161515",
"k  c #161615",
"l  c #161616",
"z  c #181213",
"x  c #181717",
"c  c #1D1514",
"v  c #1C1415",
"b  c #1E1614",
"n  c #1F1715",
"m  c gray10",
"M  c #1D1C1C",
"N  c #21130F",
"B  c #2B1A15",
"V  c #231D1B",
"C  c #231F1C",
"Z  c #241F1D",
"A  c #3D1123",
"S  c #301F23",
"D  c #252220",
"F  c #252323",
"G  c #262422",
"H  c #242425",
"J  c #252525",
"K  c #272524",
"L  c #282421",
"P  c #282422",
"I  c #2A2623",
"U  c #2E2324",
"Y  c #2F2324",
"T  c #292827",
"R  c #2A2A2A",
"E  c #2B2A2A",
"W  c gray17",
"Q  c #342125",
"!  c #302B27",
"~  c #332628",
"^  c #352628",
"/  c #352729",
"(  c #3B2329",
")  c #342C29",
"_  c #342E2A",
"`  c #3E2C2E",
"'  c #353535",
"]  c #4E1B30",
"[  c #4D1F32",
"{  c #501B31",
"}  c #501C31",
"|  c #521E33",
" . c #721C3E",
".. c #721C3F",
"X. c #42232B",
"o. c #44252E",
"O. c #462D33",
"+. c #4A2D34",
"@. c #4B2D35",
"#. c #4D2E36",
"$. c #4F2E36",
"%. c #5D2239",
"&. c #5C2C3C",
"*. c #55353D",
"=. c #64243B",
"-. c #6D233D",
";. c #602B40",
":. c #692A44",
">. c #6D2B45",
",. c #6A2C46",
"<. c #6F2C48",
"1. c #722142",
"2. c #752142",
"3. c #752143",
"4. c #7A2144",
"5. c #7C2045",
"6. c #6B3647",
"7. c #7B334C",
"8. c #7C314C",
"9. c gray28",
"0. c #54514F",
"q. c #595452",
"w. c #585552",
"e. c #585553",
"r. c #5F5A58",
"t. c #676766",
"y. c DimGray",
"u. c #72706F",
"i. c #7E7E7E",
"p. c #821F46",
"a. c #822047",
"s. c #85274D",
"d. c #8B244D",
"f. c #91264A",
"g. c #9C2856",
"h. c #813454",
"j. c #A22858",
"k. c #AA285B",
"l. c #AA285C",
"z. c #B63568",
"x. c #B83468",
"c. c #BF386F",
"v. c #C82F6C",
"b. c #CA2F6D",
"n. c #CB2F6D",
"m. c #CB2F6E",
"M. c #C1306A",
"N. c #C1306B",
"B. c #C4306B",
"V. c #C6306C",
"C. c #CA306D",
"Z. c #CB306D",
"A. c #CB306E",
"S. c #CC306E",
"D. c #CD306E",
"F. c #CC306F",
"G. c #CD306F",
"H. c #CE306F",
"J. c #CA3370",
"K. c #CE3070",
"L. c #CF3070",
"P. c #C83470",
"I. c #AE4C76",
"U. c #AF4D77",
"Y. c #B04C77",
"T. c #838383",
"R. c #8B8886",
"E. c #959392",
"W. c #989695",
"Q. c gray61",
"!. c #A3A1A0",
"~. c gray67",
"^. c #ACACAC",
"/. c #AEAEAE",
"(. c gray69",
"). c gray70",
"_. c #B6B6B6",
"`. c gray72",
"'. c #BDBCBB",
"]. c #BEBDBC",
"[. c #D3D3D2",
"{. c #D9D8D7",
"}. c #EFEFEF",
"|. c None",
/* pixels */
"|.|.|.|.|.|.|.|.|.|.|.v.L.L.L.L.L.L.L.C.|.|.|.|.|.|.|.|.|.|.|.|.",
"|.|.|.|.|.|.|.|.|.|.|.L.L.L.L.L.L.L.L.m.|.|.|.|.|.|.|.|.|.|.|.|.",
"|.|.|.|.|.|.|.v.L.L.L.L.L.L.L.L.L.L.L.L.L.L.L.Z.|.|.|.|.|.|.|.|.",
"|.|.|.|.|.|.|.L.L.L.L.L.L.L.L.L.L.L.L.L.L.L.L.m.|.|.|.|.|.|.|.|.",
"|.|.|.|.|.v.L.L.L.L.L.L.L.L.L.L.L.L.L.L.L.L.L.L.L.Z.|.|.|.|.|.|.",
"|.|.|.|.|.L.L.L.L.L.L.L.L.L.L.L.L.L.L.L.L.L.L.L.L.G.|.|.|.|.|.|.",
"|.|.|.|.|.L.L.L.L.L.L.L.L.L.L.L.L.L.L.L.L.L.L.L.L.G.|.|.|.|.|.|.",
"|.|.|.L.L.L.L.L.L.L.L.L.L.L.L.L.L.L.L.L.L.L.L.L.L.n.L.|.|.|.|.|.",
"|.|.|.K.L.L.L.&./ a.L.L.L.L.L.L.L.L.L.L.L.L.L.L.L.L.L.|.|.|.|.|.",
"|.|.|.L.L.L.L.O.  4.L.L.L.L.L.L.L.L.L.L.L.L.L.L.L.L.L.|.|.|.|.|.",
"|.|.|.G.S.L.L.#.  U ^ a.L.L.L.L.L.L.L.L.L.L.L.L.L.L.L.|.|.|.|.|.",
"|.|.|.|.|.L.L.#.y.}.@ 5.L.L.L.L.L.L.L.L.L.L.L.L.L.L.L.|.|.|.|.|.",
"|.|.|.|.|.L.L.@.i.{.u.X.~ j.L.L.L.L.L.L.L.L.L.L.L.L.L.|.|.|.|.|.",
"|.|.|.|.|.L.L.@.Q.R._.P   g.L.L.L.L.L.L.L.L.L.L.L.L.L.|.|.|.|.|.",
"|.|.|.|.|.L.L.+.^.r.`.e.  Y ` 6.x.L.L.L.L.L.L.L.L.L.L.|.|.|.|.|.",
"|.|.|.|.|.L.L.$.).q.t.W.      D z.L.L.L.L.L.L.L.L.L.L.|.|.|.|.|.",
"|.|.|.|.|.A.S.p.'.0.E (.:     *.V.L.L.L.L.L.L.V.L.S.D.|.|.|.|.|.",
"|.|.|.|.|.|.|.0 /.!.R ~.'     7.L.L.L.L.L.L.L.M.L.D.|.|.|.|.|.|.",
"|.|.|.|.|.|.|.t W E.].[.T.  8 l.L.L.L.L.L.L.L.n.D.H.|.|.|.|.|.|.",
"|.|.|.|.|.|.|.N #   & w.9.% 8.F.B.L.L.A.L.L.L.b.|.|.|.|.|.|.|.|.",
"|.|.|.|.|.B 3 _ 1 o o 2.k.k.L.L.H.L.L.o.z v v  .5 |.|.|.|.|.|.|.",
"|.|.|.|.|.r   L       d.L.L.L.L.L.L.L.S       C   |.|.|.|.|.|.|.",
"|.|.|.|.|.s   I   ) p <.Y.I.I.I.Y.F.L.Q       Z   |.|.|.|.|.|.|.",
"|.|.|.|.|.s   !   =.A P.L.L.L.L.L.N.L.(       V O |.|.|.|.|.|.|.",
"|.|.|.|.|.e   - 9 s.L.L.L.L.L.L.L.Y.U...i 7 6 4 |.|.|.|.|.|.|.|.",
"|.|.|.|.|.a , & $ 3.L.L.L.L.L.L.L.L.L.,.  o $ |.|.|.|.|.|.|.|.|.",
"|.|.|.u = m       %.] P.L.h.| J.L.L.L.:.  M   G ; |.|.|.|.|.|.|.",
"|.|.|.2   g       T * 1.L.>.. c.L.L.L.[ > <   H   |.|.|.|.|.|.|.",
"|.|.|.|.|.c h :       %.} f.|.-.} { } ;.      J   |.|.|.|.|.|.|.",
"|.|.|.|.|.y   x       K X |.|.d X X . f       F + |.|.|.|.|.|.|.",
"|.|.|.|.|.|.|.b h h h w |.|.|.|.|.|.|.n l j k |.|.|.|.|.|.|.|.|.",
"|.|.|.|.|.|.|.y       |.|.|.|.|.|.|.|.q       |.|.|.|.|.|.|.|.|."
};
