/* XPM */
static char *result[] = {
/* columns rows colors chars-per-pixel */
"32 32 223 2 ",
"   c black",
".  c #010101",
"X  c gray1",
"o  c #070100",
"O  c #070200",
"+  c #050203",
"@  c #060505",
"#  c #060605",
"$  c #060506",
"%  c #0A0201",
"&  c #0A0301",
"*  c #0C0502",
"=  c #0C0503",
"-  c #0D0503",
";  c #0F0603",
":  c #080707",
">  c #0C0705",
",  c #0E0604",
"<  c #0C0706",
"1  c gray3",
"2  c #0A0908",
"3  c #0A0809",
"4  c #0D0C0B",
"5  c #140703",
"6  c #150905",
"7  c #160905",
"8  c #180904",
"9  c #13050B",
"0  c #170C09",
"q  c #100F0E",
"w  c #180C08",
"e  c #1A0E0B",
"r  c #1D120F",
"t  c #131210",
"y  c #151211",
"u  c #141311",
"i  c #171513",
"p  c gray9",
"a  c #181311",
"s  c #1A1513",
"d  c #181514",
"f  c #191816",
"g  c #1A1816",
"h  c #1C1917",
"j  c #1B1A1A",
"k  c #1D1B19",
"l  c #1E1B19",
"z  c #24100A",
"x  c #210812",
"c  c #220913",
"v  c #240B15",
"b  c #290916",
"n  c #251410",
"m  c #291813",
"M  c #201C1A",
"N  c #221E1C",
"B  c #341F18",
"V  c #29201C",
"C  c #2D201C",
"Z  c #3C0E21",
"A  c #242322",
"S  c #252322",
"D  c gray14",
"F  c #2A2623",
"G  c #2D2723",
"H  c #2C2724",
"J  c #2D2724",
"K  c #2D2A27",
"L  c #2F2C2B",
"P  c gray18",
"I  c #332825",
"U  c #332028",
"Y  c #3B222D",
"T  c #302B28",
"R  c #342A28",
"E  c #322D29",
"W  c #33322D",
"Q  c #37322F",
"!  c #37332F",
"~  c #3C3530",
"^  c #3C3631",
"/  c #3E3733",
"(  c #431024",
")  c #4B162B",
"_  c #44192B",
"`  c #53142D",
"'  c #5F1633",
"]  c #561D34",
"[  c #571D36",
"{  c #621F39",
"}  c #6C1C3B",
"|  c #462830",
" . c #522034",
".. c #542335",
"X. c #562036",
"o. c #552736",
"O. c #58263B",
"+. c #5C2439",
"@. c #5E2B3F",
"#. c #403935",
"$. c #463B37",
"%. c #4D3830",
"&. c #413C39",
"*. c #463D38",
"=. c #433F3C",
"-. c #3B433C",
";. c #751C40",
":. c #7A1D42",
">. c #662641",
",. c #602A40",
"<. c #7A3553",
"1. c #7C3653",
"2. c #7B3654",
"3. c #7C3654",
"4. c #7E3655",
"5. c #733F51",
"6. c #7F3A51",
"7. c #7E3856",
"8. c #4D4B4A",
"9. c #4C4C4C",
"0. c gray30",
"q. c #565656",
"w. c gray35",
"e. c #7C5664",
"r. c #777472",
"t. c #80284A",
"y. c #86294C",
"u. c #91224F",
"i. c #8A2C52",
"p. c #932250",
"a. c #9F2556",
"s. c #902B52",
"d. c #982A51",
"f. c #823356",
"g. c #813857",
"h. c #833857",
"j. c #893B57",
"k. c #893659",
"l. c #8A365A",
"z. c #833858",
"x. c #94365C",
"c. c #98335A",
"v. c #AB285C",
"b. c #A82A5C",
"n. c #AD285E",
"m. c #B0295F",
"M. c #933C61",
"N. c #B22A61",
"B. c #B62A63",
"V. c #B92B64",
"C. c #BD2C66",
"Z. c #A63D69",
"A. c #AE3868",
"S. c #AB3C6B",
"D. c #B8376C",
"F. c #B13C6D",
"G. c #B33C6D",
"H. c #B53C6E",
"J. c #B93A6B",
"K. c #BA3A6F",
"L. c #BB3A6F",
"P. c #BD396F",
"I. c #BC3A6F",
"U. c #C22F67",
"Y. c #C22F68",
"T. c #C32F69",
"R. c #C42F6A",
"E. c #C52F6A",
"W. c #C52E6B",
"Q. c #C62F6A",
"!. c #C62F6B",
"~. c #C72E6C",
"^. c #C62F6C",
"/. c #C92F6C",
"(. c #C92F6D",
"). c #CB2F6E",
"_. c #CC2F6F",
"`. c #C33069",
"'. c #C5306A",
"]. c #C7306B",
"[. c #C4326B",
"{. c #C13469",
"}. c #C4346F",
"|. c #CA316D",
" X c #C9326D",
".X c #CA306E",
"XX c #CC306E",
"oX c #CD306E",
"OX c #CD306F",
"+X c #CE306F",
"@X c #CC3170",
"#X c #CE3070",
"$X c #CF3070",
"%X c #CC3371",
"&X c #C93673",
"*X c #C13870",
"=X c #C23870",
"-X c #C73973",
";X c #C43D75",
":X c #C83873",
">X c #BE4578",
",X c #C24176",
"<X c #967883",
"1X c #A07F8B",
"2X c #868686",
"3X c gray56",
"4X c #979696",
"5X c #979797",
"6X c #9A9695",
"7X c #A19F9E",
"8X c gray63",
"9X c gray64",
"0X c #A4A1A0",
"qX c #A5A5A5",
"wX c #ABA9A8",
"eX c #BAADB1",
"rX c #BBB9B8",
"tX c gray73",
"yX c #CCBBC2",
"uX c #D8D8D7",
"iX c #DBDADA",
"pX c gray92",
"aX c None",
/* pixels */
"aXaXaXaXaXaXaXaXaXaXaX].$X$X$X$X$X$X$XaXaXaXaXaXaXaXaXaXaXaXaXaX",
"aXaXaXaXaXaXaXaX[.Q.'.T.$X$X$X$X$X$X$X!.'.E. XaXaXaXaXaXaXaXaXaX",
"aXaXaXaXaXaXaXaX+X$X$X$X$X$X$X$X$X$X$X$X$X$X).aXaXaXaXaXaXaXaXaX",
"aXaXaXaXaXaX{.T.$X$X$X$X$X$X$X$X$X$X$X$X$X$XXXY.|.aXaXaXaXaXaXaX",
"aXaXaXaXaXaXE.$X$X$X$X$X$X$X$X$X$X$X$X$X$X$X$X$X).aXaXaXaXaXaXaX",
"aXaXaXaXaXaXT.$X$X$X$X$X$X$X$X$X$X$X$X$X$X$X$X$XoXaXaXaXaXaXaXaX",
"aXaXaXaXaXXXR.$X~.$X$X$X$X$X$X$X$X$X$X$X$X$X$X$X/.XXaXaXaXaXaXaX",
"aXaXaXaX`.$X$X$X#XOXV.$X$X$X$X$X$X$X$X$X$X$X$X$X$X$X#XaXaXaXaXaX",
"aXaXaXaXE.$XC.$X).m.b.N.B.V.$X$X$X$X$X$X$X$X_.W.u.$X$XaXaXaXaXaX",
"aXaXaXaX'.$X^.$X~.:.Z x 9 | $X$X$X$X$X$X$X$X.X#Xv.$X$XaXaXaXaXaX",
"aXaXaXaX'.$X(.~.n.+ . . . u <Xe...........t.(.#XW.$X$XaXaXaXaXaX",
"aXaXaXaXE.$Xs.` c . . . . 1 tXpXD . . . . . ' p.a.$X$XaXaXaXaXaX",
"aXaXaXaX X).} K 4 . . . J r.5Xq.8XQ T . . . H { ;./.$XaXaXaXaXaX",
"aXaXaXaXaXaXaX  N . . 2 X iXP . qX8.y . . . G   aXaXaXaXaXaXaXaX",
"aXaXaXaXaXaXaXaXr s . . 2X0XX . w.4Xd . M a w aXaXaXaXaXaXaXaXaX",
"aXaXaXaXaXaXaXU.y._ o.L uX&.. . p rX=.# +.>.d.aXaXaXaXaXaXaXaXaX",
"aXaXaXaXaXaXaX( $X$X) 6XqX0.0.0.9.9X3X  k.$Xf.  aXaXaXaXaXaXaXaX",
"aXaXaXaXaXaX%.J.$X%XA.yXeX7X7X7X7XwX1X .H.$Xc.$.B aXaXaXaXaXaXaX",
"aXaXaXaXaX  ^ @ i.:X>X$X            [ $X$X$X5.. t   aXaXaXaXaXaX",
"aXaXaXm C E h . -.7.$X$X@XG.G.G.G.G.I.$X=Xl.j.. ! *.n aXaXaXaXaX",
"aXaXaX  F . . . I   $X:X-X$X$X$X$X$X$X$XS.  #.. . g   aXaXaXaXaX",
"aXaXaX  F . . . R   $X;X&X&X&X&X&X&X&X,X}.  / . . l   aXaXaXaXaX",
"aXaXaX, V i i q W Y $X$X$X$X$X$X$X$X$X$XD.O.6.f k ~ - aXaXaXaXaX",
"aXaXaXaXaX      I.$X]                   x.$X3.    % aXaXaXaXaXaX",
"aXaXaXaXaX8 ;   P.$XM.h.z.z.z.z.z.z.z.g.F.$X3.  5 z aXaXaXaXaXaX",
"aXaXaXaXaXaXaX  K.$X$X$X$X$X$X$X$X$X$X$X$X$X3.  aXaXaXaXaXaXaXaX",
"aXaXaXaXaXaXaX  K.$X$X$X$X*X<.1.4.$X$X$X$X$X2.  aXaXaXaXaXaXaXaX",
"aXaXaXaXaXaXaX  L.$X$X$X$XZ.    b $X$X$X$X$X3.  aXaXaXaXaXaXaXaX",
"aXaXaXaXaXaXaX  @.: 3 3 : ,.    v U : : : $ X.  aXaXaXaXaXaXaXaX",
"aXaXaXaXaXaXaX& j . . . . A * * > . . . . . S = aXaXaXaXaXaXaXaX",
"aXaXaXaXaXaXaXaXe . . . . 7 aXaXaX< . . . . 6 aXaXaXaXaXaXaXaXaX",
"aXaXaXaXaXaXaXaXaXo O O O aXaXaXaX0 O O O O aXaXaXaXaXaXaXaXaXaX"
};
