/* XPM */
static char *result[] = {
/* columns rows colors chars-per-pixel */
"32 32 142 2 ",
"   c black",
".  c #010101",
"X  c #020302",
"o  c #070706",
"O  c #090000",
"+  c #0F0100",
"@  c #090807",
"#  c #0F0A07",
"$  c #0F0408",
"%  c #0A0908",
"&  c #0A0A08",
"*  c #110907",
"=  c #110A07",
"-  c #190905",
";  c #1F0D07",
":  c #100509",
">  c #120C09",
",  c #151311",
"<  c #151412",
"1  c #1A1615",
"2  c #191918",
"3  c #200C06",
"4  c #210E08",
"5  c #220F0A",
"6  c #20130D",
"7  c #2D0A18",
"8  c #251813",
"9  c #221E1B",
"0  c #301812",
"q  c #1F201F",
"w  c #23201D",
"e  c #24201D",
"r  c #232322",
"t  c #272521",
"y  c #2A2A29",
"u  c #2F2C28",
"i  c #3E212D",
"p  c #322B28",
"a  c #302C28",
"s  c #312C29",
"d  c #312D29",
"f  c #322D29",
"g  c #322D2B",
"h  c #342E2C",
"j  c #343333",
"k  c #343433",
"l  c #353534",
"z  c #4D1324",
"x  c #5B1531",
"c  c #5F1733",
"v  c #6B1F36",
"b  c #482735",
"n  c #622B43",
"m  c #652D45",
"M  c #642D46",
"N  c #682A42",
"B  c #6F2E47",
"V  c #712942",
"C  c #702C48",
"Z  c #712E49",
"A  c #722E49",
"S  c #732D4A",
"D  c #643347",
"F  c #673248",
"G  c #653448",
"H  c #683349",
"J  c #6D314C",
"K  c #72324D",
"L  c #773350",
"P  c #7A3553",
"I  c #7A3653",
"U  c #7F3756",
"Y  c #82284B",
"T  c #80304B",
"R  c #892C50",
"E  c #823354",
"W  c #843456",
"Q  c #823858",
"!  c #883F5E",
"~  c #9C3D65",
"^  c #AD3463",
"/  c #A83D69",
"(  c #AE3D6B",
")  c #AD3F6D",
"_  c #AE3F6D",
"`  c #BA3368",
"'  c #BC3269",
"]  c #B73B6E",
"[  c #B03D6D",
"{  c #B33C6D",
"}  c #B33E6E",
"|  c #B43E6F",
" . c #BA3A6F",
".. c #BE396F",
"X. c #B83F6D",
"o. c #C52F6A",
"O. c #C62F6A",
"+. c #C62F6B",
"@. c #C72F6B",
"#. c #C92F6D",
"$. c #CA2F6D",
"%. c #CB2F6D",
"&. c #CC2F6E",
"*. c #C3306A",
"=. c #C4306A",
"-. c #C6306A",
";. c #C6306B",
":. c #C6316B",
">. c #C7316B",
",. c #C5336B",
"<. c #C6326C",
"1. c #C7356F",
"2. c #C5366F",
"3. c #C8316C",
"4. c #CA306D",
"5. c #CB306E",
"6. c #CC306E",
"7. c #CE306F",
"8. c #C53771",
"9. c #C63671",
"0. c #CD3170",
"q. c #CE3070",
"w. c #CF3070",
"e. c #C93470",
"r. c #CF3471",
"t. c #CC3672",
"y. c #CE3672",
"u. c #CB3871",
"i. c #D03573",
"p. c #D13875",
"a. c #D13A76",
"s. c #8E4062",
"d. c #9F4169",
"f. c #A5406B",
"g. c #A8406C",
"h. c #AB406C",
"j. c #A94C75",
"k. c #AB4E77",
"l. c #CF4177",
"z. c #C94E7A",
"x. c #D04C7C",
"c. c None",
/* pixels */
"c.c.c.c.c.c.c.c.c.c.c.5.w.w.w.w.w.w.w.6.c.c.c.c.c.c.c.c.c.c.c.c.",
"c.c.c.c.c.c.c.c.<.@.;.o.w.w.w.w.w.w.w.@.-.+.>.c.c.c.c.c.c.c.c.c.",
"c.c.c.c.c.c.c.c.$.w.w.w.w.w.w.w.w.w.w.w.w.w.w.c.c.c.c.c.c.c.c.c.",
"c.c.c.c.c.c.,.o.w.w.w.w.w.w.w.w.w.w.w.w.w.w.w.+.:.c.c.c.c.c.c.c.",
"c.c.c.c.c.c.+.w.w.w.w.w.w.w.w.w.w.w.w.w.w.w.w.w.w.c.c.c.c.c.c.c.",
"c.c.c.c.c.c.o.w.w.w.w.w.w.w.w.w.w.w.w.w.w.w.w.w.q.c.c.c.c.c.c.c.",
"c.c.c.c.c.7.o.w.w.w.w.w.w.w.w.w.w.w.w.w.w.w.w.w.&.w.c.c.c.c.c.c.",
"c.c.c.c.:.w.w.w.w.w.w.w.w.w.w.w.w.w.w.w.w.w.w.w.w.w.#.c.c.c.c.c.",
"c.c.c.c.O.w.w.w.w.w.w.w.w.w.w.w.w.w.w.w.w.w.w.w.w.w.6.c.c.c.c.c.",
"c.c.c.c.;.w.w.w.w.w.w.w.w.w.w.w.w.w.w.w.w.w.w.w.w.w.&.c.c.c.c.c.",
"c.c.c.c.;.w.w.w.w.w.w.w.w.w.w.w.w.w.w.w.w.w.w.w.w.w.&.c.c.c.c.c.",
"c.c.c.c.O.w.w.w.w.w.w.w.w.w.w.w.w.w.w.w.w.w.w.w.w.w.6.c.c.c.c.c.",
"c.c.c.c.3.w.w.w.7.w.w.w.w.w.w.w.w.w.w.w.w.X.` w.w.w.4.c.c.c.c.c.",
"c.c.c.c.c.c.O.w.t.w.7.w.w.w.w.w.w.w.w.w.w.w.z.w.q.c.c.c.c.c.c.c.",
"c.c.c.c.c.c.3.%.=.^ w.w.w.1.w.w.w.2.w.w.u.' *.&.4.c.c.c.c.c.c.c.",
"c.c.c.c.c.c.c.c.v 7 l.i.p.r.w.w.w.y.a.i.x.7 z c.c.c.c.c.c.c.c.c.",
"c.c.c.c.c.c.c.* / w.B V w.w.w.w.w.w.w.T N w.( = c.c.c.c.c.c.c.c.",
"c.c.c.c.c.c.0   { w.J Y w.w.w.w.w.w.w.R M w. .  4 c.c.c.c.c.c.c.",
"c.c.c.c.c.      [ w.w.k.c 7 7 7 7 7 x j.w.w.]       c.c.c.c.c.c.",
"c.c.c.c.8 u 9   [ w.w.w.Q P I I I I U w.w.w.] . % o > c.c.c.c.c.",
"c.c.c.  w X a   ] w.w.w.w.w.w.w.w.w.w.w.w.w.... X X <   c.c.c.c.",
"c.c.c.  e X f   K ~ w.w.w.w.w.w.w.w.w.w.w.~ L . X X ,   c.c.c.c.",
"c.c.c.  w X d     7 0.w.w.w.w.w.w.w.w.w.w.7   . X X <   c.c.c.c.",
"c.c.c.c.6 t 1   ! 9.W m n n n n n n n m E e.s.. @ & # c.c.c.c.c.",
"c.c.c.c.c.      h.w.b : : : : : : : : : i w.|       c.c.c.c.c.c.",
"c.c.c.c.c.c.c.  f.w.w.w.w.w.w.w.w.w.w.w.w.w.)   ; c.c.c.c.c.c.c.",
"c.c.c.c.c.c.c.  f.w.w.w.w.w.8.8.8.w.w.w.w.w.)   c.c.c.c.c.c.c.c.",
"c.c.c.c.c.c.c.  d.w.w.w.w.} $   $ _ w.w.w.w.g.  c.c.c.c.c.c.c.c.",
"c.c.c.c.c.c.c.  C D F F D S       Z G H H G A   c.c.c.c.c.c.c.c.",
"c.c.c.c.c.c.c.  y X X X X 2       q X X X X r   3 c.c.c.c.c.c.c.",
"c.c.c.c.c.c.c.c.p k l l j g c.c.c.h l l l l s c.c.c.c.c.c.c.c.c.",
"c.c.c.c.c.c.c.c.5         O c.c.c.-         + c.c.c.c.c.c.c.c.c."
};
