/* XPM */
static char *result[] = {
/* columns rows colors chars-per-pixel */
"32 32 115 2 ",
"   c #020201",
".  c #0B0403",
"X  c #040807",
"o  c #0A0806",
"O  c #050D0B",
"+  c #0C0C0B",
"@  c #120401",
"#  c #110907",
"$  c #120C0B",
"%  c #1C0B08",
"&  c #0A120F",
"*  c #12110F",
"=  c #1A0F16",
"-  c #0B1412",
";  c #151513",
":  c #1C1714",
">  c #1A1816",
",  c #1B1B19",
"<  c #2B1711",
"1  c #2C1A15",
"2  c #221C19",
"3  c #34111F",
"4  c #22211E",
"5  c #28221F",
"6  c #3B1929",
"7  c #2A2423",
"8  c #2A2927",
"9  c #272829",
"0  c #2A2A2A",
"q  c #352B27",
"w  c #332D29",
"e  c #3B2C2C",
"r  c #37312D",
"t  c #3A342F",
"y  c #352D31",
"u  c #353434",
"i  c #3B3934",
"p  c #3D3038",
"a  c #3C3C3B",
"s  c #651736",
"d  c #631C37",
"f  c #452A36",
"g  c #4D2C3C",
"h  c #532E3C",
"j  c #5C293C",
"k  c #413B35",
"l  c #453E3A",
"z  c #6B243F",
"x  c #61283B",
"c  c #75223B",
"v  c #46413B",
"b  c #4B423C",
"n  c #5A3244",
"m  c #5C3D43",
"M  c #5C3C4B",
"N  c #7C2145",
"B  c #71364E",
"V  c #70384F",
"C  c #7C3A4E",
"Z  c #773D57",
"A  c #7C3A57",
"S  c #7E3E5A",
"D  c #555555",
"F  c #595553",
"G  c #5D5D5D",
"H  c #6E5E59",
"J  c #7E4E64",
"K  c #666362",
"L  c #6D6A66",
"P  c gray43",
"I  c #73706D",
"U  c #832148",
"Y  c #8B224B",
"T  c #8E2B53",
"R  c #942C54",
"E  c #9F2F5B",
"W  c #853D5C",
"Q  c #883D5D",
"!  c #AA3361",
"~  c #A73963",
"^  c #B03464",
"/  c #B03F6F",
"(  c #B73D70",
")  c #BA3E72",
"_  c #C42F6A",
"`  c #CB2F6D",
"'  c #C6306B",
"]  c #CC306E",
"[  c #C53670",
"{  c #CF3070",
"}  c #C23971",
"|  c #8D4364",
" . c #974065",
".. c #9E4269",
"X. c #A3426C",
"o. c #AD406E",
"O. c #A34A70",
"+. c #B04573",
"@. c #BA4073",
"#. c #827E7C",
"$. c #848281",
"%. c #9E9897",
"&. c #9C9C9B",
"*. c #A5A3A2",
"=. c #ACACAB",
"-. c #B0B0AF",
";. c #B4B4B4",
":. c #B9B8B7",
">. c #BCBBBA",
",. c #C2C0BF",
"<. c #C5C5C5",
"1. c #C9C8C7",
"2. c #E1E1E0",
"3. c #E9E8E8",
"4. c None",
/* pixels */
"4.4.4.4.4.4.4.4.4.4.4.' { { { { { { { ` 4.4.4.4.4.4.4.4.4.4.4.4.",
"4.4.4.4.4.4.4.4.` { ] _ { { { { { { { ` ` ` ] 4.4.4.4.4.4.4.4.4.",
"4.4.4.4.4.4.4.] ` { { { { { { { { { { { { { _ { 4.4.4.4.4.4.4.4.",
"4.4.4.4.4.4.] _ { { { { { { { { { { { { { { { ` ] 4.4.4.4.4.4.4.",
"4.4.4.4.4.] ] ] { { { { { { { { { { { { { { { { ` ] 4.4.4.4.4.4.",
"4.4.4.4.4.] { { { { { { { { { { { { { { { { { { { { 4.4.4.4.4.4.",
"4.4.4.4.4.4.{ { { { { { { { { { { { { { { { { { { 4.4.4.4.4.4.4.",
"4.4.4.4.] _ { { { { { { { { { { { { { { { { { { { { ] 4.4.4.4.4.",
"4.4.4.4.] { { { { { { { { { { { { ` { { { { { { { { ] { 4.4.4.4.",
"4.4.4.4.{ { _ { { _ z j j N T T U U Y Y { { { { ^ { { { 4.4.4.4.",
"4.4.4.4.{ { { ] Y N +       P ;.+     + Y Y { { ] ` { { 4.4.4.4.",
"4.4.4.4.{ { _ U Y         X >.>.D         h e x Y ] { { 4.4.4.4.",
"4.4.4.4.{ { ~ >           v :.u =.+             j { { { 4.4.4.4.",
"4.4.4.4._ ` ! r       * r *.G   %.I r +     o x N { { 4.4.4.4.4.",
"4.4.4.4.4.4.  o       7 u ,.;   a 1.  4     7 { { { { ] 4.4.4.4.",
"4.4.4.4.4.4.    7 r   8 <.L     X :.l :   q z l 8 r C { 4.4.4.4.",
"4.4.4.4.4.. + o   :   *.$.r       $.*., f d E m     v   4.4.4.4.",
"4.4.4.4.1 #         F 2.7 ; ; , 2 0 3.H ! { { R b   i   4.4.4.4.",
"4.4.4.4.#       * 2 K :.>.;.:.;.-.=.>.%.T { } s w , b . 4.4.4.4.",
"4.4.4.4.#   * > > > , l 7 4 2 2 : : 7 O.{ { ) & o 4 1 4.4.4.4.4.",
"4.4.4.4.< .   $ *     k   = g f f f n / @.+.J O   . 4.4.4.4.4.4.",
"4.4.4.4.4.4.. :       t   Z { { { { { n O O O   @ 4.4.4.4.4.4.4.",
"4.4.4.4.4.4.# + b l b b   h ( / o./ / Z M M p   @ 4.4.4.4.4.4.4.",
"4.4.4.4.4.4.#   . o .         X O X - ( ` { [ O @ 4.4.4.4.4.4.4.",
"4.4.4.4.4.4.# 6 A W W W W W W j   y | { { { { O @ 4.4.4.4.4.4.4.",
"4.4.4.4.4.4.  6 { { ` { { { {  .  X.{ { { { [ O @ 4.4.4.4.4.4.4.",
"4.4.4.4.4.4.4.c Q Q Q Q W W W j X X.{ { { { [ O @ 4.4.4.4.4.4.4.",
"4.4.4.4.4.4.4.4.    X     X     O ..{ { { { ) O @ 4.4.4.4.4.4.4.",
"4.4.4.4.4.4.4.4.4.4.4.4.4.4.4.% & B X 9 7 & B ; . 4.4.4.4.4.4.4.",
"4.4.4.4.4.4.4.4.4.4.4.4.4.4.4.4.+ u         , , . 4.4.4.4.4.4.4.",
"4.4.4.4.4.4.4.4.4.4.4.4.4.4.4.4.4.7 9 9 8 8 7 4.4.4.4.4.4.4.4.4.",
"4.4.4.4.4.4.4.4.4.4.4.4.4.4.4.4.4.1         @ 4.4.4.4.4.4.4.4.4."
};
