/* XPM */
static char *result[] = {
/* columns rows colors chars-per-pixel */
"32 32 214 2 ",
"   c black",
".  c #010101",
"X  c #020201",
"o  c #020202",
"O  c gray1",
"+  c #050000",
"@  c #050201",
"#  c #040404",
"$  c #050504",
"%  c #080303",
"&  c #080403",
"*  c #060A08",
"=  c gray3",
"-  c gray4",
";  c #0D0D0B",
":  c #0E0C0B",
">  c #0E0E0E",
",  c #160702",
"<  c #150804",
"1  c #150906",
"2  c #1A0904",
"3  c #1A0A05",
"4  c #1B0A05",
"5  c #1A0B05",
"6  c #1B0B05",
"7  c #1A0B06",
"8  c #1B0B06",
"9  c #19060E",
"0  c #110E0E",
"q  c #1E080F",
"w  c #11100E",
"e  c #1D100C",
"r  c #1D110D",
"t  c #1D120D",
"y  c #161111",
"u  c #161412",
"i  c #1B1917",
"p  c #1C1917",
"a  c #191919",
"s  c #1D1D1B",
"d  c #25100B",
"f  c #23120D",
"g  c #2A150E",
"h  c #200D16",
"j  c #230F18",
"k  c #2C131C",
"l  c #29171E",
"z  c #231F1C",
"x  c #271D1D",
"c  c #281F1B",
"v  c #3B111C",
"b  c #23201D",
"n  c #26221F",
"m  c #38231B",
"M  c #3A1724",
"N  c #252023",
"B  c #2F2320",
"V  c #2B2420",
"C  c #2B2623",
"Z  c #2D2723",
"A  c #2C2724",
"S  c #2E2926",
"D  c #2D2B27",
"F  c gray16",
"G  c #2C2C2C",
"H  c #332925",
"J  c #312A26",
"K  c #302B27",
"L  c #322A26",
"P  c #302B28",
"I  c #312C28",
"U  c #302D29",
"Y  c #322E2A",
"T  c #36302C",
"R  c #333230",
"E  c #373330",
"W  c #393632",
"Q  c #3D3632",
"!  c #3E3833",
"~  c #3C3C3C",
"^  c #3E3E3E",
"/  c #5A192A",
"(  c #402D25",
")  c #48202D",
"_  c #41282E",
"`  c #4C2030",
"'  c #4F2435",
"]  c #432830",
"[  c #472831",
"{  c #492831",
"}  c #4C2833",
"|  c #4E2839",
" . c #4F2839",
".. c #502835",
"X. c #582638",
"o. c #65203A",
"O. c #64223B",
"+. c #63223D",
"@. c #60263D",
"#. c #64253E",
"$. c #7E1D44",
"%. c #5B2F43",
"&. c #6E2141",
"*. c #722041",
"=. c #663248",
"-. c #494949",
";. c #4E4E4E",
":. c #595857",
">. c #5D5D5D",
",. c gray37",
"<. c #665C54",
"1. c #645E56",
"2. c #685C54",
"3. c #6A5F57",
"4. c #6E6E6D",
"5. c #797979",
"6. c #7C7B79",
"7. c #802046",
"8. c #833C5B",
"9. c #853C5C",
"0. c #873C5D",
"q. c #8C3D5E",
"w. c #983D62",
"e. c #A13F68",
"r. c #BC3167",
"t. c #BE3068",
"y. c #BF3069",
"u. c #B03D6C",
"i. c #B13D6D",
"p. c #BD3B71",
"a. c #BE3A71",
"s. c #BA3C70",
"d. c #BA3C71",
"f. c #C12F6A",
"g. c #C72F6B",
"h. c #C82F6C",
"j. c #C92F6C",
"k. c #C92F6D",
"l. c #CA2F6D",
"z. c #C3306A",
"x. c #C7306B",
"c. c #C7306C",
"v. c #C8306C",
"b. c #C8316C",
"n. c #C9316D",
"m. c #C9326D",
"M. c #C8336D",
"N. c #CC306E",
"B. c #CD306F",
"V. c #CE306F",
"C. c #C73570",
"Z. c #C53670",
"A. c #C53771",
"S. c #CA3370",
"D. c #CE3070",
"F. c #CF3070",
"G. c #CD3372",
"H. c #C83470",
"J. c #C93471",
"K. c #CB3773",
"L. c #C13971",
"P. c #C43971",
"I. c #C63871",
"U. c #C53972",
"Y. c #C33E75",
"T. c #CB3874",
"R. c #CF3A76",
"E. c #8A4665",
"W. c #904262",
"Q. c #944467",
"!. c #994A67",
"~. c #9E4867",
"^. c #974468",
"/. c #984468",
"(. c #9F446B",
"). c #9B506F",
"_. c #A8426C",
"`. c #A44A71",
"'. c #BD4175",
"]. c #B04E74",
"[. c #AD5174",
"{. c #BF517D",
"}. c #B15E78",
"|. c #C04075",
" X c #C44779",
".X c #C14D7C",
"XX c #C04E7C",
"oX c #C0507D",
"OX c #85807E",
"+X c #D04F83",
"@X c gray54",
"#X c #8E8B8A",
"$X c gray58",
"%X c gray60",
"&X c #9A9A9A",
"*X c #9C9A99",
"=X c #9D9D9D",
"-X c #9F9F9F",
";X c #A0A09F",
":X c #A4A4A4",
">X c #B4A5AA",
",X c #B5ADB0",
"<X c #B2B2B2",
"1X c gray70",
"2X c #B4B3B3",
"3X c #B6B3B2",
"4X c #BDBBBB",
"5X c #C2C1C1",
"6X c #CAC8C7",
"7X c gray81",
"8X c #D3CFD0",
"9X c #E9E9E9",
"0X c gray92",
"qX c None",
/* pixels */
"qXqXqXqXqXqXqXqXqXqXqXF.F.F.F.F.F.F.F.N.qXqXqXqXqXqXqXqXqXqXqXqX",
"qXqXqXqXqXqXqXqXm.h.v.g.F.F.F.F.F.F.F.k.v.v.v.qXqXqXqXqXqXqXqXqX",
"qXqXqXqXqXqXqXqXl.F.F.F.F.F.F.F.F.F.F.F.F.F.F.qXqXqXqXqXqXqXqXqX",
"qXqXqXqXqXqXM.g.F.F.F.F.F.F.F.F.F.F.F.F.F.F.F.g.x.qXqXqXqXqXqXqX",
"qXqXqXqXqXqXh.F.F.F.F.F.F.F.F.F.F.F.F.F.F.F.F.F.F.qXqXqXqXqXqXqX",
"qXqXqXqXqXqXh.F.F.F.F.F.F.F.F.F.F.F.F.F.F.F.F.F.F.qXqXqXqXqXqXqX",
"qXqXqXqXqXqXg.F.F.F.F.F.F.F.F.F.F.F.F.F.F.F.F.F.F.qXqXqXqXqXqXqX",
"qXqXqXqXb.F.F.F.z.F.F.F.F.F.F.F.F.F.F.F.F.F.F.F.F.F.j.qXqXqXqXqX",
"qXqXqXqXh.F.F.F.F.V.F.$.$.$.7.).$.$.$.$.$.F.F.F.F.F.D.qXqXqXqXqX",
"qXqXqXqXv.F.t.F.$.[ : 0     ^ 7X~       X.$.F.F.y.F.B.qXqXqXqXqX",
"qXqXqXqXv.F.F.F.$.          -X5.1X# $     _ O.] $.F.B.qXqXqXqXqX",
"qXqXqXqXv.F.c.F...        a <X= =X;.            } F.D.qXqXqXqXqX",
"qXqXqXqXn.F.r.}.x       C 6.@X  -.2XA         D o.F.l.qXqXqXqXqX",
"qXqXqXqXqXqXh.  S       > 5XG   - 6XF i     w   F.qXqXqXqXqXqXqX",
"qXqXqXqXqXqXqXqXc Y X   4.*X      #X$Xu   Y V qXqXqXqXqXqXqXqXqX",
"qXqXqXqXqXqXqXqX/ 9 { o 9XE       T 0XR   @   qXqXqXqXqXqXqXqXqX",
"qXqXqXqXqXqXqX1 w.F.` OX4X:.>.>.>.,.;X3X) *.u.v qXqXqXqXqXqXqXqX",
"qXqXqXqXqXqXe ; +.F.%.,X8X:X&X%X%X%X%X>Xl F.F.M f qXqXqXqXqXqXqX",
"qXqXqXqXqX  Z   @.F.F.F.k & % % % % q &.F.F.f.y Q   qXqXqXqXqXqX",
"qXqXqXqXr z K   #.Z.F.F.=.|  . . .| | F.F.H.P.o p U m qXqXqXqXqX",
"qXqXqX  z       K 9 Z.F.F.F.F.F.F.F.F.F.F.h H X   W 2.  qXqXqXqX",
"qXqXqX  z       K   C.F.F.F.F.F.F.F.F.F.F.j L     o <.  qXqXqXqX",
"qXqXqX  b       J   S.F.F.F.F.F.F.F.F.F.F.9 B . O s 3.  qXqXqXqX",
"qXqXqXqXt P I U ' (.q.0.8.8.8.8.8.8.8.9.9.e.W.n ! 1.( qXqXqXqXqX",
"qXqXqXqXqX      ^.F.N                     F.J.      qXqXqXqXqXqX",
"qXqXqXqXqXqXg   Q.F.A.d.p.p.L.L.L.a.p.p.a.F.a.  < qXqXqXqXqXqXqX",
"qXqXqXqXqXqXqX  Q.F.F.F.F.F.F.F.F.F.F.F.F.F.p.  4 qXqXqXqXqXqXqX",
"qXqXqXqXqXqXqX  E.Y.'.'.|.`.* * * /.F.F.F.F.s.  3 qXqXqXqXqXqXqX",
"qXqXqXqXqXqXqX  _.F.F.F.F.I.      i.T.G.G.K.U.  3 qXqXqXqXqXqXqX",
"qXqXqXqXqXqXqX   XF.F.F.F.+X      {.F.F.F.F.R.  , qXqXqXqXqXqXqX",
"qXqXqXqXqXqXqX2 ~..XXXXX.X].8 7 6 !.oX{.{.oX[.5 qXqXqXqXqXqXqXqX",
"qXqXqXqXqXqXqXqXd         + qXqXqXd         + qXqXqXqXqXqXqXqXqX"
};
