/* XPM */
static char *result[] = {
/* columns rows colors chars-per-pixel */
"32 32 165 2 ",
"   c black",
".  c #010000",
"X  c #030000",
"o  c #020100",
"O  c #020302",
"+  c #070100",
"@  c #070201",
"#  c #070301",
"$  c #090000",
"%  c #080100",
"&  c #080302",
"*  c #090402",
"=  c #0D0401",
"-  c #0E0401",
";  c #0E0402",
":  c #0E0502",
">  c #0E0603",
",  c #090908",
"<  c #0A0908",
"1  c #090A08",
"2  c #0A0A09",
"3  c #0A0B0C",
"4  c #130400",
"5  c #100603",
"6  c #110603",
"7  c #110906",
"8  c #120A07",
"9  c #140804",
"0  c #150804",
"q  c #140904",
"w  c #130A08",
"e  c #190F0B",
"r  c #1B0F0B",
"t  c #1E0E09",
"y  c #181714",
"u  c #171817",
"i  c #191918",
"p  c #1E1D1A",
"a  c #1F1E1B",
"s  c #210B07",
"d  c #27120B",
"f  c #21120D",
"g  c #250A15",
"h  c #2A0F1A",
"j  c #251612",
"k  c #2B1511",
"l  c #2D1913",
"z  c #2E1813",
"x  c #2E1A14",
"c  c #281E19",
"v  c #301914",
"b  c #3A0F20",
"n  c #3E0E21",
"m  c gray13",
"M  c #212221",
"N  c #292622",
"B  c #2E2924",
"V  c #2D2A26",
"C  c #292928",
"Z  c #322E29",
"A  c #322E2A",
"S  c #342F2B",
"D  c #35332E",
"F  c #491128",
"G  c #4B1229",
"H  c #4B122A",
"J  c #4C1229",
"K  c #4D132A",
"L  c #4A152A",
"P  c #4C182D",
"I  c #55132B",
"U  c #4F1B30",
"Y  c #481F31",
"T  c #521C31",
"R  c #501D33",
"E  c #541D33",
"W  c #591933",
"Q  c #5A1933",
"!  c #5B1B34",
"~  c #5C1B35",
"^  c #611E38",
"/  c #512638",
"(  c #592038",
")  c #403631",
"_  c #403732",
"`  c #513A3E",
"'  c #67253D",
"]  c #64253F",
"[  c #4A433D",
"{  c #4B433D",
"}  c #4D433C",
"|  c #7F1E45",
" . c #5F2E43",
".. c #7B2141",
"X. c #7D2C4D",
"o. c #653147",
"O. c #80354F",
"+. c #862B50",
"@. c #8F2852",
"#. c #8C2D55",
"$. c #942D57",
"%. c #992A57",
"&. c #9B2B57",
"*. c #992C57",
"=. c #9B2E59",
"-. c #9E2D5A",
";. c #9D315A",
":. c #B0295F",
">. c #923F61",
",. c #BB2F67",
"<. c #BD2F67",
"1. c #BF2F66",
"2. c #BE2F67",
"3. c #BF2F69",
"4. c #AD3E6C",
"5. c #B33164",
"6. c #B73065",
"7. c #B53166",
"8. c #B93066",
"9. c #B93067",
"0. c #BB3067",
"q. c #BB3068",
"w. c #BD3068",
"e. c #BF3069",
"r. c #C02F67",
"t. c #C12F69",
"y. c #C32E69",
"u. c #C12F6A",
"i. c #C32F6A",
"p. c #C42E69",
"a. c #C42F69",
"s. c #C42E6A",
"d. c #C52F6A",
"f. c #C62F6B",
"g. c #C72F6B",
"h. c #C62F6C",
"j. c #C82F6C",
"k. c #CA2F6D",
"l. c #CB2F6E",
"z. c #C13068",
"x. c #C03168",
"c. c #C33169",
"v. c #C4316A",
"b. c #C6306A",
"n. c #C7306B",
"m. c #C7316B",
"M. c #C3356E",
"N. c #C1376F",
"B. c #CC306F",
"V. c #CD306F",
"C. c #C73570",
"Z. c #C53670",
"A. c #CA3370",
"S. c #CD3170",
"D. c #CE3070",
"F. c #CF3070",
"G. c #CC3270",
"H. c #CE3271",
"J. c #C83470",
"K. c #CA3672",
"L. c #C33972",
"P. c #A6436D",
"I. c #B2406F",
"U. c #B54171",
"Y. c None",
/* pixels */
"Y.Y.Y.Y.Y.Y.Y.Y.Y.Y.Y.V.F.F.F.F.F.F.F.D.Y.Y.Y.Y.Y.Y.Y.Y.Y.Y.Y.Y.",
"Y.Y.Y.Y.Y.Y.Y.Y.n.n.b.F.F.F.F.F.F.F.F.g.b.n.m.Y.Y.Y.Y.Y.Y.Y.Y.Y.",
"Y.Y.Y.Y.Y.Y.Y.d.F.F.F.F.F.F.F.F.F.F.F.F.F.F.F.Y.Y.Y.Y.Y.Y.Y.Y.Y.",
"Y.Y.Y.Y.Y.Y.a.V.F.F.F.F.F.F.F.F.F.F.F.F.F.F.F.d.v.Y.Y.Y.Y.Y.Y.Y.",
"Y.Y.Y.Y.Y.y.F.F.F.F.F.F.F.F.F.F.F.F.F.F.F.F.F.F.F.Y.Y.Y.Y.Y.Y.Y.",
"Y.Y.Y.Y.Y.f.F.F.F.F.F.F.F.F.F.F.F.F.F.F.F.F.F.F.F.Y.Y.Y.Y.Y.Y.Y.",
"Y.Y.Y.Y.Y.s.F.F.F.F.F.F.F.F.F.F.F.F.F.F.F.F.F.F.F.Y.Y.Y.Y.Y.Y.Y.",
"Y.Y.Y.c.1.k.F.F.F.F.F.F.F.F.F.F.F.F.F.F.F.F.F.F.F.r.x.Y.Y.Y.Y.Y.",
"Y.Y.Y.F.F.F.F.F.F.F.F.F.F.F.F.F.F.F.F.F.F.F.F.F.F.F.F.Y.Y.Y.Y.Y.",
"Y.Y.Y.F.F.F.F.F.F.F.F.F.F.F.F.F.F.F.F.F.F.F.F.F.F.F.F.Y.Y.Y.Y.Y.",
"Y.Y.Y.F.F.F.F.F.F.F.F.F.F.F.F.F.F.F.F.F.F.F.F.F.F.F.F.Y.Y.Y.Y.Y.",
"Y.Y.Y.F.F.F.F.F.F.F.F.F.F.F.F.F.F.F.F.F.F.F.F.F.F.F.F.Y.Y.Y.Y.Y.",
"Y.Y.Y.F.F.F.F.F.F.F.F.F.F.F.F.F.F.F.F.F.F.F.F.F.F.F.F.Y.Y.Y.Y.Y.",
"Y.Y.Y.j.V.F.F.8.7.F.F.F.F.F.F.F.F.F.F.F.F.9.6.F.F.q.<.y.Y.Y.Y.Y.",
"Y.Y.Y.Y.Y.p.F.5.F.e.F.F.F.F.F.F.F.F.F.F.F.F.B.F.t.F.A   X Y.Y.Y.",
"Y.Y.Y.Y.Y.z.l.2.D i.0.6.6.F.F.F.F.5.6.8.h.8.j.0.t.O S   * Y.Y.Y.",
"Y.Y.Y.Y.Y.Y.Y.s   3.F.F.F.F.F.F.F.F.F.F.F.F.B.O O O Z   # Y.Y.Y.",
"Y.Y.Y.Y.Y.Y.f >.U.=.w.F.F.h.e.e.u.F.F.,.*.Z.%.' B V c Y.Y.Y.Y.Y.",
"Y.Y.Y.Y.Y.k   P.F.o.F.i.F.F.F.F.F.F.F.:.R F.F.n     4 Y.Y.Y.Y.Y.",
"Y.Y.Y.Y.Y.z   Y  .4.L.-.i.i.i.i.i.i.&.J.F.F.G.n 5 Y.Y.Y.Y.Y.Y.Y.",
"Y.Y.Y.Y.Y.v o     I.F.#.n n n n n n U F.F.F.A.  0 Y.Y.Y.Y.Y.Y.Y.",
"Y.Y.Y.j w } p N a O./ N.F.F.F.F.F.F.F.F.F.] (   q Y.Y.Y.Y.Y.Y.Y.",
"Y.Y.Y.7   { O O O )   C.F.F.F.F.F.F.F.F.S.| J F q Y.Y.Y.Y.Y.Y.Y.",
"Y.Y.Y.8   [ O O O _   P E T T T T T T E $.F.F.F 9 Y.Y.Y.Y.Y.Y.Y.",
"Y.Y.Y.r @ } 1 y ` ;.^ ~ ! ! ! ! ! ! ! W X.K.F.F 9 Y.Y.Y.Y.Y.Y.Y.",
"Y.Y.Y.Y.Y.l 2 < Q F.F.F.F.F.F.F.F.F.F.F.F.H.F.F 9 Y.Y.Y.Y.Y.Y.Y.",
"Y.Y.Y.Y.Y.Y.+ % I M.F.F.F.F.F.F.F.F.F.F.F.H.F.F 9 Y.Y.Y.Y.Y.Y.Y.",
"Y.Y.Y.Y.Y.Y.Y.Y.Y...H G G G G K ~ F.F.F.F.F.F.F 9 Y.Y.Y.Y.Y.Y.Y.",
"Y.Y.Y.Y.Y.Y.Y.Y.Y.x = : : ; - . L @.+.+.+.h b g 9 Y.Y.Y.Y.Y.Y.Y.",
"Y.Y.Y.Y.Y.Y.Y.Y.Y.Y.Y.Y.Y.Y.Y.& 3 O O O O , O g 6 Y.Y.Y.Y.Y.Y.Y.",
"Y.Y.Y.Y.Y.Y.Y.Y.Y.Y.Y.Y.Y.Y.Y.t e C M m m u i > d Y.Y.Y.Y.Y.Y.Y.",
"Y.Y.Y.Y.Y.Y.Y.Y.Y.Y.Y.Y.Y.Y.Y.Y.Y..         $ Y.Y.Y.Y.Y.Y.Y.Y.Y."
};
