/* XPM */
static char *result[] = {
/* columns rows colors chars-per-pixel */
"32 32 211 2 ",
"   c black",
".  c #010000",
"X  c #010101",
"o  c #020100",
"O  c #030202",
"+  c #040100",
"@  c #040303",
"#  c #040403",
"$  c #040404",
"%  c #050404",
"&  c #050504",
"*  c #060505",
"=  c #060605",
"-  c #080402",
";  c #0A0402",
":  c #0B0503",
">  c #0E0401",
",  c #0F0401",
"<  c #0F0805",
"1  c #090808",
"2  c #090909",
"3  c #0C0908",
"4  c #0C0809",
"5  c #0E0B0B",
"6  c #0D0C0B",
"7  c #0F0D0B",
"8  c #120602",
"9  c #150904",
"0  c #140905",
"q  c #160904",
"w  c #180A05",
"e  c #190A05",
"r  c #1B0B07",
"t  c #140B08",
"y  c #110C0B",
"u  c #110D0B",
"i  c #110B0C",
"p  c #120A0D",
"a  c #100E0C",
"s  c #11100E",
"d  c #13110F",
"f  c #1E100C",
"g  c #1D0710",
"h  c #111111",
"j  c #141312",
"k  c #141313",
"l  c #171312",
"z  c gray8",
"x  c #151414",
"c  c #161616",
"v  c #1C1013",
"b  c #181513",
"n  c #191614",
"m  c #1A1614",
"M  c #1A1715",
"N  c #1F1715",
"B  c #191A1A",
"V  c #1B1B1B",
"C  c #1D1D1D",
"Z  c #1F1E1E",
"A  c #210F09",
"S  c #220E08",
"D  c #24130F",
"F  c #210812",
"G  c #210912",
"H  c #271510",
"J  c #201115",
"K  c #2A1611",
"L  c #2A1712",
"P  c #261915",
"I  c #2E1812",
"U  c #261018",
"Y  c #291019",
"T  c #2E121D",
"R  c #201C19",
"E  c #211D1B",
"W  c #201F1F",
"Q  c #2D1E23",
"!  c #351521",
"~  c #361724",
"^  c #3D1524",
"/  c #3F1526",
"(  c #361A26",
")  c #381824",
"_  c #3B1927",
"`  c #202020",
"'  c #212120",
"]  c #242320",
"[  c #262420",
"{  c gray15",
"}  c #272626",
"|  c #2C2521",
" . c #292825",
".. c #2D2925",
"X. c #2A2A2A",
"o. c #322B27",
"O. c #342F2B",
"+. c #36302C",
"@. c #37302C",
"#. c #313131",
"$. c #333130",
"%. c #451628",
"&. c #4D122A",
"*. c #48162A",
"=. c #4A162A",
"-. c #4E162C",
";. c #54172F",
":. c #591530",
">. c #5E1734",
",. c #5D1833",
"<. c #5E1835",
"1. c #5F1D38",
"2. c #611936",
"3. c #621A37",
"4. c #611F39",
"5. c #651C3A",
"6. c #661C3A",
"7. c #681D3B",
"8. c #6E1A3C",
"9. c #6F1A3C",
"0. c #6A1F3D",
"q. c #711B3D",
"w. c #721B3E",
"e. c #41212F",
"r. c #422330",
"t. c #5F263D",
"y. c #5A2A3E",
"u. c #4D3137",
"i. c #503138",
"p. c #63213C",
"a. c #6D203F",
"s. c #6C253E",
"d. c #7B1F40",
"f. c #414140",
"g. c #424241",
"h. c #444444",
"j. c #464545",
"k. c #4B4A4A",
"l. c #4C4C4C",
"z. c gray32",
"x. c #585858",
"c. c gray35",
"v. c #656565",
"b. c #6C6C6C",
"n. c gray48",
"m. c #83274D",
"M. c #81284C",
"N. c #81284D",
"B. c #88284F",
"V. c #8F2550",
"C. c #8D2650",
"Z. c #8A2D52",
"A. c #AB3E6C",
"S. c #B73265",
"D. c #B13F6F",
"F. c #B63C6F",
"G. c #B43E6F",
"H. c #B93B6F",
"J. c #BC3A6F",
"K. c #B63E70",
"L. c #BC3C70",
"P. c #C52F6A",
"I. c #C82F6C",
"U. c #C92F6D",
"Y. c #CA2F6D",
"T. c #CB2F6E",
"R. c #CC2F6E",
"E. c #C3306B",
"W. c #C5336B",
"Q. c #C6346F",
"!. c #C8306B",
"~. c #C8306C",
"^. c #C9306C",
"/. c #C8306D",
"(. c #C9316D",
"). c #CA306D",
"_. c #CB316D",
"`. c #C8326D",
"'. c #CA306E",
"]. c #CA316E",
"[. c #CC306E",
"{. c #CD306F",
"}. c #CE306F",
"|. c #C63570",
" X c #CA3370",
".X c #CC3170",
"XX c #CF3070",
"oX c #C93571",
"OX c #C13971",
"+X c #A74266",
"@X c #A74467",
"#X c #848484",
"$X c gray55",
"%X c #9A9999",
"&X c #9B9B9B",
"*X c #A0A0A0",
"=X c #AEAEAE",
"-X c #B1B1B1",
";X c gray70",
":X c #B4B4B4",
">X c #B6B6B6",
",X c #B9B9B9",
"<X c gray73",
"1X c gray76",
"2X c #C3C3C3",
"3X c #C5C5C5",
"4X c #C8C8C8",
"5X c #CBCBCB",
"6X c gray85",
"7X c #EFEFEF",
"8X c None",
/* pixels */
"8X8X8X8X8X8X8X8X8X8X8X8XXXXXXXXXXXXXXXXX8X8X8X8X8X8X8X8X8X8X8X8X",
"8X8X8X8X8X8X8X8X].).).).XXXXXXXXXXXXXXXX).).)._.8X8X8X8X8X8X8X8X",
"8X8X8X8X8X8X8X8X[.XXXXXXXXXXXXXXXXXXXXXXXXXXXXXX8X8X8X8X8X8X8X8X",
"8X8X8X8X8X8X`.!.XXXXXXXXXXXXXXXXXXXXXXXXXXXXXXXX^.(.8X8X8X8X8X8X",
"8X8X8X8X8X8XU.XXXXXXXXXXXXXXXXXXXXXXXXXXXXXXXXXXXXXX8X8X8X8X8X8X",
"8X8X8X8X8X8XR.XXXXXXXXXXXXXXXXXXXXXXXXXXXXXXXXXXXXXX8X8X8X8X8X8X",
"8X8X8X8X8X8XY.XXXXXXXXXXXXXXXXXXXXXXXXXXXXXXXXXXXXXX8X8X8X8X8X8X",
"8X8X8X8XW.P.XXXX{.XXXXXXXXXXXXXXXXXXXXXXXXXXXXXXXXXXP.~.8X8X8X8X",
"8X8X8X8XY.XXXXXXXXXXXXXXXXXXXXXXXXXXXXXXXXXXXXXXXXXXXXXX8X8X8X8X",
"8X8X8X8XI.XX).XXXXXX8.;.*.^ -.%./ %.=.,.w.XXXXXXXX/.XXXX8X8X8X8X",
"8X8X8X8XU.XXXXXXXX*.          h.l.      v q.XXXXXX+XXXXX8X8X8X8X",
"8X8X8X8XY.XXXXXXXX@         X 3X,Xc       4 %.w.XX+XXXXX8X8X8X8X",
"8X8X8X8XU.XXXXXX-.          { 5X#Xn.          ! XX@XXXXX8X8X8X8X",
"8X8X8X8XI.XX).'.J           $Xb.V 4Xh O       4 E.S.}.[.8X8X8X8X",
"8X8X8X8XT.XXXXXXi         #.=Xh   %Xc.        X     8X8X8X8X8X8X",
"8X8X8XK s.u.i.u.Y 1       <Xz.    g.4X$     1 &     8X8X8X8X8X8X",
"8X8X<   +.      5       v.&X$     * :Xx.  %         8X8X8X8X8X8X",
"8X8Xt   +.  @...t.L.U 2 7X`         f.;Xz =   #  .| . 8X8X8X8X8X",
"8X8Xt   +.  o.  K.XXp h.-X&X*X>X2X1X2X6XX.    7   O.  + 8X8X8X8X",
"8X8X8X8XP ] a   G.XXoXOXQ k.j.} k x x j d s 6 R [ m   - 8X8X8X8X",
"8X8X8X8XI       D.XXXXXXM.&.&.&.&.&.  l       b     o : 8X8X8X8X",
"8X8X8X8X8X8Xf   ( r.e.N.|.XXXXXXXX X&.M       n   9 8X8X8X8X8X8X",
"8X8X8X8X8X8XL   F G G 9.XXXXXXXXXXXX&.b       E   e 8X8X8X8X8X8X",
"8X8X8X8X8X8XH   A.XXXXXXZ.4.p.p.4.1.&.. y y u 3   w 8X8X8X8X8X8X",
"8X8X8X8X8X8XH   J.XXXXXXy.T g :.6.7.a.0.5.5.5.3.  w 8X8X8X8X8X8X",
"8X8X8X8X8X8XH   H.XXXXXXXXXX) 2.XXXXXXXXXXXXXX.X  q 8X8X8X8X8X8X",
"8X8X8X8X8X8XH   H.XXXXXXXXXX_ 2.XXXXXXXXXXXXXXQ.; A 8X8X8X8X8X8X",
"8X8X8X8X8X8XH   F.XXXXXXXXXX_ :.>.<.<.<.<.<.<.d.8X8X8X8X8X8X8X8X",
"8X8X8X8X8X8XH   m.B.C.C.C.V.~   > , > > > > > S 8X8X8X8X8X8X8X8X",
"8X8X8X8X8X8XD   '           B   8X8X8X8X8X8X8X8X8X8X8X8X8X8X8X8X",
"8X8X8X8X8X8X8X8 $.C Z Z C W N 0 8X8X8X8X8X8X8X8X8X8X8X8X8X8X8X8X",
"8X8X8X8X8X8X8X8Xr           8X8X8X8X8X8X8X8X8X8X8X8X8X8X8X8X8X8X"
};
