/* XPM */
static char *result[] = {
/* columns rows colors chars-per-pixel */
"32 32 110 2 ",
"   c #2D0000",
".  c #330000",
"X  c #440000",
"o  c #490000",
"O  c #5B0000",
"+  c #640000",
"@  c #6B0000",
"#  c #770000",
"$  c #7C0000",
"%  c #6E180E",
"&  c #532011",
"*  c #542B16",
"=  c #5F2815",
"-  c #552E1B",
";  c #692C17",
":  c #712D17",
">  c #7B2917",
",  c #7F321E",
"<  c #733C24",
"1  c #7C3D24",
"2  c #664127",
"3  c #754024",
"4  c #7D4126",
"5  c #76462A",
"6  c #7B4428",
"7  c #744B2C",
"8  c #7B4D2C",
"9  c #76532F",
"0  c #7C532E",
"q  c #675333",
"w  c #6A5533",
"e  c #6E5934",
"r  c #7C5631",
"t  c #745D36",
"y  c #7C5C34",
"u  c #776036",
"i  c #796137",
"p  c #7A6138",
"a  c #840000",
"s  c #8B0000",
"d  c #910000",
"f  c #9D0000",
"g  c #88190F",
"h  c #9E1209",
"j  c #9F180E",
"k  c #9C1E12",
"l  c #A50000",
"z  c #AC0000",
"x  c #A00D07",
"c  c #AF0C07",
"v  c #AD0E08",
"b  c #B60000",
"n  c #BA0000",
"m  c #B20A06",
"M  c #A5150C",
"N  c #AB130B",
"B  c #A4190E",
"V  c #A9180E",
"C  c #B21009",
"Z  c #A51D10",
"A  c #872714",
"S  c #8D2F1C",
"D  c #942516",
"F  c #9A2315",
"G  c #9C2817",
"H  c #932B1A",
"J  c #9B2C19",
"K  c #89341E",
"L  c #95341E",
"P  c #99321C",
"I  c #A32314",
"U  c #AB2414",
"Y  c #A42915",
"T  c #A02A19",
"R  c #AC2F19",
"E  c #A3321A",
"W  c #AB321A",
"Q  c #AA3D1F",
"!  c #863620",
"~  c #833B23",
"^  c #8D3C23",
"/  c #913A21",
"(  c #9E3E20",
")  c #C30000",
"_  c #CC0000",
"`  c #D30000",
"'  c #DB0100",
"]  c #CA1009",
"[  c #864226",
"{  c #8C4326",
"}  c #844729",
"|  c #884729",
" . c #854C2C",
".. c #89492A",
"X. c #954525",
"o. c #9A4524",
"O. c #9A4825",
"+. c #974B28",
"@. c #83502E",
"#. c #865A31",
"$. c #8F5F31",
"%. c #905E31",
"&. c #806537",
"*. c #8C6434",
"=. c #836937",
"-. c #8A6836",
";. c #826738",
":. c #846938",
">. c #896D38",
",. c #8E7039",
/* pixels */
"b b n b n n n n n b b b n n b s $ a l n n b b b b b b b b n n n ",
"` _ n b b b n n b n b n n n b $ O @ f n b n ) ` ` ) b n n b b n ",
"n n b b b b b b n n n n b b n n b b n n n b b n b b b n n b b n ",
"  o l { ..c b b n ` ` L ..B n n b b n n n n a .   @ b n b b b n ",
"s s b r i m b n b $ # ..i Z b n b b b b n n l s a f n n b n n n ",
") n b 8 e 1 ~ m b $ # ~ e 6 ! B b b n b b n n n ) V ^ J n n n b ",
"b n b w w w w M n ) b 4 w w w F b b b b n n n b n I u | b n n n ",
"b b b k F 7 w M b n b B F 6 w 6 K B b Z / / / I b I i { b b b n ",
"b b b b n 5 w M n b n b ` ^ w w w H b L i i y { b Z i [ n b n b ",
"_ ` n b b 8 t M b b b n f g D 6 w D n P t ..J W Q +.t { n n b n ",
"n n b b b @.y v b b n n @ O n K w D b J i P n Y >.;.i | n n b n ",
". o l n b 8 t / P c n b z b b K w [ P ..i L a * >.0 P I b b b n ",
"s s b b b 7 w t y Z n n n b b ! w e i i i L l A >.{ b n b b b b ",
"J J J b b H K r y B b n b b n K w t i  .L P E O.>.O.n m E E E Y ",
"y y t m b n b ..i B b n n b b , q t i J n R >.>.>.O.n U >.>.>.$.",
"^ &.p P G m b  .i Z n b n B D < q t t H b W >.:.;.X.n Z i #.o.E ",
"n *.>.i y N b @.u V b n b ~ w w w w w S z : >.;.u ^ b B w 4 b n ",
"b *.>.&.p ] ' ..i V b n n ~ w 6 ~ ! ! H k 1 ,.;.t } k K w ~ ' _ ",
"b >.:.>.,.h f @.t V b n b ! w k b b b H q u ,.p q w w w w 5 f z ",
"b o.+.-.>.; & 9 i V b M B 4 w F n C V ~ w u ;.u q 7 4 ~ < - o $ ",
"b b b *.,.>.,.i t V b 1 w w w U ' E i e w w q q w K n n z l l b ",
"b b n #.;.p p i i Z n ~ w 7 4 > % 5 i 8 6 6 [ 7 e ~ b m B B B N ",
"_ _ n 7 w w q t y V b ~ w B b < i i i J n b n U i / b j w w w 7 ",
"` _ b 1 6 w w  . .U V 6 e H N { y i i L b b ) U p ..M F w w 6 K ",
"X O l n n 5 e v b ..p i i i i i i i i L n n a ; >.&.w w w 4 b n ",
"a s z n n 5 w k v 7 y r  .@.@.r i r @.G n m h K ,.#.5 7 7 ! b n ",
"n n n n n 7 w w w w w B b n b / i G b b n E >.>.>.+.n n b n b n ",
"n n n n n 4 7 7 7 w w G v v c ^ i L c m c P &.-.*.P n n b n n n ",
"b b b b b b b n b | i i y 9 q t i i y i i t w ! b n b b n n b n ",
"b b b b b b b b b | t t i e w e i t i y r r 7 K b n b b n b b n ",
"` ` n n b n n b b 6 w w w w w w w w q K b m ) ` ` ) n b n b b b ",
"l l b n b b b b b ~ 7 w q w w w 9 w 9 D n n z l l z n b b n b b "
};
