/* XPM */
static char *result[] = {
/* columns rows colors chars-per-pixel */
"32 32 30 1 ",
"  c #BE9654",
". c #C19655",
"X c #C39857",
"o c #C59C5B",
"O c #C99E5E",
"+ c #C7A05F",
"@ c #C9A15F",
"# c #C69F60",
"$ c #CA9F60",
"% c #C7A060",
"& c #CCA363",
"* c #CFA867",
"= c #CFA768",
"- c #CFA869",
"; c #D1A666",
": c #D1A967",
"> c #D1A769",
", c #D4AB6C",
"< c #D8AD6E",
"1 c #D6AE71",
"2 c #D9AF71",
"3 c #D7B070",
"4 c #DBB274",
"5 c #DDB57A",
"6 c #DFB87B",
"7 c #E0B577",
"8 c #E1B67A",
"9 c #E2BA7D",
"0 c #E5BC81",
"q c #E9C286",
/* pixels */
"&4542OXO@;>>3>&&1,&=31,322;O<7;;",
"14544&X;>>>>:>$&>,4111,,<3;&@@;<",
"35554;X;,>>>,&&&--55----,3;&Oo,<",
"-11,:OOO&&OO&&&&#&25005444:&;;<<",
"&,1=&%o$OOooo#=&##400q0477;;;:,2",
"3,,&&&=&$$OO&&&===1455544<,:;;,>",
"0-==$=,&$OO&,=&>,,111150<<34-&-&",
"4-&$$=-&$$O&,=&$&&-1111,<,,4>;>>",
"3&+oX&&&O&O&<;OO+@&*>>&@;,,<;;;;",
"-%ooo*->;;@;;&$;*&::3,;&;;<<<,,;",
"oooo+-,43<;;$$$;33,344*&&&,<77<<",
"@oo+&:,:,<<;;&$&,,>:43&&;;>,<7<<",
",Oo&O>3:&394,&o$:&-*>:&&,,*&,<2<",
">$#&&:::>,43>&#$*;,,>>&&,3&&;<<<",
"&&&,,&@:,>&%oo#$&=65&&,,33&@&&,,",
"&==,3:&:,:&%OO$&-,65&&>-13&@&;:;",
"-45001&&@@XOo&,45555->&&&$&*@@&@",
"-550q1&$@++++&4,54541:&&&&&*&@%@",
"1341>=&,;;;,4-@&&=1144-&483,++@&",
"145:*&$;:;:,4>@O#&2354**481,@+&&",
"155=oo.#@;;:<:,;$&2499++=-=&@@:,",
"350&oo.#@;,,;<,,$&2498&+&&&=@&>,",
"144-&->,<$oOoO,;;&<2,,&+-,$#,1,>",
"444,-11,2;.X.O;;&;,,,,&+-,##151,",
"1-1-=&O&;;OOO;;&o+:*oo:,11%+:<,:",
"1-->;OoOO&;OO;;&.+:& .,,3,&+*:,:",
"###-,,>@o&>;;<7<&&@@&:,3&#&*;;;&",
"## -<<<&.$,,;<7<*&o+3,3,oo&-OOOO",
"ooo&:,<>;;;,134>++&*,343&o&&OO;:",
"@  @;,,<2>&,4,>;..:,,,43&+ooOX,2",
"&&&->,3,<,,14,$OoO,344,,**&$&;,<",
"=,,,2,,<,<114&.oO&;,87&&,,>$,<>;"
};
