/* XPM */
static char *result[] = {
/* columns rows colors chars-per-pixel */
"32 32 20 1 ",
"  c #C80000",
". c #D50000",
"X c #D60000",
"o c #D70000",
"O c #D80000",
"+ c #D90000",
"@ c #DA0000",
"# c #DB0000",
"$ c #DC0000",
"% c #DD0000",
"& c #DE0000",
"* c #DF0000",
"= c #E00000",
"- c #E10000",
"; c #E20000",
": c #E30000",
"> c #E40000",
", c #E50000",
"< c #E60000",
"1 c #E70000",
/* pixels */
":;;,&O-@#,%;=*;>#o<,@@,&*;:=+#1:",
"=O%<;=:--::::;:>;=>>==::,*+&-=;$",
"--->::::::>::::::::::::>>:-;>:*@",
";<:::::::::::::::::::::::>>::::&",
":,:::::::::::::::::::::::::::>>&",
"#=>::::::::::::::::::::::::::>>;",
"@%>:::::::::::::::::::::::::::;:",
",:::::::::::::::::::::::::::::&+",
":>::::::::::::::::::::::::::::=%",
";,::::::::::::::::::::::::::::><",
"@::::::::::::::::::::::::::::>:#",
"&o%,:::::::::::::::::::::::::::-",
"::;:::::::::::::::::::::::::::>>",
"=>::::::::::::::::::::::::::>:*O",
"X&>:::::::::::::::::::::::::::-$",
"*=::::::::::::::::::::::::::::>:",
",>::::::::::::::::::::::::::>*+;",
",,::::::::::::::::::::::::::>=+$",
"&;:::::::::::::::::::::::::::>,%",
".&>:::::::::::::::::::::::::::;&",
"->::::::::::::::::::::::::::>:&o",
":<::::::::::::::::::::::::::::>:",
":%=>::::::::::::::::::::::::::>;",
"#@*,:::::::::::::::::::::::::::>",
"X>,::::::::::::::::::::::::::::,",
"X=;>::::::::::::::::::::::::::-=",
"=#*>::::::::::::::::::::::::>>*@",
"=;;::::::::::::::::::::::::::,,&",
"%1<:::::::::>>:::>>:::::::::>-&:",
"-;&->::>>::,*%->;&&>;:>>::::>&O:",
"+%$%;<,:;::>%%===&$,%>:;:>>,,>--",
" X-OO;*#&,,@&-$#*;=#o<-$:>=&*-;%"
};
