/* XPM */
static char *result[] = {
/* columns rows colors chars-per-pixel */
"32 32 31 1 ",
"  c #C29756",
". c #C49957",
"X c #C69C5B",
"o c #C99E5E",
"O c #C7A05F",
"+ c #CAA15F",
"@ c #C69F60",
"# c #CA9F60",
"$ c #C7A060",
"% c #CCA363",
"& c #CFA967",
"* c #CFA768",
"= c #CFA86A",
"- c #D1A666",
"; c #D1A967",
": c #D1A769",
"> c #D3AB6C",
", c #D9AD6E",
"< c #D6AE71",
"1 c #D9AF71",
"2 c #D7B070",
"3 c #DBB275",
"4 c #DDB57A",
"5 c #DFB87B",
"6 c #E0B577",
"7 c #E2BA7D",
"8 c #E5BC81",
"9 c #E9C185",
"0 c #EAC48C",
"q c #F5DFBE",
"w c #F5F3EC",
/* pixels */
"%3421o.o+-::>>#-<>**22,,23%o,1,-",
"<3433%.-::::>:#-::3<><>>,,--o--,",
"24443-.->>::>%%%*>43=>=>>,;+oX;,",
"=<<>;oo#%#oo$%%%@%34884333;%-->,",
"%>1*%$X#oX..X@:%X@34094466-+-:>1",
"2>>*%%*%-oo%%%*%**3244443,,>;->>",
"7>:%%:>%##o%>*%:>><<<<44,,31=%*%",
"3*$@#**%##o%>%#-%%=<<<><>,>1>%::",
"2$$XX$%$%+o->-ooOO%%::%%;:>,:---",
"=$OXX&=:--o---#%&&;;>>-%->,,,,--",
"X.XXO;2,,,--o##-,22,44%%%$,166,,",
"OoXO%;;>>,,--%#%2>;>,>%%--::,61,",
">oX$%;2;%273;:X#&&&%;-%%>>&%>,6,",
":#$%-;;;:<4>:%@#&%>>;;%%><%%:>,,",
"%%%:>%+;>:%$Xo@#%=74%%>:23%O%-->",
"%:*>,&%;>;%$Xo#%::54%-:=<2%+%%;-",
"=3589>%%+XXXX&125444::%$-%%%%O%+",
"=4489<%%++OoO%>24343>:%%#%&%++%+",
"<23>=%%:-;->2>O$%*<224&:66>>+O+%",
"<34>=%#*-,->3>OO@%<244&%372>+O+%",
"<44*XX @o-->,:>:#%1377OO*==%+O;>",
"244%XX @+%,;-,>>#%1377%O%%%%+%:>",
"<34=%=::>%XXXo;--->>>>%O=>%@>3>>",
"333<=><11-   o;-%->,>>O$=<@X<4<:",
"<=<=*$#%-%+++%--XO;;XX;:><$O:>>>",
"08998099999999999999999999999999",
"qqqqqqqqqqqqqqqqqqqqqqqqqqqqqqqq",
"wwwwwwwwwwwwwwwwwwwwwwwwwwwwwwww",
"wwwwwwwwwwwwwwwwwwwwwwwwwwwwwwww",
"wwwwwwwwwwwwwwwwwwwwwwwwwwwwwwww",
"qqqqqqqqqqqqqqqqqqqqqqqqqqqqqqqq",
"00000000000000000000000000000000"
};
