/* XPM */
static char *result[] = {
/* columns rows colors chars-per-pixel */
"32 32 71 1 ",
"  c #675333",
". c #6A5633",
"X c #6E5934",
"o c #745D36",
"O c #785F37",
"+ c #745E38",
"@ c #776036",
"# c #796137",
"$ c #77613B",
"% c #7B633B",
"& c #806637",
"* c #836937",
"= c #81673A",
"- c #846A3D",
"; c #896D38",
": c #8F713B",
"> c #91743E",
", c #846B41",
"< c #896E42",
"1 c #8D7143",
"2 c #927546",
"3 c #977847",
"4 c #9C7C46",
"5 c #92764A",
"6 c #96794A",
"7 c #9C7D4B",
"8 c #A07F4C",
"9 c #9E804D",
"0 c #A18046",
"q c #A3834D",
"w c #A9864E",
"e c #B38C4F",
"r c #A58552",
"t c #A98750",
"y c #AB8A53",
"u c #AE8D59",
"i c #B28E54",
"p c #B38E58",
"a c #B49157",
"s c #BB9554",
"d c #B4915A",
"f c #BA955B",
"g c #BE985B",
"h c #BB9761",
"j c #BF9A61",
"k c #C39957",
"l c #C59C5B",
"z c #C99E5E",
"x c #C7A05F",
"c c #CAA15F",
"v c #C69F62",
"b c #CA9F61",
"n c #C5A066",
"m c #CCA363",
"M c #CFA866",
"N c #CEA668",
"B c #CFA869",
"V c #D1A666",
"C c #D1A967",
"Z c #D0A768",
"A c #D3AA6C",
"S c #D8AD6E",
"D c #D6AE71",
"F c #D9AF71",
"G c #D7B073",
"H c #DBB274",
"J c #DEB67A",
"K c #E0B577",
"L c #E1B67A",
"P c #E3BB7E",
"I c #E9C387",
/* pixels */
"mHJHFzkzzVZAAAbVDDmNDFAFGFCcSFSV",
"DHJHHmkVZZZAAZbVVZFFDDAASSCcmmCC",
"GJJHHVlVAAVZAmmmNBJJAAAAASVmzzCS",
"BDD62klzmbb8<ammvmHJPPGJHJVcVVSS",
"mAD%Oglbzzz1OyZmlmJJIIJJHJZbVAAG",
"GAA%X-1kbzz;X,1pNNGGJJJJHv3yVmAA",
"PANX ..dbbl, ..tZBDDDDJPFdO2BmNm",
"Jmmwr+.hbblpy,.,5pAf778uSd#5AVVA",
"Dmlll#.dmczVS<...9M9@@@2AdO5AVVV",
"Axxll%ogZVcVVi8=.9Mr@1www4O2SSVV",
"lkkxx:#nFSVVzbb5.yAy#rma;*O2KKSS",
"mlkxn-X7tmSCVmb2.1t1@rmi;>qpSKSS",
"Azlzmo @OjPHANl1.X#@@9ma;qmmSSSS",
"yqqmmq9%#jHAZmb2.o#19qe4;qMliipg",
"OOOmAmm1#fmxllb2.o#ume;;;wma;;;:",
"3=%ydmn;@fnmli8,.X@rme;;%7ca#;wy",
"A>;#$vm<#exll1  ...rBa;*@3ma ,mm",
"M:;%%mm-#akxx1.,555ru3;%o;y7.%xm",
"B:;;;lm1#gMAG1 tnNGr.@:#  ...%xM",
"Dqq;;is-@gVjh, rmhh5 @*@.$1<;3xM",
"GHJ>;;;#OdC<...ym7#o  ...1NNmxBA",
"GJJ:&=&#OaA<.%,ti2%%,1-#X1mvaadj",
"GGH+...OOfl- iA7#O@rDAnt$7my...$",
"GJG<%o.-<ie-X7g2##%tAAcy%1d7.X-5",
"DDABB% gV1%OOOO%#$@9lkVf;%...,AA",
"DBMAV% yk-O=--,%$%;yssmy;*##%5AC",
"vnxMA% X  .dVSH8#txxMi;;;4mVVmmV",
"llkMF,%@Oo.ymmZ7@qsfNt=:>0mCcccc",
"xlkmVAGBm1O%#X.o#@##%o 6mlmmzzVC",
"ckscmAGAF1OO@X o@@%#=%o7mmllllAF",
"mmmBAAAAD,.........9HGAVMBbbmVAS",
"mAADAAASA1XXooXXoXXrKKmmAACbASCV"
};
