/* XPM */
static char *result[] = {
/* columns rows colors chars-per-pixel */
"32 32 68 1 ",
"  c #B5763F",
". c #B4773F",
"X c #B4783F",
"o c #B67740",
"O c #B87840",
"+ c #B87841",
"@ c #B87941",
"# c #BA7942",
"$ c #BA7A42",
"% c #BC7B43",
"& c #BE7B43",
"* c #BE7B44",
"= c #BD7C44",
"- c #BD7C45",
"; c #BE7D44",
": c #BF7F46",
"> c #C37D45",
", c #C37E45",
"< c #C57F47",
"1 c #C58247",
"2 c #C78247",
"3 c #C4804A",
"4 c #C6804B",
"5 c #C6844B",
"6 c #C6844C",
"7 c #C6854C",
"8 c #C6844D",
"9 c #C7874F",
"0 c #C88248",
"q c #C88348",
"w c #C98349",
"e c #C98449",
"r c #CC854B",
"t c #CE854B",
"y c #C8844C",
"u c #C8854C",
"i c #CA854C",
"p c #C8864C",
"a c #C9864D",
"s c #CA864C",
"d c #C9864E",
"f c #CC854C",
"g c #CC874C",
"h c #CF864C",
"j c #CF874C",
"k c #CF874D",
"l c #C9884F",
"z c #CA884E",
"x c #CD894D",
"c c #CF894D",
"v c #CF894E",
"b c #CD8A4E",
"n c #CD8B4E",
"m c #CD8A4F",
"M c #CD8C4F",
"N c #D0864C",
"B c #D0874D",
"V c #D0884D",
"C c #D38A4D",
"Z c #D38A4E",
"A c #C88A52",
"S c #C88A53",
"D c #CA8C52",
"F c #CD8C50",
"G c #C98D56",
"H c #C98D57",
"J c #CC8F55",
"K c #CA925D",
/* pixels */
"jjjjjjjjjjjjjj$++++O-65666666666",
"j%$$$$+>VjjkMMrt*+++++=jjjjjjbMz",
"j$++++o>VjjkMMkN*++++O%jjjjjjbMz",
"jew%+++$%;jjkkjjrwwwwwrjjjjjjpa7",
"jjj%ooooo$jjjjjjjjjjjjjjjjjjju66",
"jjjq00000qjjjjjjjjjjjjjjjjjjjffu",
"jjjjBBBBBjjjjjjjjjjjjjjjjjjjjjjs",
"jjjjjjjjjjvcjjjjjjjjjjjjjjjjjjjs",
"jjjjjjjjjkMMjjjjjjjjjjjjjjjjjjjs",
"jjjcckjjjkbbjjjjjjjjjjjjjjjjjjjs",
"jjjMFcjjjjjjjjjjjjjjjjjjjjjjjjjs",
"jjjnMcjjjjjjrrrrrrrjjjjjjjjjjjjs",
"jjjjjjjjjjjr+++++o<Vjjjjjjjjjjjj",
"jjjjjjjjjjjr+++++o<Vjjjjjjjjjjjj",
"%rjjjjjjjjjjrr$+++#@,VjjjjjjV,@$",
"$rjjjjjjjjjjjj$+++o.;VjjjjjjV;.+",
"$%%wjjjjjjjjjjwwwwwwrjkMMjjjjre>",
"OoowjjjjjjjjjjjjjjjjjjkMMjjjjjZ<",
"211rjjjjjjjkxxkjjjjjjjjvvjjjjjjw",
"CVVjjjjjjjjkMMkjjjjjjjjjjjjjjjjj",
"gjjjjjjjjjjkbbkjjjjjjjjjjjjjjjjk",
"ajjjjjjjjjjjjjjjjjjjjjjjjjjjjjjv",
"affjjjjjjjjjjjjjjjjjjjjwwwwwwrjc",
"a66fjjjjjjjjjjjjjjjjjjwoo+++o0Bj",
"a66fjjjjjjjjjjjjjjjjjjw$$+++o1hj",
"66666sjjjjjjjjjjjjjjjjjjr+++++o,",
"66666sjjjjjjjjjjjjjjjjjjr+++++o,",
"m66666yijjjjjjjjjjjjcMnjjrrrrrrr",
"M665566ijjBBBBBBjjjjcFMjjjjjjjjj",
"d65SG95ya5&****%ejjjkccjjjjjjjjj",
"465HKA5683 o+++XqVjjjjjjjjjjjjjj",
"S85DJl6665::++++;>wVjjjjjjjjjjjj"
};
