/* XPM */
static char *result[] = {
/* columns rows colors chars-per-pixel */
"32 32 113 2 ",
"   c #2D2C2E",
".  c #322B2D",
"X  c #3E2D2D",
"o  c #312D30",
"O  c #432D2D",
"+  c #46302C",
"@  c #49332E",
"#  c #54322B",
"$  c #58372F",
"%  c #5B3930",
"&  c #603F2F",
"*  c #5B4034",
"=  c #594139",
"-  c #5E4839",
";  c #6B4634",
":  c #674837",
">  c #6C4934",
",  c #734532",
"<  c #744A36",
"1  c #7C4D30",
"2  c #77403B",
"3  c #795137",
"4  c #7B523D",
"5  c #795B3A",
"6  c #6A4641",
"7  c #6F4C43",
"8  c #7E5441",
"9  c #7D504E",
"0  c #875034",
"q  c #835639",
"w  c #8A5C3C",
"e  c #915D39",
"r  c #85633E",
"t  c #9F6636",
"y  c #93623A",
"u  c #9D6539",
"i  c #B76F2D",
"p  c #BB6E2E",
"a  c #B6712E",
"s  c #BA712E",
"d  c #A26539",
"f  c #A56B3A",
"g  c #A96C3C",
"h  c #B66E33",
"j  c #BB6F33",
"k  c #B36E3B",
"l  c #AF7236",
"z  c #A7703A",
"x  c #A9703C",
"c  c #B77132",
"v  c #B97132",
"b  c #B47339",
"n  c #BC713B",
"m  c #C1742E",
"M  c #C26D3A",
"N  c #C07233",
"B  c #C2753B",
"V  c #C7793E",
"C  c #C8793D",
"Z  c #835140",
"A  c #885642",
"S  c #875847",
"D  c #8E5F45",
"F  c #82564E",
"G  c #866144",
"H  c #8B6242",
"J  c #85614A",
"K  c #9D6C42",
"L  c #94644E",
"P  c #9A6250",
"I  c #9C6A51",
"U  c #92665B",
"Y  c #9C645E",
"T  c #9D685E",
"R  c #A56E43",
"E  c #AC6C49",
"W  c #B16D42",
"Q  c #AC704E",
"!  c #B6754C",
"~  c #BB764C",
"^  c #A06757",
"/  c #A36856",
"(  c #A67157",
")  c #B57854",
"_  c #A27065",
"`  c #BB7A64",
"'  c #B67C6E",
"]  c #B97C6D",
"[  c #C37743",
"{  c #CD7745",
"}  c #CC7A46",
"|  c #C67D49",
" . c #CB7A4A",
".. c #D17D4D",
"X. c #C27B54",
"o. c #C37B5A",
"O. c #D27E50",
"+. c #CB7F65",
"@. c #D17E70",
"#. c #B5806A",
"$. c #D5824C",
"%. c #CF8251",
"&. c #CF8459",
"*. c #D38454",
"=. c #D98656",
"-. c #D3855B",
";. c #DC855B",
":. c #D2895E",
">. c #CF816F",
",. c #D38465",
"<. c #DA8F67",
"1. c #D0806F",
"2. c #DB8F6C",
/* pixels */
"a h v c s s s s s a i s i v c H 9 F g v s a a c a a a b a s s v ",
"O. .v a v a a s s v h a v s c 4 - : d h v a B ....V a c h v v v ",
"] ` b i a a a a i n ~ c c h p n b b v h v a ! ] ' ) i j v c v c ",
"  @ g s a a a a i -.,.c s b s s s a s s m v q .   > b v c c v s ",
"J H l s a a v v v 4 2 h s c c c a v a a s c f H G K c s c c h s ",
"N m s v a a v v b 5 3 j v c s c a a c s v v s s s v a a j v p a ",
"a s b v a a a a p M b a c c c c a a a a s s v h v s c c v i h s ",
"c c v a s a a a v s s s v h a c c s c a c c a s s v j j s a c s ",
"v a a a a a a a c s c a *.-.a s v c a c h a a i a a h n s c c v ",
"%. .n a s h s c a a v c P L h j c v c c v s B  ...C v c s s c c ",
"] ` k s a a a a s a s b ; & j a c c v c c p ~ ' #.~ s v h v a v ",
". @ f s a v a a c a v s b g a s c c c a a N q . . > c v v c c v ",
"H y l a a a a c a a v s v v s a i h a s c v f r G u v s a c a c ",
"v v s a a a s a a c a s a a s } $.%.B h c a h B b c j h c c c v ",
"a a a c a c v c s a a v c c k I U U g p s } [ s s s h v c c c c ",
"c v b a c a c a a c a v c n b * o O y s a >.o.a v s v h a a v a ",
"c s v a v h k h s a c v v v c x K R b v l % , n s a c s a h h i ",
"v h h a B =.;.*.s a b s v c v s v v a c a D y m p h v p | ;.;. .",
"c c c v W / Y ^ b a c v c v h h a a c c s c s v h h s v E T T E ",
"v h v s d # X % h s c v c a c n n n v v c s c h v v s v 0 X O 1 ",
"c i c s c g z x k a a c c a v -.2.<.[ i i s h c s c s v g x R k ",
"a a a c s v v c c c v c v s c Z 6 6 d s v a c h a a a c v v v v ",
"} { v a c v h a v c h s s c b 3 = : u v v a v  .} B a c v v v c ",
"@.+.b a v c v a s n c c c c s v v b s s c a | @.1.X.s v v c v c ",
"O $ f v h c c s s &.:.n c b i v s c s a s b w + O < b v v v c c ",
"w e h h v v c s b 8 7 c a c c h c h c c s v d w q t c c c v a c ",
"c n s s c v v c c 3 > b v c a a c a c v s s s N b v s s c v a s ",
"v j s s c c c s a b b a c h v a c v c s h v h h m s s s a c a v ",
"c a s h c c a s c s s c c c a c c c c c v a c s s s c v s s c h ",
"a i c v v c c c c v s h ;.-.c a a a v s j a a i a h h j s a c s ",
"*.$.v h c a c c c c s b S A k j v a a s c a [ ;.*.| i c c a a a ",
"_ ( h s c c c v c c c b < , l s a a a v s j E _ _ Q h c c s c a "
};
