/* XPM */
static char *result[] = {
/* columns rows colors chars-per-pixel */
"32 32 91 1 ",
"  c #7E4227",
". c #74462B",
"X c #7E4529",
"o c #754C2D",
"O c #7A4A2C",
"+ c #7D502E",
"@ c #675333",
"# c #6A5533",
"$ c #6E5934",
"% c #705130",
"& c #7C5531",
"* c #745D36",
"= c #7B5C35",
"- c #776036",
"; c #796137",
": c #7A6138",
"> c #AE0B06",
", c #B60100",
"< c #B90000",
"1 c #B00C07",
"2 c #BB0B07",
"3 c #BF0E08",
"4 c #A8120A",
"5 c #AF190F",
"6 c #B5160D",
"7 c #BB130B",
"8 c #B3190F",
"9 c #B9180E",
"0 c #AC1E12",
"q c #B51D10",
"w c #952617",
"e c #9D2515",
"r c #952E1C",
"t c #9B2C1A",
"y c #8A331F",
"u c #93331E",
"i c #9F351F",
"p c #A42415",
"a c #AC2314",
"s c #A62916",
"d c #AA2817",
"f c #A42C1A",
"g c #A82A19",
"h c #B32413",
"j c #BA2212",
"k c #B32B16",
"l c #B02F19",
"z c #A3321C",
"x c #AE321A",
"c c #A93D1F",
"v c #B13119",
"b c #873620",
"n c #8E3720",
"m c #843E25",
"M c #8B3A23",
"N c #943C23",
"B c #9A3A21",
"V c #A63E20",
"C c #C60000",
"Z c #CE0000",
"A c #C40C07",
"S c #C90804",
"D c #C20E08",
"F c #D10100",
"G c #C21109",
"H c #824026",
"J c #8C4226",
"K c #834528",
"L c #8D4729",
"P c #834D2C",
"I c #8B4A2B",
"U c #934326",
"Y c #9C4324",
"T c #904829",
"R c #9B4B28",
"E c #86512E",
"W c #8C542F",
"Q c #815632",
"! c #825B32",
"~ c #8A5930",
"^ c #925F31",
"/ c #A24624",
"( c #A04825",
") c #806537",
"_ c #8C6434",
"` c #836937",
"' c #8B6836",
"] c #826738",
"[ c #846938",
"{ c #896D38",
"} c #8E7039",
/* pixels */
"ZFZFZFZFFZFZZF<,<<<<<CCCCCCCCCCC",
"F<<<<<,CFFZFZZZZ<<<,<<CZFZFZZZFC",
"Z<<<,<,CFFZZZZZF<<,<<<<ZZZFFFZZC",
"FCCUI1,<<<FzI9ZZZZCCCCZFZFZZFCZC",
"ZFF=->,,<<FT-qZZFFFZZFFZFFZZZCCC",
"FZZO$mb2CCFM$HM6ZZZFFZZFF9NgZZZC",
"ZZZ%###7FZZH###aFZZZZZFFZh:LZFFC",
"ZFZapo#7ZFZ8pX#Ku6ZqBBBaZh-UZZFZ",
"FFZFZX@7ZZZZZM#@#tFz:-:BZq:UZZFC",
"ZZZZZP*7ZZZZZ8pK#pZz-IgzcR*UZZZZ",
"FZFZCW:AFZZZFFZu@pZf:zFk{`*LZZFC",
"ZZZZZP*BzAZZCZZu#JzI*iFk{WzhFFZZ",
"ZFFZFo#**9ZZ,<,y@*--;BFh{/ZFZZZF",
"gggSZpu&:9ZZ<,<y@*:Izzx/{(ZAxvvh",
"-**SZZFI:9FFCZ<y#*:tCl{{{/Fj{{{_",
"N))fdSZI-9FZF6e #%*u<v{{)YZj:!Yz",
"<_}:-7ZI-9ZFZM#####tCv{`*BZ6#HCC",
",_{:`GZE-9ZZZM#XMMytai{`*K0r#HFC",
"S_{{{AZI:7ZZZn#0ZZZf#*}:@####XZC",
"Z/R_{kjW;9Z75H#aZG9M#*`*#oKMMtFF",
"ZFZ^}{}:;9ZK###pFi:$@@###nZZZFZF",
"CZZ~:`::*9ZM#X f9U-EKKKO*MFS6667",
"CCZ%@#@*:7ZM@qFB-:*fFZFp*NC8###o",
"ZCCMK%@QIh7K$f7U--:zFZCp:J4w##Kn",
"CCCZFX#DZI-:::---:-zZFCs{`### ZZ",
"CCCCCO#0GP*QEII=:QEgZSGx{=.ooy,C",
"CCCCCO####@7ZZZB-gZFFv{{{U<<<<,C",
"FCCCCKooO##dAAAN-zAAAz`_^cZZZCZC",
"FCCCCCCCFL---$#%:-=:-*#NZZZFZZFZ",
"CCCCCCCZCI*::$#**:=*Q&orFFZZFZZF",
"CCCZZCCCCH#######@@iZSSZZZZFFZZF",
"ZCCCZCCCCm%%%##o#%%fZFZFZFZFZZFZ"
};
