/* XPM */
static char *result[] = {
/* columns rows colors chars-per-pixel */
"32 32 106 2 ",
"   c #2D0000",
".  c #310000",
"X  c #320000",
"o  c #340000",
"O  c #3D0000",
"+  c #3F0000",
"@  c #410000",
"#  c #460000",
"$  c #470000",
"%  c #480000",
"&  c #490000",
"*  c #540000",
"=  c #580000",
"-  c #590000",
";  c #5B0000",
":  c #5E0000",
">  c #600000",
",  c #670000",
"<  c #6A0000",
"1  c #6B0000",
"2  c #6C0000",
"3  c #6F0000",
"4  c #720000",
"5  c #730000",
"6  c #740000",
"7  c #770000",
"8  c #790000",
"9  c #7B0000",
"0  c #7D0000",
"q  c #7E0000",
"w  c #820000",
"e  c #830000",
"r  c #840000",
"t  c #850000",
"y  c #860000",
"u  c #870000",
"i  c #880000",
"p  c #8D0000",
"a  c #8E0000",
"s  c #900000",
"d  c #910000",
"f  c #920000",
"g  c #930000",
"h  c #940000",
"j  c #960000",
"k  c #9A0000",
"l  c #9B0000",
"z  c #9C0000",
"x  c #9D0000",
"c  c #9F0000",
"v  c #A00000",
"b  c #A10000",
"n  c #A20000",
"m  c #A30000",
"M  c #A60000",
"N  c #A70000",
"B  c #A80000",
"V  c #A90000",
"C  c #AA0000",
"Z  c #AB0000",
"A  c #AC0000",
"S  c #AD0000",
"D  c #AE0000",
"F  c #AF0000",
"G  c #B00000",
"H  c #B10000",
"J  c #B20000",
"K  c #B30000",
"L  c #B40000",
"P  c #B50000",
"I  c #B60000",
"U  c #B70000",
"Y  c #B80000",
"T  c #B90000",
"R  c #BA0000",
"E  c #BB0000",
"W  c #BC0000",
"Q  c #BD0000",
"!  c #BE0000",
"~  c #BF0000",
"^  c #C00000",
"/  c #C10000",
"(  c #C20000",
")  c #C30000",
"_  c #C40000",
"`  c #C50000",
"'  c #C70000",
"]  c #C80000",
"[  c #C90000",
"{  c #CA0000",
"}  c #CC0000",
"|  c #CD0000",
" . c #CF0000",
".. c #D00000",
"X. c #D10000",
"o. c #D20000",
"O. c #D30000",
"+. c #D40000",
"@. c #D50000",
"#. c #D60000",
"$. c #D80000",
"%. c #D90000",
"&. c #DA0000",
"*. c #DB0000",
"=. c #DC0000",
"-. c #DE0000",
/* pixels */
"K U T Y T W W E Y U U Y T T I a 0 w M T Y U I L P U L L U W W R ",
"O...Y I U U U U U U U U U Q U 9 : , c W Y U ( o.O.' K I W U U Y ",
"Y Y L I I I I U U W Q T I U ! R U L T R U P I T I P U Q E U U Y ",
"  & B R I I I I U +.O.Y R L U Y Y P Y U ~ W w o   1 U E H I Y T ",
"t p G R Y U U R U q 7 I Y U U U U U U U E U n i r l Y W U U E Y ",
"^ / Y U Y U U W P 8 7 U T U U U U U U U Y T W ^ ~ Q U T ! R E U ",
"U W T U U U U P W ( T P Y Y U U U U U U R W T U R Q L K U R T Y ",
"U L U Y U U U P U R U T T T I U U U U U I L I T U U E T U U U T ",
"I K U U U U U U U U U U o.+.J U Y U U U T K L R L U E I T U U Y ",
".. .E U U U U U U U Y Y k h Q E U U U U T Y / ..X.] U P Q Y U Y ",
"Y Q P U U U U U U U T T 1 > T U P U U U U W Y P R R U U W Y U T ",
"X % N R U U U U U U T U H J J R Y U U U P ^ e . X 1 E E I U U T ",
"u s D U U U U U U U Y R W U P U I K T R T Q M y e z U R P U U Y ",
"Y T E Y U U U U U U Y Y L K ~ } @. ._ E P P E ! R U R T I U U Y ",
"U U U U U U U U U U U T R U K z a f A Y E [ ` E E R E T I U U Y ",
"P U L U U U U U U U U Y E E J ; . + g E U [ ) K U U U U U U U Y ",
"U T U U U I P I R Y P U U R U B c n H T F > 4 R W L P R U P P Y ",
"U U U Y ^ %.-.o.Y Y L R Y Y Y E E R U U U p j ! E U U R ` -.=.{ ",
"U U U Y H m z v J Y U W Y Y U U I I U U T Y W R I R Y T Z l c Z ",
"U U U R n * O ; J R I Y U U U E W Q E T U Y U P Y Y Y W u O # 0 ",
"U I U W I C N V L T I I I T R X.*.&./ U U Y I R ~ P R W S N N H ",
"L P U U Y R E R U U Y Y I R T e < 3 n W Y U U P P U U Y Y E E T ",
"} | R U U Y Y Y U U U T T I J 8 - > x W T Y ~ [ } _ J L R Y Y Y ",
"X.} U U U U U U U E E U P P Q R T P T T P L ~ .. .( U W W U U Y ",
"@ = B R U U U Y U  .o.T Y P T U T P R U E T i $ @ 6 U E K U U Y ",
"u d D U U Y Y T R q 3 P Y U I I U U U U R U n i t x I U L Y U R ",
"R W W T U Y Y Y I 8 2 J Y U U U U U U U R E E W R U T T I Y U W ",
"E R R Y U U U T T J J U U U U U U U U U I I Y E W R E T U Y I E ",
"U Y U U U U U T U Y Q U U Y U U U U U U U U U U U Y U Y R T P E ",
"U U J I Y U U U I U Y U $.+.U P I U Y Y W Y U U J R Y I E U I T ",
"#.+.Q Y U U U U U U Y P u i J R U U Y T U L _ &.+.' T L Y U U U ",
"b M P T U U U U U U Y I 6 5 G Y U U Y T T W D n m A T U U U U U "
};
