/* XPM */
static char *result[] = {
/* columns rows colors chars-per-pixel */
"32 32 92 1 ",
"  c #77462B",
". c #7C4529",
"X c #744D2E",
"o c #7A4A2C",
"O c #7E502E",
"+ c #675333",
"@ c #6A5533",
"# c #6E5934",
"$ c #705130",
"% c #7D5631",
"& c #745D36",
"* c #7C5C35",
"= c #776036",
"- c #796137",
"; c #7A6138",
": c #BD0000",
"> c #BD0B06",
", c #BE0E08",
"< c #AD190F",
"1 c #B4150C",
"2 c #BC120B",
"3 c #B4180E",
"4 c #BB180E",
"5 c #A61F12",
"6 c #AB1E12",
"7 c #B11E10",
"8 c #BA1D10",
"9 c #9C2617",
"0 c #952E1B",
"q c #9B2D1B",
"w c #92331F",
"e c #9F351E",
"r c #A22416",
"t c #AA2314",
"y c #A62917",
"u c #A92817",
"i c #A42A19",
"p c #AB2D19",
"a c #B32314",
"s c #BA2413",
"d c #B32B16",
"f c #A4321C",
"g c #AC341B",
"h c #AA3D1F",
"j c #B23119",
"k c #8E3620",
"l c #853D24",
"z c #8A3B23",
"x c #913720",
"c c #943B22",
"v c #9B3B22",
"b c #A13E20",
"n c #C50000",
"m c #CC0000",
"M c #C40E07",
"N c #CA0B06",
"B c #C90E08",
"V c #D30000",
"C c #DB0000",
"Z c #D20A06",
"A c #C4130A",
"S c #E20000",
"D c #E90000",
"F c #834126",
"G c #8B4126",
"H c #824428",
"J c #8F4729",
"K c #844D2C",
"L c #8C4A2B",
"P c #944226",
"I c #9D4525",
"U c #9F4825",
"Y c #914729",
"T c #904829",
"R c #994928",
"E c #86512E",
"W c #8C542F",
"Q c #825531",
"! c #835B32",
"~ c #8A5930",
"^ c #925F31",
"/ c #A54524",
"( c #A04C28",
") c #806537",
"_ c #8D6534",
"` c #836937",
"' c #8B6836",
"] c #826738",
"[ c #846938",
"{ c #896D38",
"} c #916233",
"| c #8E7039",
/* pixels */
"mCSCCmnmmmVVVVmmVVmmCCCCCCVmVCVV",
"VCCCCmnmVmVmVVmVVVCCVCVVVVVmmmVC",
"CCCSCmnVVVVmVmmmVVCCVVVVVCVmmmVV",
"mVCPJ>nmmmneL3mmnmCCSSCCCCVmmmVC",
"mVV!;>nnmnnJ&6mmnmCCDDSCCCVmmVVC",
"CVVo&lk>mmnz&Hz1mmVCSCCCCAvpVmVV",
"SVm@@@@1mnmH@@@tVVVVVCCSCd=YVmmm",
"Cmm6rX@2mmm1tH@Hw1V8vbvaCa=PVmVV",
"Vmnnn.@1mmmVVk@@@qmf=;-cV8;PVVVm",
"VmnnnK&2VmmmV39H@imf;JyfbR&PVCVV",
"nnnnnE;NCVVVmmmw@tVp=fVd{{*YSCCC",
"mnnmnK&vfNVVmmmw@GfJ;fmp{WfaCCCC",
"VnnmmX@&*ASCVmnk@#-=*vma{/VmVCCV",
"piinmiw%;8CVVmmk@&;Lbfj/{/mMjjjs",
"&&&NVmmL;4mnmmnw+&-pmj{{{/ma{{{}",
"v))paNmL;3mmn<rl@#&pmg{[]Im7)!/j",
"V}|;&AmL&3nnnz@@@@@imj{`&vm3@lmm",
"m_{;;AmK;3nnnk@.xxzite{`&H6w@Hnm",
"Z'{{{NmL-4VVCk@5mmVy@*|-+@@@@.mm",
"V/('{dsW&4V24H@rmA8c+&`&@Xzzl0mm",
"VCS}{{{;*4VH@@@tmv-&@+@@@kmmmmmV",
"CCC~)));;4Vz@.Gy3c;OGG.o#cmn333A",
"CCCX@@@==2nl@7Vv;;-pVVmt=Pm<@@@o",
"VCCz.@@KLa1H@q2P&;&fVmmu;P19@$.w",
"VVVVV.+,mJ;;=;;;;==fnnVd|;+@@HVV",
"VVmVVo@6>L=QKEK!&QQy:>Aj').ooxVV",
"mnnVVo@@@@@4VVCv;ynmmj{{'UmmmmVm",
"nnnmCzXXX@@tBNZv;f>>Ng[_}bmVmmmm",
"nnnmmVVVmJ;;&&@&=;*=&&@cmnnmmmmV",
"m::mmVVCCY&;*@+&===*!%XqmnnnnnVC",
"mmmmVVVCCH@@@@@@@@@qCZmVVmmmmmVV",
"mVVCVVVVVz$$$$$$$$@iSSmmVCVmVCVV"
};
