/* XPM */
static char *result[] = {
/* columns rows colors chars-per-pixel */
"32 32 111 2 ",
"   c #2D2C2E",
".  c #332B2D",
"X  c #46302C",
"o  c #49332E",
"O  c #58372F",
"+  c #603F2F",
"@  c #554431",
"#  c #5F4631",
"$  c #5E4839",
"%  c #6B4534",
"&  c #6A4932",
"*  c #6E4D3E",
"=  c #714D33",
"-  c #7C4D30",
";  c #675233",
":  c #6A5633",
">  c #6E5833",
",  c #735433",
"<  c #745C35",
"1  c #7B5D33",
"2  c #7B543C",
"3  c #755A3A",
"4  c #795B3A",
"5  c #776036",
"6  c #7A6137",
"7  c #7A6138",
"8  c #7F5E40",
"9  c #7D504E",
"0  c #835F32",
"q  c #835639",
"w  c #885A39",
"e  c #915D39",
"r  c #9D6B2F",
"t  c #846335",
"y  c #8B6434",
"u  c #836937",
"i  c #8E6D37",
"p  c #83643B",
"a  c #8A663C",
"s  c #846938",
"d  c #896C38",
"f  c #926533",
"g  c #9A6633",
"h  c #956A35",
"j  c #9B6A34",
"k  c #91643B",
"l  c #956A38",
"z  c #9B6C39",
"x  c #8E7039",
"c  c #9E7032",
"v  c #A56C2F",
"b  c #A96E2E",
"n  c #B76F2D",
"m  c #BC6F2F",
"M  c #AF702B",
"N  c #B6712E",
"B  c #BA712E",
"V  c #A46C32",
"C  c #AC6E32",
"Z  c #A46C3A",
"A  c #AB6B3A",
"S  c #B46E33",
"D  c #BB6F33",
"F  c #B26E3B",
"G  c #A67031",
"H  c #AE7134",
"J  c #B67132",
"K  c #B97131",
"L  c #B57339",
"P  c #BC723C",
"I  c #C1742E",
"U  c #C26D3A",
"Y  c #C07232",
"T  c #C2763C",
"R  c #8E5F45",
"E  c #82564E",
"W  c #866144",
"Q  c #8B6242",
"!  c #85614A",
"~  c #9B6840",
"^  c #9A6250",
"/  c #9C645E",
"(  c #9F685C",
")  c #A76D42",
"_  c #AC6C49",
"`  c #AA7442",
"'  c #A4754C",
"]  c #AB724D",
"[  c #B6754C",
"{  c #A67157",
"}  c #AD7752",
"|  c #A47857",
" . c #AF7559",
".. c #B57854",
"X. c #A27065",
"o. c #BB7A64",
"O. c #B67C6E",
"+. c #B87B6D",
"@. c #C17641",
"#. c #CD7745",
"$. c #C77D49",
"%. c #CC7A4A",
"&. c #D17D4D",
"*. c #CC7F62",
"=. c #D17E70",
"-. c #D4834C",
";. c #D48455",
":. c #D4855B",
">. c #DB855B",
",. c #D38465",
"<. c #DB8F6C",
/* pixels */
"N S K K B B B B N K N N n K L R 9 E Z N B N N J n N N J N N B K ",
"&.&.K N J N B B N D n J D I N 2 $ % V K K N T -.&.T N L D J K K ",
"+.o.L n N N N N n P T K J K B P L L D D K N [ +.O...J D K J K J ",
"  o Z y u H N N S :.,.g t Z N B B n N S I K q .   & P N L N K K ",
"! Q L 7 6 N N N K 2 + a 6 V J J N J J N B K Z Q ! ~ K m J N D N ",
"Y I J 1 < 6 0 n L 4 q w > 1 0 V N N n N J D B B I C y j D n D N ",
"N B D : ; : ; v B U K 1 ; : : j N N J N N B K J K v 6 y N N D B ",
"J J N r r < ; v K K N v g 1 : 1 y v N V f f f V N V 6 y N N S B ",
"N n J J N 1 ; V N N K N ;.Q : : ; f D h < 6 1 f N V 5 y N K K J ",
"&.%.K N K 1 < C N N K K ^ Q g 1 ; g K h 6 a z ` L l 6 a B K J N ",
"+.o.F K N t 7 M N N K L % O D y > g K h 7 g [ | s s 5 s K K K K ",
". o A B N 6 < f j H B B S F N y : t h y < h q @ d 7 l V J J J J ",
"W k H N J < ; < 6 v B N K K B 0 : < 5 5 6 h V s d i K N N L N J ",
"j j r N N f y 6 6 V K N N N B k ; < 6 t h j Z z d z D S V G G V ",
"6 7 5 J N J J y 6 C N N K S S 8 : > 6 r N ` d d d z D G d d d d ",
"f 7 7 j j J J t 5 V N K P V l ; : > < g N } d d 7 h L V 7 u c V ",
"N i x 6 4 C F t 6 v J K N 0 > ; : ; ; f H = d u < y N v ; 1 S D ",
"N i d 6 7 %.>.a 6 b L n N t ; 1 t 0 t f j t d u < t g f ; a >.%.",
"N d d d x ( / p < C D K K y > j n n N f ; 6 x 7 ; ; : ; : 3 ( _ ",
"J h h d d & @ < 5 C n v V 1 ; j P F V y ; < s < : < 1 t , @ X - ",
"J J N x d d d 6 5 M J 1 > : : ] <.' 6 < : : : : : 0 B D A A ) F ",
"N N N u u 6 u 5 4 V K 6 ; < 1 2 * 3 6 1 1 1 1 < < 0 N S Z V V V ",
"#.#.K < : : ; 6 4 C J 0 : j L 4 1 5 5 g N N P ` 5 h M V : : > < ",
"=.*.L 0 1 > > 6 t Z H 1 : g M y 4 5 7 h J N @. .6 a v g : : 1 t ",
". O A K K < ; b D a 7 6 6 6 < 6 5 4 5 g B L w # i u ; : : 1 K J ",
"w e C K J 1 ; V G 4 5 7 t u u 6 6 7 t j m J z y i 6 < 1 1 0 N n ",
"P Y B B N , : : ; : ; V D K J g 5 j N K N M i d d h N B J K N D ",
"B K K K K 0 < < < > : j C C C y 6 h C L C h u i i c B N N D N B ",
"N N J K N J J N K t 6 7 5 > : < 6 5 5 5 6 < ; 0 N N S K N B K D ",
"n n J D K J J D S t 1 5 5 > ; < 6 4 5 7 6 < < y n D K K B N J N ",
";.-.K K N K N J N 1 : : : : ; : : ; : f S N T >.:.$.n S K K N N ",
"X.{ S N J J J J N t > > > : > < > > > g K D _ X.X.] K S N n N K "
};
