/* XPM */
static char *result[] = {
/* columns rows colors chars-per-pixel */
"32 32 89 1 ",
"  c #BEA36B",
". c #D5B676",
"X c #D5B776",
"o c #D6B777",
"O c #D6B876",
"+ c #D7B877",
"@ c #D7B977",
"# c #D8B977",
"$ c #D9B977",
"% c #D9BA77",
"& c #D8B778",
"* c #D7B878",
"= c #D8B878",
"- c #D9B878",
"; c #D8B978",
": c #D9B978",
"> c #D8BA78",
", c #D9BB79",
"< c #DABA78",
"1 c #DABB78",
"2 c #DBBB78",
"3 c #DABA79",
"4 c #DBBA79",
"5 c #DABB79",
"6 c #DBBB79",
"7 c #DBBC79",
"8 c #DBBC7A",
"9 c #DCBC79",
"0 c #DDBD79",
"q c #DCBC7A",
"w c #DDBC7A",
"e c #DCBD7A",
"r c #DDBD7A",
"t c #DDBD7B",
"y c #DEBD7B",
"u c #DDBE7A",
"i c #DDBE7B",
"p c #DEBE7A",
"a c #DEBF7A",
"s c #DFBF7A",
"d c #DEBE7B",
"f c #DFBE7B",
"g c #DEBF7B",
"h c #DFBF7B",
"j c #DFBE7C",
"k c #DEBF7C",
"l c #DFBF7C",
"z c #E0BF7A",
"x c #E0BF7B",
"c c #E1BF7B",
"v c #E0BF7C",
"b c #E1BF7C",
"n c #E0C07B",
"m c #E1C17B",
"M c #E0C07C",
"N c #E1C07C",
"B c #E0C17C",
"V c #E1C17C",
"C c #E1C17D",
"Z c #E2C07C",
"A c #E2C17C",
"S c #E3C17C",
"D c #E2C17D",
"F c #E3C17D",
"G c #E2C27C",
"H c #E3C27C",
"J c #E3C37C",
"K c #E2C27D",
"L c #E3C27D",
"P c #E3C37D",
"I c #E3C27E",
"U c #E3C37E",
"Y c #E4C27C",
"T c #E4C27D",
"R c #E5C27D",
"E c #E4C37D",
"W c #E5C37D",
"Q c #E4C27E",
"! c #E4C37E",
"~ c #E5C37E",
"^ c #E6C37E",
"/ c #E5C47D",
"( c #E5C47E",
") c #E5C47F",
"_ c #E6C47E",
"` c #E6C57E",
"' c #E6C47F",
"] c #E7C57F",
"[ c #E7C67F",
/* pixels */
"JDA)d&c34(rDMfD!6*`W5<(kjAPn$6[U",
"v#r`AxLNNLLLLDLEDx!EMvLL~l,dCMKq",
"CCNELLLLLLELLLLLLLLLLLLTEFbA!Pl3",
"K'LLLLLLLLLLLLLLLLLLLLLLLTELLLFy",
"I(LLLLLLLLLLLLLLLLLLLLLLLLLLLTTp",
"6xELLLLLLLLLLLLLLLLLLLLLLLLLLTYA",
"<rELLLLLLLLLLLLLLLLLLLLLLLLLLLAS",
"(ILLLLLLLLLLLLLLLLLLLLLLLLLLLLy%",
"L!LLLLLLLLLLLLLLLLLLLLLLLLLLLLx0",
"A~LLLLLLLLLLLLLLLLLLLLLLLLLLLLT^",
"<LLLLLLLLLLLLLLLLLLLLLLLLLLLL!L7",
"p+r(LLLLLLLLLLLLLLLLLLLLLLLLLLLN",
"PPDLLLLLLLLLLLLLLLLLLLLLLLLLLL!E",
"B!LLLLLLLLLLLLLLLLLLLLLLLLLLEPh=",
"OgQLLLLLLLLLLLLLLLLLLLLLLLLLLLVq",
"hMLLLLLLLLLLLLLLLLLLLLLLLLLLLL!F",
"(!LLLLLLLLLLLLLLLLLLLLLLLLLL!l:Z",
"((LLLLLLLLLLLLLLLLLLLLLLLLLL!M:e",
"gALLLLLLLLLLLLLLLLLLLLLLLLLLLE)r",
"XpTLLLLLLLLLLLLLLLLLLLLLLLLLLLGd",
"N!LLLLLLLLLLLLLLLLLLLLLLLLLLEPa@",
"L'LLLLLLLLLLLLLLLLLLLLLLLLLLLL!P",
"IrxELLLLLLLLLLLLLLLLLLLLLLLLLLEK",
"2<h~LLLLLLLLLLLLLLLLLLLLLLLLLLLT",
".!(LLLLLLLLLLLLLLLLLLLLLLLLLLLL~",
"onDTLLLLLLLLLLLLLLLLLLLLLLLLLLmz",
"x7l!LLLLLLLLLLLLLLLLLLLLLLLLETs1",
"MAALLLLLLLLLLLLLLLLLLLLLLLLLLR~k",
"r]_LLLLLLLLLE!LLLE!LLLLLLLLLENdL",
"NKgNTLLEELL(hrV!DppEKLTELLLLEd;H",
"-tewZ`~LALLEu0MMMp9/iTFALT!(~ENN",
" oN=>Ds6d(W1yNq6hZx8+_NeLEndjVAw"
};
