/* XPM */
static char *result[] = {
/* columns rows colors chars-per-pixel */
"32 32 23 1 ",
"  c #B40000",
". c #B50000",
"X c #B60000",
"o c #B80000",
"O c #BA0000",
"+ c #BC0000",
"@ c #BD0000",
"# c #BE0000",
"$ c #BF0000",
"% c #C30000",
"& c #C40000",
"* c #C50000",
"= c #C60000",
"- c #C70000",
"; c #C80000",
": c #C90000",
"> c #CA0000",
", c #CC0000",
"< c #CD0000",
"1 c #CE0000",
"2 c #CF0000",
"3 c #D00000",
"4 c #D30000",
/* pixels */
"22222222222222Oooooo@===========",
"2+OOOOo%3222<<,1#ooooo@222222<<>",
"2OooooX%3222<<23#ooooo+222222<<>",
"2::+oooO+#222222,:::::,222222;:=",
"222+XXXXXO2222222222222222222;==",
"222;;;;;;;2222222222222222222,,;",
"2222333332222222222222222222222>",
"2222222222222222222222222222222>",
"2222222222<<2222222222222222222>",
"2222222222<<2222222222222222222>",
"222<<22222222222222222222222222>",
"222<<2222222,,,,,,,222222222222>",
"22222222222,oooooX*3222222222222",
"22222222222,oooooX*3222222222222",
"+,2222222222,,OoooOo%32222223%oO",
"O,222222222222OoooX #32222223# o",
"O++:2222222222::::::,22<<2222,:%",
"oXX:2222222222222222222<<222224*",
"-**,22222222<<22222222222222222:",
"433222222222<<222222222222222222",
",22222222222<<222222222222222222",
":2222222222222222222222222222222",
":,,22222222222222222222::::::,22",
":==,222222222222222222:XXoooX;32",
":==,222222222222222222:OOoooX*22",
"=====>222222222222222222,oooooX%",
"=====>222222222222222222,oooooX%",
"<=====;>2222222222222<<22,,,,,,,",
"<======>2233333322222<<222222222",
":==;:-=;:=#####+:222222222222222",
"===:>;===&.Xooo ;322222222222222",
";==>,:====$$oooo#%:3222222222222"
};
