/* XPM */
static char *result[] = {
/* columns rows colors chars-per-pixel */
"32 32 60 1 ",
"  c #675333",
". c #6A5633",
"X c #6E5934",
"o c #745D36",
"O c #785F37",
"+ c #735E39",
"@ c #776036",
"# c #796137",
"$ c #76613B",
"% c #7B643C",
"& c #7E683F",
"* c #7F6840",
"= c #836937",
"- c #826738",
"; c #83693B",
": c #896D38",
"> c #8D703A",
", c #91753F",
"< c #846D43",
"1 c #896F41",
"2 c #877045",
"3 c #8B7245",
"4 c #8E7649",
"5 c #907647",
"6 c #947842",
"7 c #91774A",
"8 c #947A4B",
"9 c #987E4D",
"0 c #9D824E",
"q c #9C8251",
"w c #A4864D",
"e c #A6894F",
"r c #A28753",
"t c #A58A54",
"y c #A98C54",
"u c #A68C58",
"i c #AA8E59",
"p c #AF9155",
"a c #AD915B",
"s c #B29457",
"d c #B1955C",
"f c #B6985D",
"g c #BA9C5E",
"h c #B39760",
"j c #B69961",
"k c #BB9D62",
"l c #BFA165",
"z c #BEA36B",
"x c #C2A365",
"c c #C3A569",
"v c #C6A86B",
"b c #C9AB6C",
"n c #CFB071",
"m c #D4B574",
"M c #D7B877",
"N c #D9B977",
"B c #D7B878",
"V c #DCBC7A",
"C c #E0BF7B",
"Z c #E3C27D",
/* pixels */
"ZZZZVBCNNZVZZVZZVBZZVNZCCZZCBVZZ",
"CMVZZZZZCZZZZZZZZCZZZCZZZCVCZCZV",
"ZZZZZZZZZZZZZZZZZZZZZZZZZZCZZZZB",
"ZZZ07mZZZZZi8vZZZZZZZZZZZZZZZZZV",
"ZZZ;#mZZZZZ8$zZZZZZZZZZZZZZZZZZC",
"VVZ%X48mZZZ8o28cZZZZZZZZZbqdZZZZ",
"NVZ+...bZZZ<...jZZZZZZZZZk$8ZZZZ",
"ZZZkh$.bZZZxh<.2qvZcrrrkZkO9ZZCB",
"ZZZZZ*.bZZZZZ8...iZi#OO0ZvO9ZZCV",
"ZZZZZ<obZZZZZca<.iZaO5fsswO9ZZZZ",
"VZZZZ1OmZZZZZZZq.hZd#iZl:-O8ZZZV",
"VNZZZ<oramZZZZZ9.7s5$tZl:5ikZZZZ",
"ZZZZZ$.o$vZZZZZq.oOOOtZx:eZZZZZZ",
"dhfVZir-ObZZZZZq.oO5ysgt:eZNgggk",
"$OONZZZ5ObZZZZZq.o$fZg:::eZv:::,",
"r-%dkNZ4ObZZZcf<..oyCg::=eZv#:yf",
"Z,:#OnZ5$bZZZ7.....uZg:=#rZc 2NZ",
"Z,:-#mZ3#vZZZ8.<889ugw>#o3kr.2NV",
"N>:::NZ5#vZZZ9.kZZZi.o,# ....<ZV",
"mew>:gb:obZbz2.hZmc9 o-o $444uZC",
"ZZZ6:::#ObZ2..XhZu#o.....8ZZZCCM",
"ZZZ3-%-#ObZ4.%2db9$%122*.qZNvvvb",
"ZVZo...$#bZ4.zZtO#OsZZZk$qZz...%",
"VNC5<X.:3ln2Xin9$O#aZZZk%8ba.+*q",
"mZZZZ&.mZ5#$##OO$@@pZZZl>#...2CZ",
"MZZZZ*.km2o;131;@;3fZVmf>=%&&0ZC",
"VVVZZ%.....vZZZt@fZZZg:::wZZZZVN",
"ZZZZZ2%%%X.jmmm0#aNmmp;>,sZZZZZC",
"CZZZZZZCC8@##X o###o@@ qZZZZZZCZ",
"ZZCCZZZZZ8o@#X o@$#%;%$qZZZZZZMZ",
"BCVVZZZZZ2.........uVCCZZZZZZZCZ",
"zBZMNZCVC4+Xoo+XooouMZCVZZCCCCZV"
};
