/* XPM */
static char *result[] = {
/* columns rows colors chars-per-pixel */
"32 32 49 1 ",
"  c #BD0000",
". c #BF0000",
"X c #C00000",
"o c #C10000",
"O c #C20000",
"+ c #C30000",
"@ c #C40000",
"# c #C50000",
"$ c #C60000",
"% c #C70000",
"& c #C80000",
"* c #C90000",
"= c #CA0000",
"- c #CB0000",
"; c #CC0000",
": c #CD0000",
"> c #CE0000",
", c #CF0000",
"< c #D00000",
"1 c #D10000",
"2 c #D20000",
"3 c #D30000",
"4 c #D40000",
"5 c #D50000",
"6 c #D60000",
"7 c #D70000",
"8 c #D80000",
"9 c #D90000",
"0 c #DA0000",
"q c #DB0000",
"w c #DC0000",
"e c #DD0000",
"r c #DE0000",
"t c #DF0000",
"y c #E00000",
"u c #E10000",
"i c #E20000",
"p c #E30000",
"a c #E50000",
"s c #E80000",
"d c #EA0000",
"f c #E8C084",
"g c #E9C084",
"h c #E9C185",
"j c #EAC48C",
"k c #F5DFBE",
"l c #F4F3EC",
"z c #F5F3EC",
"x c #F6F3EC",
/* pixels */
"q>-**>,:;-=,4<;-;:23555466882<11",
"6*%@@=----=<71-=%&:>11;;34663211",
"1&$$%>,12<:,2>-:,><155>:<1677752",
"$#@%%147q73,=-;<9745ww>;--69ryq8",
"-%$**2444682::=:532377:;,,430e08",
"2&#=;46<-7p03,%=,>>>,<;-25,;6998",
"1&$;>221,5q5<:&=>,33<1,>35>=3677",
":;;24:=16<=*%%%*:,yr:>4279:%;:24",
":,,47>=<3>=*%*==<2tw:,2167;&;;12",
"1wead4;-=*@%$;78eee012;;>:::=&-=",
"1qeas3;:-=#$$;67rwwq22;;>::>*&=-",
"49q42>-142<491%&;;78q0>>wt63=#=:",
"59q2,:;<2326q2%&=;88ew>:wt73=#=>",
"7wt;##@&&,444231->0qiu*$:>>:;=,4",
"8wt;#@O%%>444342->0wiy*%;::::-<4",
"80w1:,,24>$%$-1<>,7654*&<3=#3931",
"80q2>2359>O+O*21>,5532**14*+6r51",
"5331<-*:1>;-=:2>#%1<@#1245=#3743",
"51<12*#-:>>:;><;O+1> X4567-$<343",
"&%%1645;$:2226w5--&*><66-&;,>:>,",
"+++1890;o;5549y0<>@$5666$O;2:--;",
"*+o;<472,1257673&&:>4577=$*=**,4",
"=o &-25773>5953,o@243499;&#@#$28",
";==,1457764603==%*24qq3211-&:,46",
",345654668779,.+;:15uy>;68<-4752",
"hhhhhhhhhhhhhhhhhhhhfghhhhhhhhhh",
"kkkkkkkkkkkkkkkkkkkkkkkkkkkkkkkk",
"zzzzzzzzzzzzzzxzzzzzzzzzzzzzzzzz",
"zzzzzzzzzzzzzzzzzzzzzzzzzzzzzzzz",
"zzlzzzzzzzzzzzzzzzzzzzzzzzzzzzzz",
"kkkkkkkkkkkkkkkkkkkkkkkkkkkkkkkk",
"jjjjjjjjjjjjjjjjjjjjjjjjjjjjjjjj"
};
