/* XPM */
static char *result[] = {
/* columns rows colors chars-per-pixel */
"32 32 41 1 ",
"  c #675333",
". c #6A5633",
"X c #6F5834",
"o c #755D36",
"O c #7A5E37",
"+ c #776036",
"@ c #796137",
"# c #7E6138",
"$ c #816637",
"% c #836937",
"& c #836439",
"* c #8A663B",
"= c #846938",
"- c #8B6B3A",
"; c #946B3D",
": c #9A6E3E",
"> c #8E7039",
", c #92703B",
"< c #9B723E",
"1 c #A2753F",
"2 c #AB733F",
"3 c #9E6F40",
"4 c #9E7140",
"5 c #A47341",
"6 c #AA7643",
"7 c #A57843",
"8 c #AE7A43",
"9 c #B57740",
"0 c #B47B45",
"q c #B97A43",
"w c #BC7F48",
"e c #C37E45",
"r c #BF8048",
"t c #C58146",
"y c #C5844B",
"u c #CE874C",
"i c #CD8B4E",
"p c #D0874D",
"a c #D1894D",
"s c #CA8C54",
"d c #CA925D",
/* pixels */
"uuaaaaaappaupuq9q2e2tuyyyyyyyyyy",
"aq2ee2qtappuiiuuqq2e2eeuuauaauii",
"pq22qe2tapuuiiupt2e2q2qauauuaiii",
"pyp;*22eqqu1-wauptupttuupuupuyyy",
"puu$$22qqqp;O0pppppuuuauuuuuuyyy",
"upuOX&*etyp*X&*0ppppuuuuuq:6auyi",
"pupX...qaup& ..6papauapua8@-auay",
"upp22X.euua05# &;2pq<::9u0+;uuau",
"uuuuuO.quusau*.  3u5@@+,uw+3uuuy",
"uuuaa$owupiiu95& 5u5@-517,+;uuiu",
"uuuas*@tuuauppp: 6p7@5ur-%+-uuuy",
"uuais#o:5tauppe* *5-o4u8-;58uuuu",
"uaaapo o@quu99e*.o@+@1ur>1uuuuuu",
"727uu1:$+wuu9q2*.o@*1181%<ut8000",
"@++yupp-+wuuuuq* o@<r2=>><ur--->",
";$#16yp*+wuuu0:O.Xo;r8>=%<ur@%<<",
"r>>@+ru*owipu*. . .:u0-$+<u0 &ye",
"2>=#@tu-@0ppu;.&***36,-$o%6:.&ae",
"t>-=-yi=+wppu-.6ppa5 +># ....Opu",
"i1<-%rr-owpw8& 5pe0-.o%@ o&**:pp",
"iua>---@owi&...7p4@X..   *pppuua",
"yau-==#@+wy* @*5w3@@&&&Oo;py9q0w",
"uuuo   +Owp*.0y3o++5ppp6o3e9.. O",
"yyy%#X.&*6w*.4r3+++7ppy:#&5:..&-",
"uyuuuO yu-@@@@++@@#1aat2-# ..Opp",
"yyyyyo 6r-o&***@@#-1uut2>#O$O*2e",
"yyyyyo...  wuuu3@7aau8>%>,22q22u",
"syyyy*oOoX 6yry;@5tyt1%->1appuuu",
"syyyyyyyp*O@+o o@@@++o.;uuuppppp",
"yyysssyyy*O++X o++@@%+o;pupupppp",
"eyysdsyyy&........ 4uuuuuuuuuupp",
"ssyssiiyy$o.oXXXXXX5uuuupuuupupp"
};
