/* XPM */
static char *result[] = {
/* columns rows colors chars-per-pixel */
"32 32 85 1 ",
"  c #7D462A",
". c #754D2E",
"X c #7C4A2C",
"o c #7F502E",
"O c #675333",
"+ c #6A5633",
"@ c #6E5934",
"# c #715130",
"$ c #7E5531",
"% c #745D36",
"& c #7B5D36",
"* c #776036",
"= c #796137",
"- c #7A6138",
"; c #BF1A0F",
": c #B91E12",
"> c #9B331F",
", c #AC2617",
"< c #A42D1B",
"1 c #AB2B19",
"2 c #B42214",
"3 c #BC2414",
"4 c #B32917",
"5 c #BE2C17",
"6 c #B22C19",
"7 c #BB2F19",
"8 c #A7361F",
"9 c #AC321D",
"0 c #B3341C",
"q c #BA3119",
"w c #B23D1F",
"e c #873F26",
"r c #8E3C24",
"t c #963620",
"y c #933A22",
"u c #9D3D23",
"i c #A23A21",
"p c #AF3E20",
"a c #C80000",
"s c #CF0E08",
"d c #D60000",
"f c #DC0000",
"g c #D60C07",
"h c #DA0A05",
"j c #D30E08",
"k c #C4160D",
"l c #CB130B",
"z c #C3190E",
"x c #C8180E",
"c c #D21109",
"v c #C31D10",
"b c #E30000",
"n c #C52513",
"m c #C82011",
"M c #C12915",
"N c #874127",
"B c #884026",
"V c #844428",
"C c #8A4629",
"Z c #854D2C",
"A c #8D4C2C",
"S c #934427",
"D c #9A4226",
"F c #934729",
"G c #92492A",
"H c #9F4928",
"J c #8A512E",
"K c #93562E",
"L c #835632",
"P c #825B33",
"I c #8B5A31",
"U c #955F31",
"Y c #A54625",
"T c #AA4423",
"R c #A64825",
"E c #A34C28",
"W c #816537",
"Q c #8C6735",
"! c #836937",
"~ c #8B6836",
"^ c #826738",
"/ c #846938",
"( c #896D38",
") c #916233",
"_ c #8E7039",
/* pixels */
"bbbbfdbdfbfbbfbbfdbbddbbbbbbddbb",
"bdbbbbbbbbbbbbbbbbbbbbbbbfdbbbbf",
"bbfbbbbbbbbbbbbbbbbbbbbbbbbbbbbd",
"bbbDGgbbbbb8Gxbbbbbbbbbbbbbbbbbb",
"bbbL-gbbbbbG-:bbbbbbbbbbbbbbbbbb",
"ffbZ%ryjbbby%Ctkbbbbbbbbbxu6bbbb",
"dfb+++OlbbbNO++2bbbbbbbbb3-Fbbbb",
"bbb:2.+lbbbz2N+B>kbviii3bn-Dbbfd",
"bbbbbV+lbbbbby+++1b9-%-Dbv-Dbbff",
"bbbbbZ%lbbbbbz,V+,b9-G60wH%Dbbbb",
"fbbbbJ%jbbbbbbb>+2b6-9bM(^%Fbbbf",
"bdbbbZ%u9gbbbbbt+S9F%8bM(K93bbbb",
"bbbbb.O%%xbbbbb>O%*%%8bn(Tbbbbbb",
"666fb,8L-xbbbbb>+%-A89qR(Rbgqqq3",
"%%&hbbbG-xbbbbb>O%-6b7(((Rbn((()",
"iW-03hbA*xbbbk2N+@%1b7((^Ybm-ITq",
"b)(--lbG-xbbbr+++++<b5(!*ubkONdb",
"b)(--cbA-kbbby+Vy>y<:u(!%C:8ONdf",
"h~((_gbG*kbbbt+:bbb1O*_-O++++Vbf",
"dTE~(5mJ-xblzB+2bcvt+%!%+.rrr<bb",
"bbb)(((-*xbB+++2b8-@+++++ybbbbfd",
"bbbUW^^%%xbr+XB6xD-oNNNX@tbhkkkl",
"bff.+++%%xbr+;b8--*6bbb3*ubz+++X",
"fdfyV+@ZGnlC@1lD%-*9bbb3-Fl2++V>",
"dbbbb +gbG---------9bbbn(WO++Nbb",
"dbbbbZO:sA%LAJZ&*LZ7bhc0(P ZX>bf",
"bdbbbX+++++kbbb8*4bbbq(((Ybbbbfd",
"fbbbbBX..#+2ggju-9ggg0!Q)wbbbbbb",
"bbbbbbbbbG--%%O%---*-%O>bbbbbbfb",
"bbfbbbbbbF%--@O%-%%%L$.>bbbbbbdb",
"dfffbbbbbB+++++++++1hbfbbbbbbbbb",
"adbddbbffr#########1dbbfbbbfbbbf"
};
