/* XPM */
static char *result[] = {
/* columns rows colors chars-per-pixel */
"32 32 74 1 ",
"  c #8D8E7B",
". c #979376",
"X c #9A9473",
"o c #959278",
"O c #AF9E66",
"+ c #AD9C6C",
"@ c #B19E66",
"# c #B19E6A",
"$ c #A49972",
"% c #A89970",
"& c #BDA465",
"* c #B4A169",
"= c #B8A169",
"- c #C69B5B",
"; c #C99E5E",
": c #C7A05F",
"> c #CAA05F",
", c #CA9F60",
"< c #C4A263",
"1 c #CDA363",
"2 c #CFA867",
"3 c #CFA768",
"4 c #CFA869",
"5 c #D1A666",
"6 c #D2AA65",
"7 c #D0A768",
"8 c #D3AB6B",
"9 c #D9AE6E",
"0 c #D6AE71",
"q c #DAAF71",
"w c #D7B070",
"e c #DBB274",
"r c #DEB67A",
"t c #E0B577",
"y c #E4BC7E",
"u c #7D8C95",
"i c #7A8B9F",
"p c #7E8EA2",
"a c #8F9284",
"s c #919283",
"d c #919489",
"f c #8294A7",
"g c #8596AB",
"h c #8699AB",
"j c #899BAE",
"k c #899AB1",
"l c #E9C387",
"z c #96B3CE",
"x c #99B6CD",
"c c #98B5D1",
"v c #9EBDD4",
"b c #B4DDEA",
"n c #B8DFEA",
"m c #B9E0EA",
"M c #B9FAE5",
"N c #B5F1EF",
"B c #BCF7EE",
"V c #B5FAEE",
"C c #BDFCEC",
"Z c #AFEEFD",
"A c #B2EEFC",
"S c #AFF0F9",
"D c #B5F3F5",
"F c #BBF4F4",
"G c #B2FAF1",
"H c #BEFAF4",
"J c #B4F3FD",
"K c #B9F4FF",
"L c #B5F8FB",
"P c #BCFAFE",
"I c #C2FEF6",
"U c #C4F5FF",
"Y c #C3FBFD",
"T c #CBFDFF",
/* pixels */
"w8559696666><@ohvmTTUUPJJKKKAAAA",
"985555898861#@.hvmTTUUUJJJAKKKKA",
"qe867389966>=#sjvnTTUUUKJKJKKAKA",
"et8631371;1><%dkvnTTUUYLLJKKAKKJ",
"qtq577741;>5<%djvnTUUUULJKKKKAKK",
"7q959q715>>><+dkvnUUUUYPJKKKKKKA",
"79999997677><+djvnUUUUYPLKKKKKJJ",
"7,6889eee983<+ahvnYBUUKLPKAKKJKK",
"5176800re0843+akvmIMBUAJLKKKKKKK",
"3,5,0rrrw0896+akvmIMFKAZJKKKPJJP",
"371;0rrre9897+sjvmYCFUAZJJKKKJKK",
"9e9700rly8898@pgvmYIIYKJLLPKKKPK",
"8rw28wrly80q8OigcmPITTPPPKJKKKKJ",
"88228werre046OufcbYYITPPPKKKKJKK",
"888280weere48@ gxbPIYUKLLLKJJKKJ",
"8w1:384,14887&XhxbPHFPJJLJKJKKJK",
"9q3,141-,8494&$gcnPFDKAALKJKJJJK",
"17,,14111,,58&$gxbANFKKPPKKJKKKK",
";,,,14143,,18=$gzbDDFULPPPJKJAAJ",
"1,14143;,3767@ogcbVFPPLSJJKJJASA",
"3;68783-,8407@.gcbVLKPDSJKKJASSS",
"715551;-,8486@ogcbVLPPDLJPKJJSAS",
"96;;;---;3477@XfzbVLPPDDJPPKDASS",
"986>1;,;,8731@XizbVLKYDJLKKKJAAA",
"997,,;;;186;7@XizbGDKPDAJPPJAAJA",
"994,33,,;55;7@XfzbGLYYDDJKPJJAZJ",
"7931487,----3OXizbLYTYNDJPPKJAJS",
"883,441,;5>11*XpzbPTTTDSKPPKJJSJ",
"::--,11<4rew1OXfxbPTTTDNAPPKJJAS",
":---,1338eew6OXixbPTTTFDKPPJJJJJ",
"--;:1470erre6@XfxbPTTTJPPKJJAZJJ",
"--;<44898ree2*XhxbYTTTAKPKJZZZJJ"
};
