/* XPM */
static char *result[] = {
/* columns rows colors chars-per-pixel */
"32 32 155 2 ",
"   c #898154",
".  c #8C8558",
"X  c #8F885B",
"o  c #948D5E",
"O  c #AF9D5C",
"+  c #B69A56",
"@  c #B79B58",
"#  c #B99E5A",
"$  c #BDA25E",
"%  c #8E8868",
"&  c #938C67",
"*  c #928D6B",
"=  c #979165",
"-  c #999267",
";  c #95906E",
":  c #9B9469",
">  c #9F986D",
",  c #868773",
"<  c #8C8B7C",
"1  c #978F77",
"2  c #918E7C",
"3  c #9C9373",
"4  c #B49F63",
"5  c #B5A061",
"6  c #BAA264",
"7  c #C99E5B",
"8  c #CBA05F",
"9  c #C1A662",
"0  c #CDA463",
"q  c #CFA867",
"w  c #C4A76A",
"e  c #CFA768",
"r  c #C6A96D",
"t  c #CCA969",
"y  c #D1A665",
"u  c #D1A668",
"i  c #D4AB6C",
"p  c #D9AD6D",
"a  c #DBB06F",
"s  c #D5AE70",
"d  c #DAAF71",
"f  c #D6B172",
"g  c #DCB274",
"h  c #DDB67A",
"j  c #E1B375",
"k  c #E2BA7E",
"l  c #7C8784",
"z  c #7B8889",
"x  c #728598",
"c  c #7D8C9A",
"v  c #7D8AA2",
"b  c #7B90A4",
"n  c #7E93AA",
"m  c #828B86",
"M  c #808D8A",
"N  c #8A9287",
"B  c #8F958E",
"V  c #94998F",
"C  c #859394",
"Z  c #8D9694",
"A  c #8A9A99",
"S  c #979C92",
"D  c #999C92",
"F  c #9CA293",
"G  c #808DA2",
"H  c #8095A0",
"J  c #8B95A3",
"K  c #8C9EA3",
"L  c #8194AC",
"P  c #859DAF",
"I  c #8497B0",
"U  c #8499B2",
"Y  c #889BB2",
"T  c #879EB8",
"R  c #8C9FB9",
"E  c #97A1A1",
"W  c #9BA4A7",
"Q  c #90A7A8",
"!  c #97B0AE",
"~  c #8BA5BE",
"^  c #92A6B4",
"/  c #95A9B6",
"(  c #96AAB8",
")  c #99AFBF",
"_  c #94B0B3",
"`  c #99B2BC",
"'  c #9CBFBD",
"]  c #E5BF85",
"[  c #E9C285",
"{  c #90A7C6",
"}  c #93AAC5",
"|  c #97ADCB",
" . c #9AB4C5",
".. c #9CBDC4",
"X. c #9BB6C9",
"o. c #9EBACA",
"O. c #9FBDDD",
"+. c #A2B5D2",
"@. c #A3BFD8",
"#. c #9FC1DB",
"$. c #A7CCC8",
"%. c #A2C2D4",
"&. c #A5C6D9",
"*. c #A4CAD8",
"=. c #AACED8",
"-. c #A6D5D8",
";. c #ABD5DD",
":. c #A5C4E1",
">. c #A8C6E3",
",. c #AECFE4",
"<. c #A1CBEF",
"1. c #ADCBEA",
"2. c #A6D4E5",
"3. c #ACD4E5",
"4. c #ACDBE4",
"5. c #AED2EE",
"6. c #A9DBED",
"7. c #B1D3E3",
"8. c #B3D0EE",
"9. c #ADCFF1",
"0. c #A7D0F4",
"q. c #B3DCF4",
"w. c #ADE3E3",
"e. c #AEE4EC",
"r. c #B1E9EB",
"t. c #BAE9EF",
"y. c #B9F8E7",
"u. c #B5F1EE",
"i. c #BAF7EC",
"p. c #B5FAEE",
"a. c #BCFBEC",
"s. c #AEE1F3",
"d. c #AFEFFD",
"f. c #BAE6F5",
"g. c #B3EBF3",
"h. c #BAEBF6",
"j. c #B9E6FB",
"k. c #B2EEFC",
"l. c #BCEBFC",
"z. c #AFF0F9",
"x. c #B5F3F5",
"c. c #BBF4F4",
"v. c #B2FAF1",
"b. c #BDFAF4",
"n. c #B5F3FD",
"m. c #BAF4FF",
"M. c #B5F9FB",
"N. c #BCFAFE",
"B. c #C0EFFC",
"V. c #C2FEF5",
"C. c #C4F4FE",
"Z. c #C9F7FD",
"A. c #C4FBFE",
"S. c #CAFDFE",
"D. c #D0FFFF",
/* pixels */
"n.n.n.z.z.n.d.z.z.x.d.z.z.h.k.m.m.m.n.m.m.m.m.m.n.n.N.M.n.n.2.#.",
"n.n.d.n.n.z.d.n.k.z.z.z.d.n.m.m.n.m.n.m.m.m.m.m.m.n.N.m.n.6.X...",
"k.k.n.n.n.k.k.n.d.k.k.n.z.n.n.n.n.m.m.m.N.Z.C.N.n.m.N.m.g.%...` ",
"d.k.n.n.n.n.n.n.n.n.n.n.n.n.n.m.m.n.m.m.N.S.S.S.c.x.n.N.%.o. .2.",
"k.k.m.m.n.m.n.m.n.m.n.n.n.m.n.m.k.m.m.m.m.A.A.A.x.g.g.%.o. .3.n.",
"n.n.N.N.m.N.m.m.m.m.m.m.m.n.m.n.m.m.n.m.m.m.m.A.u.e.%.%./ 4.n.n.",
"n.m.N.N.N.N.N.m.m.N.N.M.m.m.n.m.n.m.n.M.n.n.N.C.r. .%.` 4.n.n.k.",
"A.N.n.n.m.n.n.n.n.M.n.n.n.N.M.M.M.M.N.N.M.n.N.N.%.X./ ;.N.n.n.k.",
"N.C.g.x.g.x.x.x.n.x.z.x.M.M.M.n.n.n.N.N.n.z.m.*. .` -.m.N.m.k.k.",
"N.m.N.x.x.x.x.x.x.c.x.x.x.m.m.k.k.m.A.N.n.s.) n ! -.M.m.N.n.n.n.",
"S.A.Z.S.S.A.N.N.C.N.N.N.N.C.l.m.N.Z.Z.Z.3.X.P Q w.M.n.N.m.m.n.k.",
"S.S.S.S.S.S.A.N.N.N.N.N.C.c.x.c.c.A.V.-.X.b _ g.x.x.M.n.m.n.k.k.",
"D.D.Z.S.S.N.M.z.x.x.c.c.c.x.u.x.c.b.=.` A ' p.b.M.z.n.m.m.n.n.k.",
"S.Z.A.A.A.M.v.v.p.v.v.p.p.x.l.N.m.;.K z $.A.b.b.M.n.n.m.m.n.n.k.",
"h.c.h.n.n.m.n.n.n.n.m.m.m.l.m.h.Q l A t.A.S.S.Z.N.m.M.N.m.n.n.n.",
"&.&.&.&.&.%.<.0.0.5.9.1.1.&.5.^ M A 5.q.q.f.h.l.m.M.N.n.l.m.n.n.",
"{ T U T U n n I Y L Y L L c c z A @.j.l.n.u.h.l.n.M.M.n.m.n.n.m.",
"x x x x S F F S V V D D D B C m ^ >.l.A.N.c.B.N.k.x.M.m.n.m.n.m.",
", , , 1 1 3 3 3 < < 2 2 2 1 - N ~ :.j.A.b.b.N.C.n.n.M.n.m.n.m.n.",
"O O 5 5 6 6 6 6 6 w r r w @ o m Y O.j.A.b.V.Z.A.m.M.N.n.m.m.n.m.",
"f r t t e i s g k j g s p + . l Y O.j.A.A.V.S.A.N.N.N.m.n.n.m.m.",
"f f h f i i s h ] ] i i j +   m R &.l.A.V.V.S.A.N.M.M.n.m.m.m.n.",
"g s g i e i f h [ k s i j + X Z } 1.B.S.V.b.V.N.n.n.M.m.m.n.m.m.",
"s 0 0 0 0 s h h h h i i p # - E +.8.B.S.V.a.N.l.d.d.n.m.m.m.m.m.",
"i 0 0 0 8 s h h h g i i a $ > W +.8.Z.A.a.y.c.l.k.d.M.n.m.m.m.N.",
"i e 0 e u i p d h g s s g # : W +.1.C.A.a.y.B.m.n.n.N.m.m.m.m.n.",
"i e 0 i i i p a g g p i a # & J | 8.l.A.V.b.C.N.N.M.N.m.m.n.m.n.",
"0 i i i i p p p y y y y y # & c { ,.l.Z.C.C.C.C.A.N.n.n.m.m.m.m.",
"0 i d i i p d i 0 8 0 y y @ & G } ,.B.A.C.C.C.Z.A.M.n.m.m.m.m.n.",
"i d g p i u u u e e 7 8 p # * G } 3.C.S.A.Z.C.C.N.M.n.m.l.n.m.m.",
"s g j i u 0 0 e i y 7 7 d 9 * G ( 7.Z.S.S.Z.C.Z.N.n.n.m.m.m.k.m.",
"i d p i u e e i s i u y p 9 * c ~ 7.Z.D.Z.Z.C.C.N.M.n.m.k.n.l.m."
};
