/* XPM */
static char *result[] = {
/* columns rows colors chars-per-pixel */
"32 32 155 2 ",
"   c #898154",
".  c #8C8558",
"X  c #8F885B",
"o  c #948D5E",
"O  c #AF9D5C",
"+  c #B69A56",
"@  c #B79B58",
"#  c #B99E5A",
"$  c #BDA25E",
"%  c #8E8868",
"&  c #938C67",
"*  c #928D6B",
"=  c #979165",
"-  c #999267",
";  c #95906E",
":  c #9B9469",
">  c #9F986D",
",  c #868773",
"<  c #8C8B7C",
"1  c #978F77",
"2  c #918E7C",
"3  c #9C9373",
"4  c #B49F63",
"5  c #B5A061",
"6  c #BAA264",
"7  c #C99E5B",
"8  c #CBA05F",
"9  c #C1A662",
"0  c #CDA463",
"q  c #CFA867",
"w  c #C4A76A",
"e  c #CFA768",
"r  c #C6A96D",
"t  c #CCA969",
"y  c #D1A665",
"u  c #D1A668",
"i  c #D4AB6C",
"p  c #D9AD6D",
"a  c #DBB06F",
"s  c #D5AE70",
"d  c #DAAF71",
"f  c #D6B172",
"g  c #DCB274",
"h  c #DDB67A",
"j  c #E1B375",
"k  c #E2BA7E",
"l  c #7C8784",
"z  c #7B8889",
"x  c #728598",
"c  c #7D8C9A",
"v  c #7D8AA2",
"b  c #7B90A4",
"n  c #7E93AA",
"m  c #828B86",
"M  c #808D8A",
"N  c #8A9287",
"B  c #8F958E",
"V  c #94998F",
"C  c #859394",
"Z  c #8D9694",
"A  c #8A9A99",
"S  c #979C92",
"D  c #999C92",
"F  c #9CA293",
"G  c #808DA2",
"H  c #8095A0",
"J  c #8B95A3",
"K  c #8C9EA3",
"L  c #8194AC",
"P  c #859DAF",
"I  c #8497B0",
"U  c #8499B2",
"Y  c #889BB2",
"T  c #879EB8",
"R  c #8C9FB9",
"E  c #97A1A1",
"W  c #9BA4A7",
"Q  c #90A7A8",
"!  c #97B0AE",
"~  c #8BA5BE",
"^  c #92A6B4",
"/  c #95A9B6",
"(  c #96AAB8",
")  c #99AFBF",
"_  c #94B0B3",
"`  c #99B2BC",
"'  c #9CBFBD",
"]  c #E5BF85",
"[  c #E9C285",
"{  c #90A7C6",
"}  c #93AAC5",
"|  c #97ADCB",
" . c #9AB4C5",
".. c #9CBDC4",
"X. c #9BB6C9",
"o. c #9EBACA",
"O. c #9FBDDD",
"+. c #A2B5D2",
"@. c #A3BFD8",
"#. c #9FC1DB",
"$. c #A7CCC8",
"%. c #A2C2D4",
"&. c #A5C6D9",
"*. c #A4CAD8",
"=. c #AACED8",
"-. c #A6D5D8",
";. c #ABD5DD",
":. c #A5C4E1",
">. c #A8C6E3",
",. c #AECFE4",
"<. c #A1CBEF",
"1. c #ADCBEA",
"2. c #A6D4E5",
"3. c #ACD4E5",
"4. c #ACDBE4",
"5. c #AED2EE",
"6. c #A9DBED",
"7. c #B1D3E3",
"8. c #B3D0EE",
"9. c #ADCFF1",
"0. c #A7D0F4",
"q. c #B3DCF4",
"w. c #ADE3E3",
"e. c #AEE4EC",
"r. c #B1E9EB",
"t. c #BAE9EF",
"y. c #B9F8E7",
"u. c #B5F1EE",
"i. c #BAF7EC",
"p. c #B5FAEE",
"a. c #BCFBEC",
"s. c #AEE1F3",
"d. c #AFEFFD",
"f. c #BAE6F5",
"g. c #B3EBF3",
"h. c #BAEBF6",
"j. c #B9E6FB",
"k. c #B2EEFC",
"l. c #BCEBFC",
"z. c #AFF0F9",
"x. c #B5F3F5",
"c. c #BBF4F4",
"v. c #B2FAF1",
"b. c #BDFAF4",
"n. c #B5F3FD",
"m. c #BAF4FF",
"M. c #B5F9FB",
"N. c #BCFAFE",
"B. c #C0EFFC",
"V. c #C2FEF5",
"C. c #C4F4FE",
"Z. c #C9F7FD",
"A. c #C4FBFE",
"S. c #CAFDFE",
"D. c #D0FFFF",
/* pixels */
"&.2.d.n.n.N.n.n.m.m.m.m.m.n.m.n.m.m.n.d.z.d.g.d.z.n.z.n.z.n.n.x.",
".. .6.n.n.N.n.m.m.m.m.m.m.m.m.n.n.m.n.z.z.z.z.n.z.d.n.k.n.d.n.n.",
" ...%.g.m.N.N.n.m.A.S.m.m.m.n.m.n.n.n.k.k.k.k.k.n.z.k.n.k.n.d.d.",
"2.) o.%.N.n.x.c.S.S.S.N.n.m.m.n.m.n.n.k.n.n.n.n.n.n.n.n.n.n.k.d.",
"n.4.` %.%.g.g.x.Z.A.A.m.n.m.m.m.n.m.m.n.n.n.m.n.m.m.m.m.n.m.n.k.",
"n.n.4.( %.%.e.x.A.m.m.m.m.m.n.n.m.l.n.n.m.m.N.m.m.m.m.N.N.m.n.n.",
"k.n.m.;.` %. .r.N.m.m.M.m.n.N.n.n.M.m.N.m.m.m.N.N.m.N.m.N.N.m.n.",
"k.n.m.m.;./ X.%.N.N.n.M.N.N.M.x.M.N.N.n.n.M.M.n.n.n.n.n.n.M.A.N.",
"n.n.n.m.m.-.`  .*.M.k.n.N.N.M.n.n.M.M.n.x.z.x.x.x.x.x.g.x.x.m.C.",
"d.n.n.m.N.n.-.! n } s.m.m.A.m.k.k.m.m.x.M.x.x.c.x.x.x.c.u.N.m.m.",
"k.n.m.m.N.M.z.w.Q P X.3.C.A.A.C.l.m.C.N.N.N.N.N.N.A.A.Z.S.Z.A.S.",
"n.n.n.m.n.M.M.x.u._ b  .=.V.A.c.c.c.c.N.N.m.m.M.N.A.S.S.S.S.D.S.",
"g.n.n.m.m.n.x.x.b.i.' A ` *.b.c.c.t.u.c.c.c.M.M.M.M.b.S.S.S.S.S.",
"d.n.n.m.m.n.x.m.b.V.A.$.z K ;.b.n.n.x.p.p.v.p.p.v.v.m.A.A.A.S.S.",
"n.n.n.m.m.N.M.m.A.S.S.A.h.A l / l.l.m.n.m.n.n.n.n.z.m.n.n.l.m.h.",
"n.n.n.m.n.N.N.m.l.h.f.q.q.5.A z / 8.&.1.9.1.9.9.0.<.&.&.&.&.%.%.",
"m.n.m.n.n.M.M.k.m.h.u.x.l.j.@.C z c c H I I I I L L n U U U ~ { ",
"n.m.n.m.n.M.x.k.l.c.c.N.A.l.>./ M C B D D D V V F F F S x x x x ",
"m.k.m.n.m.M.M.n.C.A.b.N.A.j.:.~ N - 1 2 < 2 < < 3 3 3 3 1 , , , ",
"m.m.n.m.n.N.M.m.A.A.V.A.A.j.@.I m o # w r r r 6 6 6 6 6 4 4 O O ",
"m.m.m.n.m.N.N.N.A.S.V.V.A.l.O.U l . + i i f h h g s i e w t t f ",
"m.n.n.m.m.M.M.N.A.S.V.V.A.l.:.R m   + j i p [ [ h s i i i h f h ",
"m.m.m.m.m.M.z.l.m.A.V.V.A.B.1.} Z o + j i s k ] h f i u i f i h ",
"m.m.m.m.n.n.d.k.m.b.a.b.S.C.8.+.E - @ p i i h h h h i 0 0 0 0 s ",
"m.n.m.m.m.M.z.d.l.c.a.a.A.C.8.+.W > 8 a i i g h h h i 8 y 0 0 i ",
"m.m.m.m.m.N.n.n.m.b.y.a.A.C.8.+.W - # a i f g h f d i i y 8 e i ",
"m.m.m.m.m.M.N.N.C.C.c.b.A.B.,.| J & # a p i g g g p i i i 0 e i ",
"n.m.m.n.m.M.M.A.C.C.C.C.A.B.,.{ v % # y y y y y i p p p i i u e ",
"m.m.n.m.m.n.M.N.C.C.C.C.Z.B.,.{ v & + 0 0 0 0 0 i d p i i p i 0 ",
"n.n.l.m.m.n.M.A.C.C.C.S.S.Z.,.{ H * # i 7 0 y e u e i i i j d i ",
"m.m.n.m.m.M.M.N.C.C.Z.S.S.Z.7.( G * 9 j 7 7 e u 0 0 y u i j g s ",
"m.k.l.m.m.n.n.m.C.C.Z.S.D.Z.7.~ c ; 9 i e i i s i e u y i f s i "
};
