/* XPM */
static char *result[] = {
/* columns rows colors chars-per-pixel */
"32 32 74 1 ",
"  c #8D8E7B",
". c #979376",
"X c #9A9473",
"o c #959278",
"O c #AF9E66",
"+ c #AD9C6C",
"@ c #B19E66",
"# c #B19E6A",
"$ c #A49972",
"% c #A89970",
"& c #BDA465",
"* c #B4A169",
"= c #B8A169",
"- c #C69B5B",
"; c #C99E5E",
": c #C7A05F",
"> c #CAA05F",
", c #CA9F60",
"< c #C4A263",
"1 c #CDA363",
"2 c #CFA867",
"3 c #CFA768",
"4 c #CFA869",
"5 c #D1A666",
"6 c #D2AA65",
"7 c #D0A768",
"8 c #D3AB6B",
"9 c #D9AE6E",
"0 c #D6AE71",
"q c #DAAF71",
"w c #D7B070",
"e c #DBB274",
"r c #DEB67A",
"t c #E0B577",
"y c #E4BC7E",
"u c #7D8C95",
"i c #7A8B9F",
"p c #7E8EA2",
"a c #8F9284",
"s c #919283",
"d c #919489",
"f c #8294A7",
"g c #8596AB",
"h c #8699AB",
"j c #899BAE",
"k c #899AB1",
"l c #E9C387",
"z c #96B3CE",
"x c #99B6CD",
"c c #98B5D1",
"v c #9EBDD4",
"b c #B4DDEA",
"n c #B8DFEA",
"m c #B9E0EA",
"M c #B9FAE5",
"N c #B5F1EF",
"B c #BCF7EE",
"V c #B5FAEE",
"C c #BDFCEC",
"Z c #AFEEFD",
"A c #B2EEFC",
"S c #AFF0F9",
"D c #B5F3F5",
"F c #BBF4F4",
"G c #B2FAF1",
"H c #BEFAF4",
"J c #B4F3FD",
"K c #B9F4FF",
"L c #B5F8FB",
"P c #BCFAFE",
"I c #C2FEF6",
"U c #C4F5FF",
"Y c #C3FBFD",
"T c #CBFDFF",
/* pixels */
"JJJSSZSJSASSSAKJJKKKKPJKJJJJJJAJ",
"JJZJJJSZSSSSSJKKKKKKKKKKJKJJJJAJ",
"AAJJAJJAZAAJAJKJJKKAPJKJKJKKKJKK",
"ZAJJJJJJJJJJAJJKKKKKKKKPKKKJKKAK",
"AJKKJKJKJJKJJKJJAKJKPKKKKKKKAKKA",
"JKPKPKKPPKKKKJKJKKJJKKKJKKKJKKKK",
"JPPPPPPKJPJPKKPJJKKPKPJPKKKKKKAU",
"PPJJKJJJLPJJLPPLJLPPPSLLPJJDJJAA",
"JKDNDDDDJDSSJLPJJPPPJAAJPPPPJJJP",
"JKFDDDDDDDDLDKJAAKPKKAAAKPUUPYUK",
"TYTTTYPPPYPPUUKKKUTTUKKUUUUUUUUU",
"TTTTTTYPKPPPKFNFHYITIFBBHUUUUUUU",
"TTTTYPSLLLLPDDNFFIIIIIMMIUUUTTTT",
"YYHYHPGGVVVGVDKKYPYYYYIIIUUTTTTT",
"bbbbbbbbbbbbbbbbbmmbnnnnbbnnmmnU",
"xxxxxzzzzzzzxxxcxzzvvvvvvxvvvvxx",
"ggppfippffggghhhghgghkkkhkkkjjhh",
"XXXXXXXXXooooX$$X upiaasaddddso.",
"##OOOO@@@@@@#&=&&@OO@+%++++$+OO#",
"226151555177788166659681<<<<===*",
"erww;-;;17807,70833099065;;11>1>",
"eree1-5555787,578e00988666111566",
"erre1-5883783,,44re08880951;;686",
"ww96,-,1<,,,11<,1eryyeeet6>55896",
"8w31,,,,;---;51,,erllrrtt5157088",
"8811111<;;;111314eerrrre99875886",
"8411381,;;57314840000rr099951378",
"41<;333,;;5751114488908999967568",
"<:--111,;;585;,<<13671,779955555",
">---137355555;513340051579989866",
"--;;8800865,;13ww89ee15,,99ttq88",
"--;<688999711;18888w91157789tq8e"
};
