/* XPM */
static char *result[] = {
/* columns rows colors chars-per-pixel */
"32 32 155 2 ",
"   c #898154",
".  c #8C8558",
"X  c #8F885B",
"o  c #948D5E",
"O  c #AF9D5C",
"+  c #B69A56",
"@  c #B79B58",
"#  c #B99E5A",
"$  c #BDA25E",
"%  c #8E8868",
"&  c #938C67",
"*  c #928D6B",
"=  c #979165",
"-  c #999267",
";  c #95906E",
":  c #9B9469",
">  c #9F986D",
",  c #868773",
"<  c #8C8B7C",
"1  c #978F77",
"2  c #918E7C",
"3  c #9C9373",
"4  c #B49F63",
"5  c #B5A061",
"6  c #BAA264",
"7  c #C99E5B",
"8  c #CBA05F",
"9  c #C1A662",
"0  c #CDA463",
"q  c #CFA867",
"w  c #C4A76A",
"e  c #CFA768",
"r  c #C6A96D",
"t  c #CCA969",
"y  c #D1A665",
"u  c #D1A668",
"i  c #D4AB6C",
"p  c #D9AD6D",
"a  c #DBB06F",
"s  c #D5AE70",
"d  c #DAAF71",
"f  c #D6B172",
"g  c #DCB274",
"h  c #DDB67A",
"j  c #E1B375",
"k  c #E2BA7E",
"l  c #7C8784",
"z  c #7B8889",
"x  c #728598",
"c  c #7D8C9A",
"v  c #7D8AA2",
"b  c #7B90A4",
"n  c #7E93AA",
"m  c #828B86",
"M  c #808D8A",
"N  c #8A9287",
"B  c #8F958E",
"V  c #94998F",
"C  c #859394",
"Z  c #8D9694",
"A  c #8A9A99",
"S  c #979C92",
"D  c #999C92",
"F  c #9CA293",
"G  c #808DA2",
"H  c #8095A0",
"J  c #8B95A3",
"K  c #8C9EA3",
"L  c #8194AC",
"P  c #859DAF",
"I  c #8497B0",
"U  c #8499B2",
"Y  c #889BB2",
"T  c #879EB8",
"R  c #8C9FB9",
"E  c #97A1A1",
"W  c #9BA4A7",
"Q  c #90A7A8",
"!  c #97B0AE",
"~  c #8BA5BE",
"^  c #92A6B4",
"/  c #95A9B6",
"(  c #96AAB8",
")  c #99AFBF",
"_  c #94B0B3",
"`  c #99B2BC",
"'  c #9CBFBD",
"]  c #E5BF85",
"[  c #E9C285",
"{  c #90A7C6",
"}  c #93AAC5",
"|  c #97ADCB",
" . c #9AB4C5",
".. c #9CBDC4",
"X. c #9BB6C9",
"o. c #9EBACA",
"O. c #9FBDDD",
"+. c #A2B5D2",
"@. c #A3BFD8",
"#. c #9FC1DB",
"$. c #A7CCC8",
"%. c #A2C2D4",
"&. c #A5C6D9",
"*. c #A4CAD8",
"=. c #AACED8",
"-. c #A6D5D8",
";. c #ABD5DD",
":. c #A5C4E1",
">. c #A8C6E3",
",. c #AECFE4",
"<. c #A1CBEF",
"1. c #ADCBEA",
"2. c #A6D4E5",
"3. c #ACD4E5",
"4. c #ACDBE4",
"5. c #AED2EE",
"6. c #A9DBED",
"7. c #B1D3E3",
"8. c #B3D0EE",
"9. c #ADCFF1",
"0. c #A7D0F4",
"q. c #B3DCF4",
"w. c #ADE3E3",
"e. c #AEE4EC",
"r. c #B1E9EB",
"t. c #BAE9EF",
"y. c #B9F8E7",
"u. c #B5F1EE",
"i. c #BAF7EC",
"p. c #B5FAEE",
"a. c #BCFBEC",
"s. c #AEE1F3",
"d. c #AFEFFD",
"f. c #BAE6F5",
"g. c #B3EBF3",
"h. c #BAEBF6",
"j. c #B9E6FB",
"k. c #B2EEFC",
"l. c #BCEBFC",
"z. c #AFF0F9",
"x. c #B5F3F5",
"c. c #BBF4F4",
"v. c #B2FAF1",
"b. c #BDFAF4",
"n. c #B5F3FD",
"m. c #BAF4FF",
"M. c #B5F9FB",
"N. c #BCFAFE",
"B. c #C0EFFC",
"V. c #C2FEF5",
"C. c #C4F4FE",
"Z. c #C9F7FD",
"A. c #C4FBFE",
"S. c #CAFDFE",
"D. c #D0FFFF",
/* pixels */
"i f d i y u e u i i u u a 9 ; c ~ 7.Z.D.S.S.C.C.m.M.n.n.m.m.n.m.",
"s g j i y y 0 e q y 8 8 g 6 ; c } 7.Z.S.S.C.C.C.m.M.n.m.l.n.l.n.",
"s f j p u i t u q y 8 8 p 8 & v } 7.Z.S.S.C.C.C.A.M.n.m.l.m.n.m.",
"0 u d i p d f i 0 0 0 8 0 + % c { =.B.A.C.C.C.C.N.N.M.m.n.m.n.m.",
"y u d i i p p p q q y y y + % v { ,.B.C.C.C.C.C.N.N.n.m.m.m.k.m.",
"i e 0 u i i p p h g p i j # & J | ,.l.A.b.c.C.C.N.N.N.m.m.m.m.m.",
"i e 8 u i i p d h g p i p # > W +.8.C.A.a.y.V.m.n.M.N.n.m.m.m.m.",
"i 0 0 y 8 i h h h g i p p $ 3 W +.8.C.S.a.a.c.l.k.z.M.m.m.n.m.m.",
"s 0 0 0 0 i h h h g t i p # : F +.8.m.S.V.a.C.l.d.d.n.M.m.m.m.n.",
"g i f i u i g h ] ] s s g + X Z } 1.B.S.V.b.V.m.k.n.M.m.m.m.m.N.",
"h f h s i i s h [ [ i i j +   m R :.l.A.V.V.V.A.m.N.N.n.n.m.n.m.",
"f t t t e i s g k h f s i @ . l U @.l.A.A.V.S.A.m.N.N.M.m.m.n.m.",
"O 4 5 5 6 6 6 6 6 w r r w # o m U O.j.A.A.b.S.A.m.M.N.m.m.m.m.n.",
", , , 1 3 3 3 V < < 2 2 2 1 - N ^ :.j.A.b.V.N.C.n.n.M.n.n.n.n.m.",
"x x x x F F F F S V S D D B M z ^ >.l.C.N.c.c.m.k.z.M.m.m.n.m.n.",
"{ U n T n n n n I I L U L G C z C @.j.m.x.u.l.l.n.M.M.m.k.m.n.m.",
"&.&.&.&.&.#.<.0.9.1.9.9.1.>.8./ M A 5.q.q.f.l.l.l.N.N.m.n.m.n.m.",
"h.c.h.x.m.M.n.n.n.m.m.n.m.m.l.h.^ l A f.A.S.A.A.m.N.M.M.m.n.k.n.",
"S.S.A.C.N.M.v.v.v.v.v.a.p.x.x.m.b.3.K M $.N.V.b.M.n.z.m.m.n.n.k.",
"S.S.S.S.S.N.M.x.M.x.x.c.c.u.r.x.c.b.=._ A ' a.b.c.n.M.m.m.n.n.k.",
"S.D.S.S.S.S.A.N.N.m.b.m.m.b.h.c.b.C.A.=. .b _ u.x.z.N.m.m.n.n.k.",
"S.A.S.S.S.S.N.m.N.N.N.A.N.m.C.m.m.A.A.A.7.X.P Q w.M.n.m.m.m.n.k.",
"C.m.m.h.x.x.x.x.x.x.x.M.x.N.n.k.k.m.m.A.m.s.} n ! -.n.N.m.n.n.k.",
"m.b.x.x.g.x.x.x.x.z.x.n.z.N.m.M.n.m.N.N.n.z.n.*. .` -.m.N.n.n.k.",
"N.A.n.M.n.m.n.n.M.n.n.n.M.N.N.M.M.N.N.N.N.n.m.N.%.X.^ -.N.m.k.k.",
"n.m.m.N.m.N.m.N.m.m.N.m.N.n.n.m.n.n.M.m.n.m.m.C.r. .%.` 4.b.n.n.",
"n.n.m.N.m.N.m.m.m.N.m.m.m.n.m.n.n.n.n.m.N.m.m.A.x.e.%.%./ 4.n.n.",
"n.n.n.m.m.m.m.m.m.n.n.n.n.n.n.m.n.m.m.m.m.N.A.A.u.x.g.#.o. .4.k.",
"d.k.n.n.n.n.n.n.n.n.k.n.n.k.n.m.m.m.n.m.A.S.S.S.c.x.n.N.%.o.) 2.",
"k.d.n.k.n.n.n.k.k.d.g.z.k.k.m.n.n.m.m.N.m.A.A.m.n.m.N.N.g.@... .",
"n.n.z.n.n.n.d.d.n.z.d.k.k.n.n.m.n.m.n.m.m.m.m.m.m.n.N.M.n.6. ...",
"n.n.n.z.z.z.z.n.z.d.x.z.g.n.m.m.n.m.n.m.m.m.m.m.n.n.N.n.n.k.2.%."
};
