/* XPM */
static char *result[] = {
/* columns rows colors chars-per-pixel */
"32 32 155 2 ",
"   c #898154",
".  c #8C8558",
"X  c #8F885B",
"o  c #948D5E",
"O  c #AF9D5C",
"+  c #B69A56",
"@  c #B79B58",
"#  c #B99E5A",
"$  c #BDA25E",
"%  c #8E8868",
"&  c #938C67",
"*  c #928D6B",
"=  c #979165",
"-  c #999267",
";  c #95906E",
":  c #9B9469",
">  c #9F986D",
",  c #868773",
"<  c #8C8B7C",
"1  c #978F77",
"2  c #918E7C",
"3  c #9C9373",
"4  c #B49F63",
"5  c #B5A061",
"6  c #BAA264",
"7  c #C99E5B",
"8  c #CBA05F",
"9  c #C1A662",
"0  c #CDA463",
"q  c #CFA867",
"w  c #C4A76A",
"e  c #CFA768",
"r  c #C6A96D",
"t  c #CCA969",
"y  c #D1A665",
"u  c #D1A668",
"i  c #D4AB6C",
"p  c #D9AD6D",
"a  c #DBB06F",
"s  c #D5AE70",
"d  c #DAAF71",
"f  c #D6B172",
"g  c #DCB274",
"h  c #DDB67A",
"j  c #E1B375",
"k  c #E2BA7E",
"l  c #7C8784",
"z  c #7B8889",
"x  c #728598",
"c  c #7D8C9A",
"v  c #7D8AA2",
"b  c #7B90A4",
"n  c #7E93AA",
"m  c #828B86",
"M  c #808D8A",
"N  c #8A9287",
"B  c #8F958E",
"V  c #94998F",
"C  c #859394",
"Z  c #8D9694",
"A  c #8A9A99",
"S  c #979C92",
"D  c #999C92",
"F  c #9CA293",
"G  c #808DA2",
"H  c #8095A0",
"J  c #8B95A3",
"K  c #8C9EA3",
"L  c #8194AC",
"P  c #859DAF",
"I  c #8497B0",
"U  c #8499B2",
"Y  c #889BB2",
"T  c #879EB8",
"R  c #8C9FB9",
"E  c #97A1A1",
"W  c #9BA4A7",
"Q  c #90A7A8",
"!  c #97B0AE",
"~  c #8BA5BE",
"^  c #92A6B4",
"/  c #95A9B6",
"(  c #96AAB8",
")  c #99AFBF",
"_  c #94B0B3",
"`  c #99B2BC",
"'  c #9CBFBD",
"]  c #E5BF85",
"[  c #E9C285",
"{  c #90A7C6",
"}  c #93AAC5",
"|  c #97ADCB",
" . c #9AB4C5",
".. c #9CBDC4",
"X. c #9BB6C9",
"o. c #9EBACA",
"O. c #9FBDDD",
"+. c #A2B5D2",
"@. c #A3BFD8",
"#. c #9FC1DB",
"$. c #A7CCC8",
"%. c #A2C2D4",
"&. c #A5C6D9",
"*. c #A4CAD8",
"=. c #AACED8",
"-. c #A6D5D8",
";. c #ABD5DD",
":. c #A5C4E1",
">. c #A8C6E3",
",. c #AECFE4",
"<. c #A1CBEF",
"1. c #ADCBEA",
"2. c #A6D4E5",
"3. c #ACD4E5",
"4. c #ACDBE4",
"5. c #AED2EE",
"6. c #A9DBED",
"7. c #B1D3E3",
"8. c #B3D0EE",
"9. c #ADCFF1",
"0. c #A7D0F4",
"q. c #B3DCF4",
"w. c #ADE3E3",
"e. c #AEE4EC",
"r. c #B1E9EB",
"t. c #BAE9EF",
"y. c #B9F8E7",
"u. c #B5F1EE",
"i. c #BAF7EC",
"p. c #B5FAEE",
"a. c #BCFBEC",
"s. c #AEE1F3",
"d. c #AFEFFD",
"f. c #BAE6F5",
"g. c #B3EBF3",
"h. c #BAEBF6",
"j. c #B9E6FB",
"k. c #B2EEFC",
"l. c #BCEBFC",
"z. c #AFF0F9",
"x. c #B5F3F5",
"c. c #BBF4F4",
"v. c #B2FAF1",
"b. c #BDFAF4",
"n. c #B5F3FD",
"m. c #BAF4FF",
"M. c #B5F9FB",
"N. c #BCFAFE",
"B. c #C0EFFC",
"V. c #C2FEF5",
"C. c #C4F4FE",
"Z. c #C9F7FD",
"A. c #C4FBFE",
"S. c #CAFDFE",
"D. c #D0FFFF",
/* pixels */
"n.m.m.l.n.n.M.N.C.C.S.S.D.Z.7.~ c ; 9 p y i i i i t u y i p d p ",
"n.m.n.m.m.n.n.N.C.C.C.S.S.Z.7.} c & 9 d 8 8 0 i 0 0 u u p j f s ",
"m.m.n.l.m.n.M.N.C.C.C.S.S.C.,.{ G * # p 8 8 q q t t i u i g f s ",
"l.n.m.m.m.n.M.A.C.C.C.C.S.B.,.} G & @ 8 8 0 8 0 p d i i p d i 0 ",
"n.n.m.m.m.n.M.A.C.C.C.C.C.B.,.{ G % @ y y y q y p p p i i p u u ",
"m.m.m.m.m.N.M.N.C.A.c.c.A.B.,.| J & # d p p g h p p i u u 0 e i ",
"m.m.n.m.n.N.M.n.C.c.y.a.A.C.8.+.W : # d i p g h g p i i q 8 e i ",
"m.m.m.N.m.n.n.k.m.c.y.a.A.C.8.+.W > 7 d i i g h h h i 0 0 0 0 i ",
"m.m.m.m.m.n.z.d.m.c.a.V.S.C.8.+.E - # p i i h h h k i 0 0 0 0 s ",
"m.n.m.m.m.M.z.n.m.A.V.V.A.B.1.} Z X @ g i i ] ] h d p e i s s f ",
"n.m.n.m.n.N.m.N.A.V.V.V.A.l.:.R m   + g i i ] [ h s s i s h f h ",
"m.m.n.m.M.N.N.N.S.S.V.A.A.j.O.U l . + p s f h k f s i u t t e s ",
"m.n.m.n.m.N.M.m.A.A.V.A.A.j.@.U m o # 0 w r w 6 6 6 6 6 5 5 4 O ",
"n.m.n.m.n.M.n.n.m.A.V.N.A.j.:.^ N = 1 2 2 2 < < 3 3 3 3 3 , , , ",
"m.n.m.n.n.M.x.k.l.c.c.M.N.l.>./ M C B D D D S Z F F E F b x x x ",
"n.m.n.m.m.M.M.k.l.c.c.h.m.j.@.C z c c L U U U U n n n n n n U { ",
"n.m.n.m.m.N.N.h.l.f.f.s.q.1.A M ^ 5.>.1.5.9.9.9.0.<.%.&.&.&.&.&.",
"l.n.n.m.m.M.M.N.A.S.S.A.f.A l ^ h.l.l.m.m.m.n.n.n.n.m.m.n.h.m.h.",
"z.n.n.m.N.n.M.M.V.A.N.$.z K ;.N.m.n.x.p.v.p.v.p.v.v.N.N.A.A.Z.S.",
"d.n.n.m.M.n.z.x.b.y.' A ` =.b.c.x.u.u.b.b.x.x.x.n.v.N.A.Z.S.D.S.",
"d.n.n.m.m.n.n.x.t._ b ..=.V.C.c.c.u.c.N.N.c.N.m.m.A.S.S.S.S.S.S.",
"k.n.n.m.N.M.n.w.Q P X.3.C.S.A.C.m.C.N.N.C.N.N.N.N.A.A.S.S.S.A.S.",
"n.n.m.m.N.n.-.! n } s.n.N.N.m.n.l.n.m.x.M.x.x.x.c.x.u.x.g.N.N.m.",
"d.n.m.m.N.-.`  .*.n.z.n.N.N.M.z.z.M.N.n.x.z.n.x.x.x.x.g.x.h.N.C.",
"n.n.m.m.;./ o.%.N.m.n.M.N.N.M.M.M.N.N.M.n.n.n.n.n.n.m.n.n.n.A.N.",
"k.n.n.4.` %. .r.C.m.n.m.n.M.m.m.n.n.n.m.m.m.N.N.N.m.N.N.N.N.m.n.",
"n.n.4.( @.%.e.x.A.N.m.m.m.m.m.n.n.m.m.m.m.m.N.m.m.m.N.N.N.N.n.n.",
"k.4.) o.%.g.x.u.A.A.A.m.m.n.n.m.m.n.m.n.n.n.n.n.n.m.m.n.m.n.n.k.",
"2.) o.&.M.M.g.c.A.S.S.N.n.m.n.m.n.m.n.n.x.n.n.n.n.n.n.n.n.n.z.d.",
"` ' #.s.m.N.m.m.N.A.C.C.m.m.m.n.m.n.n.k.k.k.d.k.d.n.k.n.l.z.d.n.",
"..X.6.n.n.A.n.m.m.m.m.m.m.m.m.m.n.m.n.k.k.z.z.k.d.k.n.d.n.z.n.n.",
"&.2.n.n.M.M.n.n.m.m.m.m.m.n.m.k.m.n.n.z.z.z.z.z.z.n.n.z.z.n.n.n."
};
