/* XPM */
static char *result[] = {
/* columns rows colors chars-per-pixel */
"32 32 153 2 ",
"   c #010101",
".  c #0B0503",
"X  c #040807",
"o  c #0C0806",
"O  c #050D0B",
"+  c #0B0C0B",
"@  c #120501",
"#  c #110907",
"$  c #180B05",
"%  c #140B09",
"&  c #1C0E0B",
"*  c #03100E",
"=  c #0A120F",
"-  c #1D110E",
";  c #0B1412",
":  c #141717",
">  c #1A1614",
",  c #1B1A19",
"<  c #23130E",
"1  c #261612",
"2  c #2B1711",
"3  c #201B17",
"4  c #2D1A14",
"5  c #221B19",
"6  c #06231D",
"7  c #13241F",
"8  c #26211D",
"9  c #28221F",
"0  c #0F2620",
"q  c #152C25",
"w  c #1A312B",
"e  c #17352C",
"r  c #2B2C27",
"t  c #312B27",
"y  c #342D29",
"u  c #3C2E2A",
"i  c #2D3530",
"p  c #313232",
"a  c #3B3631",
"s  c #204037",
"d  c #22443A",
"f  c #234A3F",
"g  c #4A423C",
"h  c #53463F",
"j  c #264D43",
"k  c #294D43",
"l  c #2F5F52",
"z  c #305E52",
"x  c #336A5B",
"c  c #376E60",
"v  c #367061",
"b  c #3A7666",
"n  c #3C7C6B",
"m  c #4A4642",
"M  c #524741",
"N  c #544B44",
"B  c #5D4B45",
"V  c #574F48",
"C  c #594F48",
"Z  c #63564F",
"A  c #665C54",
"S  c #695C55",
"D  c #655F58",
"F  c #6C6259",
"G  c #78675C",
"H  c #7C6E65",
"J  c #7C7067",
"K  c #7B7168",
"L  c #82766D",
"P  c #84786F",
"I  c #877C71",
"U  c #8B7E74",
"Y  c #3C8572",
"T  c #40816F",
"R  c #438371",
"E  c #428977",
"W  c #438D7A",
"Q  c #46907D",
"!  c #918075",
"~  c #918379",
"^  c #98877C",
"/  c #9A8A7F",
"(  c #499985",
")  c #499E88",
"_  c #7D8A85",
"`  c #4BAB92",
"'  c #50A993",
"]  c #52B299",
"[  c #58B59E",
"{  c #50B99D",
"}  c #57BAA1",
"|  c #59BEA5",
" . c #53C0A4",
".. c #5AC2A7",
"X. c #5CC4A9",
"o. c #5EC9AE",
"O. c #5ECBB0",
"+. c #61CBB0",
"@. c #978E82",
"#. c #9F8E83",
"$. c #999084",
"%. c #9D9C9C",
"&. c #A49186",
"*. c #A9978B",
"=. c #AE9B8F",
"-. c #A59489",
";. c #A39B90",
":. c #B2A294",
">. c #B3A699",
",. c #B9A69A",
"<. c #B4A89A",
"1. c #9DAFA9",
"2. c #B9AEA2",
"3. c #B7B3A6",
"4. c #BAB3A5",
"5. c #BDBDAF",
"6. c #C2AD9F",
"7. c #C3AEA0",
"8. c #C3B2A4",
"9. c #C9B5A7",
"0. c #C4BBAE",
"q. c #CBB9AA",
"w. c #D0BCAB",
"e. c #D2C0AF",
"r. c #CDCBBF",
"t. c #D5C3B3",
"y. c #DBC5B6",
"u. c #D5CEBE",
"i. c #DBCDBD",
"p. c #E4CEBE",
"a. c #C5C5C5",
"s. c #D5D1C1",
"d. c #DFD1C1",
"f. c #ECD6C6",
"g. c #E5DECD",
"h. c #E2D3C3",
"j. c #F1DDCA",
"k. c #CCE4DC",
"l. c #EBE0CE",
"z. c #E3E2D0",
"x. c #F4E6D4",
"c. c #FEE7D5",
"v. c #FFE9D6",
"b. c #F4EADC",
"n. c #FEEDDA",
"m. c #FFF1DE",
"M. c #DAF4EC",
"N. c #FFF4E1",
"B. c #FFF9E6",
"V. c #FFFDEB",
"C. c #FFFFF4",
"Z. c white",
"A. c None",
/* pixels */
"A.A.A.A.A.A.A.A.A.A.A.A.. o o o o o $ A.A.A.A.A.A.A.A.A.A.A.A.A.",
"A.A.A.A.A.A.A.A.A.A.A.A.            . A.A.A.A.A.A.A.A.A.A.A.A.A.",
"A.A.A.A.A.A.A.A.1 - < #               % < & 4 A.A.A.A.A.A.A.A.A.",
"A.A.A.A.A.A.A.A.                            . A.A.A.A.A.A.A.A.A.",
"A.A.A.A.A.A.1 # .                           . # 4 A.A.A.A.A.A.A.",
"A.A.A.A.A.A..                                   . A.A.A.A.A.A.A.",
"A.A.A.A.A.A.o                                   $ A.A.A.A.A.A.A.",
"A.A.A.A.A.A.. o N g                             $ A.A.A.A.A.A.A.",
"A.A.A.A.1     . j.q.                              . < A.A.A.A.A.",
"A.A.A.A.%   V K v.f.A D F a                 > A m   @ A.A.A.A.A.",
"A.A.A.A.% X y.N.c.v.v.n.n.~                 t x.3.X @ A.A.A.A.A.",
"A.A.A.A.# . p.V.c.v.n.N.B.t.J L L I U L L J -.V.3.X @ A.A.A.A.A.",
"A.A.A.A.% X y.N.c.c.c.c.v.n.m.m.m.N.N.m.m.m.n.V.:.X @ A.A.A.A.A.",
"A.A.A.A.A.A.h F c.N.v.9.N @.B.m.x.^ S t.V.V.s.S y . @ A.A.A.A.A.",
"A.A.A.A.A.A.  X p.x.n.*.  C B.m.l.M   <.V.m.>..   . & A.A.A.A.A.",
"A.A.A.A.A.A..   a A V.,.  V V.n.l.M o 0.b.B N >.5.3.G & A.A.A.A.",
"A.A.A.A.A.A.- o   3 j.=.X A N.n.l.Z > 2.r.> t i.V.V.#.  A.A.A.A.",
"A.A.A.A.4 > 7.4.    t N r.g.V.B.B.z.3.B i R R t H C.;.  A.A.A.A.",
"A.A.A.A.#   8.e.8 5 > g h.i.t.t.t.d.0.a 6 ` )   y t.U . A.A.A.A.",
"A.A.A.A.#   8 t w.s.u.&.9 5 5 5 5 5 r R ..O.( = o r 4 A.A.A.A.A.",
"A.A.A.A.2 .   % j.B.N.:.  X q 0 7 7 e b ( Q x O   . A.A.A.A.A.A.",
"A.A.A.A.A.A.. > n.C.C.6.  f O.} } X.` w O O X   @ A.A.A.A.A.A.A.",
"A.A.A.A.A.A.o + ! $.@.S   q n b b b b j i d w X @ A.A.A.A.A.A.A.",
"A.A.A.A.A.A.#   . . . .   . X X O X ; n X.} Y * @ A.A.A.A.A.A.A.",
"A.A.A.A.A.A.# X d j j j j j j 0   q l ( ..X.W * @ A.A.A.A.A.A.A.",
"A.A.A.A.A.A.. O } +.....X.o.X.z   c o.] ] | E O @ A.A.A.A.A.A.A.",
"A.A.A.A.A.A.A.1 k k j j j j j 0 X c o.] ] | E O @ A.A.A.A.A.A.A.",
"A.A.A.A.A.A.A.A.    X     X     O x  .` ` { Y O @ A.A.A.A.A.A.A.",
"A.A.A.A.A.A.A.A.A.A.A.A.A.A.A.& + _ M.k.k.M.1.: . A.A.A.A.A.A.A.",
"A.A.A.A.A.A.A.A.A.A.A.A.A.A.A.A.= %.Z.Z.Z.Z.a., . A.A.A.A.A.A.A.",
"A.A.A.A.A.A.A.A.A.A.A.A.A.A.A.A.A.u i p p p y A.A.A.A.A.A.A.A.A.",
"A.A.A.A.A.A.A.A.A.A.A.A.A.A.A.A.A.4         @ A.A.A.A.A.A.A.A.A."
};
