/* XPM */
static char *result[] = {
/* columns rows colors chars-per-pixel */
"32 32 116 2 ",
"   c #010000",
".  c #0B0504",
"X  c #0E0806",
"o  c #070708",
"O  c #060908",
"+  c #0C0A0A",
"@  c #100706",
"#  c #110907",
"$  c #150B09",
"%  c #190D0A",
"&  c #0A110E",
"*  c #14110E",
"=  c #1E100C",
"-  c #0A1310",
";  c #161211",
":  c #191513",
">  c #1F1914",
",  c #1E1E1E",
"<  c #21130F",
"1  c #211410",
"2  c #271915",
"3  c #2B1A15",
"4  c #221D1A",
"5  c #321F1A",
"6  c #14251F",
"7  c #26211E",
"8  c #2E221F",
"9  c #34211B",
"0  c #182620",
"q  c #132822",
"w  c #1E2E28",
"e  c #1B332C",
"r  c #1F3931",
"t  c #2B2522",
"y  c #2B2825",
"u  c #2F2B28",
"i  c #302320",
"p  c #342D2A",
"a  c #3A2E29",
"s  c #27352E",
"d  c #3A332E",
"f  c #3C3531",
"g  c #3F3A36",
"h  c #3D3C3C",
"j  c #403A36",
"k  c #423D39",
"l  c #3E7B6A",
"z  c #474342",
"x  c #4D4643",
"c  c #464B47",
"v  c #484B49",
"b  c #514540",
"n  c #564B43",
"m  c #514F4E",
"M  c #5D5049",
"N  c #407B6A",
"B  c #418270",
"V  c #438876",
"C  c #92847A",
"Z  c #9E8B7F",
"A  c #4C9F89",
"S  c #4EA38D",
"D  c #51AB93",
"F  c #53AF98",
"G  c #54B49C",
"H  c #57B89F",
"J  c #59BCA3",
"K  c #9B8D82",
"L  c #A28F82",
"P  c #A19084",
"I  c #A99588",
"U  c #AC998B",
"Y  c #B29E90",
"T  c #B6A395",
"R  c #B9A597",
"E  c #BAA799",
"W  c #BDAB9D",
"Q  c #ABA8A7",
"!  c #AFACAB",
"~  c #B1AFAD",
"^  c #B3B1AF",
"/  c #B5B3B2",
"(  c #BFBCBB",
")  c #C1AC9E",
"_  c #C2AEA0",
"`  c #C5B2A4",
"'  c #D0BDAE",
"]  c #CCC7B7",
"[  c #D2C4B5",
"{  c #D8C4B4",
"}  c #DBC7B8",
"|  c #D1CBBB",
" . c #DBCABB",
".. c #C5C3C2",
"X. c #CDCBCA",
"o. c #DBD5D0",
"O. c #DCDBDA",
"+. c #F3DDCC",
"@. c #F8E0CE",
"#. c #F3E2D1",
"$. c #FEE7D5",
"%. c #F3E9D6",
"&. c #FFE9D7",
"*. c #FFEDDA",
"=. c #FEF2DF",
"-. c #E5E4E4",
";. c #E8E7E6",
":. c #F0EFEE",
">. c #FFF4E1",
",. c #FFF9E5",
"<. c #FCF5EF",
"1. c #FFFEEB",
"2. c #F4F4F4",
"3. c #F8F7F6",
"4. c #FDFDFD",
"5. c None",
/* pixels */
"5.5.5.5.5.5.5.5.5.5.5.% % % % % % % 5 5.5.5.5.5.5.5.5.5.5.5.5.5.",
"5.5.5.5.5.5.5.5.5.5.5.              % 5.5.5.5.5.5.5.5.5.5.5.5.5.",
"5.5.5.5.5.5.5.% % % %               . % % % 9 5.5.5.5.5.5.5.5.5.",
"5.5.5.5.5.5.5.                              % 5.5.5.5.5.5.5.5.5.",
"5.5.5.5.5.% $                               . % 9 5.5.5.5.5.5.5.",
"5.5.5.5.5.                                      % 5.5.5.5.5.5.5.",
"5.5.5.5.5.                                      % 5.5.5.5.5.5.5.",
"5.5.5.5.5.                                      < 5.5.5.5.5.5.5.",
"5.5.5.% #                               p ] C   . $ < 5.5.5.5.5.",
"5.5.5.                                  k 1.W       X 5.5.5.5.5.",
"5.5.5.                              p [  .>.T   % 5.5.5.5.5.5.5.",
"5.5.5.                              g *.&.>.T   < 5.5.5.5.5.5.5.",
"5.5.5.              y | K       u | P t M ,.T   = 5.5.5.5.5.5.5.",
"5.5.5.              f 1.`       k 1.W   d ,.T   = 5.5.5.5.5.5.5.",
"5.5.5.          y ' } &.+.' ' ' } >.T   f ,.R   = 5.5.5.5.5.5.5.",
"5.5.5.. .       f >.*.&.*.>.*.*.*.>.E   f =.Y   = 5.5.5.5.5.5.5.",
"5.5.5.5.5.  t [  .*.&.$.$.$.&.$.$.&.+.[ L t 9 5.5.5.5.5.5.5.5.5.",
"5.5.5.5.5.  d &.&.@.@.$.$.$.$.$.$.$.&.>.T   % 5.5.5.5.5.5.5.5.5.",
"5.5.5.5.5.5.5.7 4 7 n *.*.&.*.&.*.>.` 4 :   = 5.5.5.5.5.5.5.5.5.",
"5.5.5.5.5.5.5.      a #.#.+.+.#.+.%.Y     o < 5.5.5.5.5.5.5.5.5.",
"5.5.5.5.5.# a } {  .I 4 4 4 4 4 4 4 x O.o. .Z X 3 5.5.5.5.5.5.5.",
"5.5.5.5.5.  p =.*.,._               h 3.<.,.E   % 5.5.5.5.5.5.5.",
"5.5.5.5.5.  p %.*.>._   6 S A S S D l ; b 1.T   = 5.5.5.5.5.5.5.",
"5.5.5.5.5.  p +.+.#.T o e J G G G J V   d %.U   = 5.5.5.5.5.5.5.",
"5.5.5.5.5.5.5.* ; : s S S G G G G G F D l ; +   % 5.5.5.5.5.5.5.",
"5.5.5.5.5.5.5.o     q J G G F D D G F G B o + + 2 5.5.5.5.5.5.5.",
"5.5.5.5.5.+ k -.~   6 H G J V & r J V & c -.;.;.Q X % 5.5.5.5.5.",
"5.5.5.5.5.  h 4.X.+ w D D F l   0 G N + m 4.4.3./   X 5.5.5.5.5.",
"5.5.5.5.5.  h 4.4.;./ & & & > 5.5.& v ;.:.4..., 8 5.5.5.5.5.5.5.",
"5.5.5.5.5.  h 3.3.3.(       = 5.5.  z 3.3.3./   % 5.5.5.5.5.5.5.",
"5.5.5.5.5.5.5., , , i 5.5.5.5.5.5.5.5.t 4 , i 5.5.5.5.5.5.5.5.5.",
"5.5.5.5.5.5.5.      % 5.5.5.5.5.5.5.5.      % 5.5.5.5.5.5.5.5.5."
};
