/* XPM */
static char *result[] = {
/* columns rows colors chars-per-pixel */
"32 32 217 2 ",
"   c black",
".  c #010000",
"X  c #010100",
"o  c #010001",
"O  c #010101",
"+  c #020000",
"@  c #020100",
"#  c #030100",
"$  c #030101",
"%  c #030201",
"&  c #050302",
"*  c #070302",
"=  c #060303",
"-  c #060505",
";  c #090000",
":  c #0F0100",
">  c #080403",
",  c #0E0705",
"<  c #0F0805",
"1  c #0D0806",
"2  c #110501",
"3  c #130804",
"4  c #130905",
"5  c #110907",
"6  c #110A07",
"7  c #170905",
"8  c #190905",
"9  c #180B07",
"0  c #1F0B04",
"q  c #1F0C06",
"w  c #1F0D06",
"e  c #1F0D07",
"r  c #150C09",
"t  c #160C0A",
"y  c #100F0E",
"u  c #1A0E0A",
"i  c #151312",
"p  c #111C19",
"a  c #171D18",
"s  c #1E1A18",
"d  c #200C06",
"f  c #210E08",
"g  c #220F0A",
"h  c #22120C",
"j  c #2A1712",
"k  c #221D1B",
"l  c #201D1C",
"z  c #301812",
"x  c #13231E",
"c  c #3D251D",
"v  c #142823",
"b  c #102B25",
"n  c #152A24",
"m  c #15322B",
"M  c #1B332C",
"N  c #1D362E",
"B  c #1C372F",
"V  c #1E3931",
"C  c #1C3B33",
"Z  c #1C3C33",
"A  c #1E3F36",
"S  c #212622",
"D  c #2A2623",
"F  c #2C2623",
"G  c #242C27",
"H  c #302421",
"J  c #312B27",
"K  c #3E2D26",
"L  c #332E2A",
"P  c #342E2A",
"I  c #39332F",
"U  c #3C302C",
"Y  c #393431",
"T  c #3A3430",
"R  c #3A3732",
"E  c #3B3732",
"W  c #442A22",
"Q  c #45312A",
"!  c #473F3A",
"~  c #483F3A",
"^  c #204239",
"/  c #48403B",
"(  c #4D453F",
")  c #2A5246",
"_  c #2C584C",
"`  c #2C594C",
"'  c #2D5A4D",
"]  c #2F6859",
"[  c #356355",
"{  c #356B5C",
"}  c #366E5F",
"|  c #38695A",
" . c #31705F",
".. c #367162",
"X. c #357564",
"o. c #387261",
"O. c #387363",
"+. c #3A7564",
"@. c #397665",
"#. c #367A67",
"$. c #3A7A69",
"%. c #3B7A69",
"&. c #3D7D6B",
"*. c #534A46",
"=. c #554945",
"-. c #544F48",
";. c #574E4B",
":. c #5A4F4C",
">. c #54504A",
",. c #5F7C73",
"<. c #666564",
"1. c #676565",
"2. c #676665",
"3. c #746A62",
"4. c #746C64",
"5. c #746E66",
"6. c #786D65",
"7. c #86776D",
"8. c #88796F",
"9. c #8B7B71",
"0. c #448B78",
"q. c #448C79",
"w. c #448C7A",
"e. c #458D7A",
"r. c #46917E",
"t. c #67877D",
"y. c #97877C",
"u. c #99887D",
"i. c #489480",
"p. c #4B9883",
"a. c #4E9D87",
"s. c #4C9E88",
"d. c #4C9F89",
"f. c #6C8C82",
"g. c #709389",
"h. c #4CA08B",
"j. c #4DA18B",
"k. c #4DA28C",
"l. c #4DA38D",
"z. c #4EA38D",
"x. c #4EA48E",
"c. c #4FA790",
"v. c #49AE95",
"b. c #50A992",
"n. c #51A992",
"m. c #50AA93",
"M. c #4DB79D",
"N. c #4DB89D",
"B. c #4DB89E",
"V. c #53B29A",
"C. c #53B39B",
"Z. c #54B39A",
"A. c #54B39B",
"S. c #54B49C",
"D. c #55B49C",
"F. c #54B69D",
"G. c #55B69E",
"H. c #55B79F",
"J. c #56B79E",
"K. c #55B8A0",
"L. c #57BAA1",
"P. c #57BBA2",
"I. c #57BCA2",
"U. c #57BCA3",
"Y. c #58BDA3",
"T. c #59BDA4",
"R. c #59BEA4",
"E. c #59BFA5",
"W. c #5AC2A7",
"Q. c #5CC3A9",
"!. c #5DC6AC",
"~. c #5DC7AD",
"^. c #9A8A80",
"/. c #9D8C80",
"(. c #9C8C81",
"). c #A9968B",
"_. c #AEA598",
"`. c #AEA699",
"'. c #B7A496",
"]. c #B0A599",
"[. c #B0A699",
"{. c #B8A79A",
"}. c #BDAC9F",
"|. c #A7A3A3",
" X c #B8B4B4",
".X c #BEB9B9",
"XX c #C5B1A2",
"oX c #CBB6A7",
"OX c #CDB8AA",
"+X c #D4BFAF",
"@X c #9ACDBF",
"#X c #D5C2B2",
"$X c #D5C2B3",
"%X c #DAC4B4",
"&X c #DFCBBC",
"*X c #DFCCBC",
"=X c #9DD3C4",
"-X c #9DD4C4",
";X c #9DD4C5",
":X c #C9C4C5",
">X c #F9E2D0",
",X c #FBE6D5",
"<X c #FCE8D7",
"1X c #FFE9D7",
"2X c #FFF3E0",
"3X c #FFF4E0",
"4X c #FFF8E4",
"5X c #FFFAE5",
"6X c #FFFBE8",
"7X c #FFFDE9",
"8X c #FFFEEB",
"9X c #FFFFEB",
"0X c #FFFFEC",
"qX c ivory",
"wX c #FFFFF6",
"eX c white",
"rX c None",
/* pixels */
"rXrXrXrXrXrXrXrXrXrXrXrX1 = = = = = > rXrXrXrXrXrXrXrXrXrXrXrXrX",
"rXrXrXrXrXrXrXrXrXrXrXrX* . . . . . @ rXrXrXrXrXrXrXrXrXrXrXrXrX",
"rXrXrXrXrXrXrXrXj     @ @ . . . . . @ %     7 rXrXrXrXrXrXrXrXrX",
"rXrXrXrXrXrXrXrXu . @ # X           . # @ . 4 rXrXrXrXrXrXrXrXrX",
"rXrXrXrXrXrXrX  .                           X   0 rXrXrXrXrXrXrX",
"rXrXrXrXrXrXrX  #                           @   rXrXrXrXrXrXrXrX",
"rXrXrXrXrXrXrX. #                           @ . rXrXrXrXrXrXrXrX",
"rXrXrXrXrXr < @ .                           . @ , t rXrXrXrXrXrX",
"rXrXrXrXrX                                      .   rXrXrXrXrXrX",
"rXrXrXrXrX  @                                   $   rXrXrXrXrXrX",
"rXrXrXrXrX  @                                   $   rXrXrXrXrXrX",
"rXrXrXrXrX                                      o   rXrXrXrXrXrX",
"rXrXrXrXrXq 9 @ ! 5.i                   y 4.( @ 3 w rXrXrXrXrXrX",
"rXrXrXrXrXrXrX  ).wXD                   l qX'.  rXrXrXrXrXrXrXrX",
"rXrXrXrXrXrXrXrXQ / ^.[._.6.      3.`.].(.~ K rXrXrXrXrXrXrXrXrX",
"rXrXrXrXrXrXrXrXh   OX3X8X}.- - - {.9X2X+X  2 rXrXrXrXrXrXrXrXrX",
"rXrXrXrXrXrXrX5 [ j.G H >X<X*X*X&X,X1XU S s.| 6 rXrXrXrXrXrXrXrX",
"rXrXrXrXrXrXz   ..W.m a XX$X%X%X%X#XoXS b R.$.  f rXrXrXrXrXrXrX",
"rXrXrXrXrX      } U.Z.a.&           + i.D.P.@.      rXrXrXrXrXrX",
"rXrXrXrXW -.J   } U.F.n.^ C Z Z Z Z A l.H.P.@.  F >.c rXrXrXrXrX",
"rXrXrX  L 0X/.  +.~.S.V.L.L.L.L.L.L.L.C.A.!.&.  9.qXY   rXrXrXrX",
"rXrXrX  P 4Xy.  M ` h.G.C.C.C.C.C.C.C.F.x.' B   7.6XI   rXrXrXrX",
"rXrXrX  L 5Xu.      r.T.J.J.J.J.J.J.J.Y.p.      8.7XT   rXrXrXrX",
"rXrXrXrXrXE k   ) e.V n v v v v v v v n N 0._   s R rXrXrXrXrXrX",
"rXrXrXrXrX      o.Q.x O O O O O O O O O p E.%.      rXrXrXrXrXrX",
"rXrXrXrXrXrXrX  { U.z.d.d.j.c.c.c.k.d.d.k.P.O.  e rXrXrXrXrXrXrX",
"rXrXrXrXrXrXrX  { U.F.G.K.m.q.w.q.b.K.G.F.I.O.  rXrXrXrXrXrXrXrX",
"rXrXrXrXrXrXrX  ] B.v.v.M.#.      X.M.v.v.N. .  rXrXrXrXrXrXrXrX",
"rXrXrXrXrXrXrX  ,.;X@X@X=Xg.      f.=X@X@X-Xt.  rXrXrXrXrXrXrXrX",
"rXrXrXrXrXrXrX  |.eXeXeXeX:X      .XeXeXeXeX X  d rXrXrXrXrXrXrX",
"rXrXrXrXrXrXrXrX=.2.<.<.1.;.rXrXrX:.1.<.<.2.*.rXrXrXrXrXrXrXrXrX",
"rXrXrXrXrXrXrXrXg         ; rXrXrX8         : rXrXrXrXrXrXrXrXrX"
};
