/* XPM */
static char *result[] = {
/* columns rows colors chars-per-pixel */
"32 32 132 2 ",
"   c #010000",
".  c #0B0504",
"X  c #000906",
"o  c #060A08",
"O  c #0C0B0A",
"+  c #160702",
"@  c #140805",
"#  c #1B0B05",
"$  c #110A08",
"%  c #1B0E0B",
"&  c #11100F",
"*  c #131512",
"=  c #121E1A",
"-  c #240E0A",
";  c #24110C",
":  c #2A150E",
">  c #2C1812",
",  c #251F1C",
"<  c #11241F",
"1  c #38231B",
"2  c #122E27",
"3  c #19332B",
"4  c #272421",
"5  c #2A2420",
"6  c #2F2925",
"7  c #322522",
"8  c #332A26",
"9  c #342E2A",
"0  c #3C2E2A",
"q  c #35312D",
"w  c #383F38",
"e  c #402D25",
"r  c #493730",
"t  c #4F3D35",
"y  c #433D38",
"u  c #54453F",
"i  c #254B40",
"p  c #2A4F44",
"a  c #315549",
"s  c #2E6456",
"d  c #2F695A",
"f  c #306456",
"g  c #3E6255",
"h  c #326658",
"j  c #346C5D",
"k  c #3A6F5F",
"l  c #3B7364",
"z  c #524740",
"x  c #514841",
"c  c #5C524B",
"v  c #475F53",
"b  c #61534B",
"n  c #655C54",
"m  c #695C54",
"M  c #6B625D",
"N  c #486E63",
"B  c #726960",
"V  c #7D7066",
"C  c #86786E",
"Z  c #8A7A70",
"A  c #817C7A",
"S  c #3C8673",
"D  c #3C8875",
"F  c #3E8C78",
"G  c #41816F",
"H  c #418674",
"J  c #428976",
"K  c #448C79",
"L  c #46927E",
"P  c #48947F",
"I  c #948479",
"U  c #948A7F",
"Y  c #99897E",
"T  c #479480",
"R  c #4B9884",
"E  c #4C9E89",
"W  c #619385",
"Q  c #6A9C89",
"!  c #4CAF96",
"~  c #51AA94",
"^  c #52AF98",
"/  c #4EB79E",
"(  c #4FB89E",
")  c #54B49B",
"_  c #53B99F",
"`  c #56BAA1",
"'  c #58BCA3",
"]  c #75BEA6",
"[  c #7ABFAD",
"{  c #5CC6AB",
"}  c #60CAAF",
"|  c #7EC6B3",
" . c #948C81",
".. c #9B8C81",
"X. c #9F9186",
"o. c #9C9A9A",
"O. c #A9978A",
"+. c #AD9B8F",
"@. c #AA9B90",
"#. c #8FAF9C",
"$. c #B3A093",
"%. c #BCAA9C",
"&. c #C0AD9E",
"*. c #C4AFA0",
"=. c #C5B2A3",
"-. c #C9B5A5",
";. c #C1BBAD",
":. c #D1BDAD",
">. c #92C3AD",
",. c #D4C1B2",
"<. c #DECABA",
"1. c #E4CEBE",
"2. c #E6D0BF",
"3. c #D6D2D2",
"4. c #E7D1C0",
"5. c #ECD6C5",
"6. c #E4D8C7",
"7. c #E4DDCB",
"8. c #EFDCCA",
"9. c #F2DCCB",
"0. c #F7E0CF",
"q. c #F8E1CF",
"w. c #EFE4D2",
"e. c #FEE6D4",
"r. c #FFE9D6",
"t. c #FFECDA",
"y. c #FFF1DE",
"u. c #FFF4E1",
"i. c #FFF9E5",
"p. c #FFFEEC",
"a. c white",
"s. c None",
/* pixels */
"s.s.s.s.s.s.s.s.s.s.s.s.$ . .   . .   s.s.s.s.s.s.s.s.s.s.s.s.s.",
"s.s.s.s.s.s.s.s.s.s.s.s..             s.s.s.s.s.s.s.s.s.s.s.s.s.",
"s.s.s.s.s.s.s.s.>                     .     @ s.s.s.s.s.s.s.s.s.",
"s.s.s.s.s.s.s.s.%                           . s.s.s.s.s.s.s.s.s.",
"s.s.s.s.s.s.s.                                  + s.s.s.s.s.s.s.",
"s.s.s.s.s.s.s.                                  # s.s.s.s.s.s.s.",
"s.s.s.s.s.s.s.                                  % s.s.s.s.s.s.s.",
"s.s.s.s.s.% @   M ;.4                           . % s.s.s.s.s.s.",
"s.s.s.s.s.    O O.p.y O O O                   O .   s.s.s.s.s.s.",
"s.s.s.s.s.  x 6.8.r.4.4.6.@.                4 7.C   s.s.s.s.s.s.",
"s.s.s.s.s.  c i.t.e.t.t.u.,.q q q q q q q q n i.Y   s.s.s.s.s.s.",
"s.s.s.s.s.  c p.t.e.e.t.u.y.t.r.r.u.u.t.r.t.t.p...  s.s.s.s.s.s.",
"s.s.s.s.s.# r U :.t.t.0.Y O.r.r.t.&.I 4.t.t.4. .b # s.s.s.s.s.s.",
"s.s.s.s.s.s.s.  I p.t.5.  , r.r.u.c   %.y.p.-.  . s.s.s.s.s.s.s.",
"s.s.s.s.s.s.s.s.t n <.0.O 8 r.r.u.n   =.r.B u s.s.s.s.s.s.s.s.s.",
"s.s.s.s.s.s.s.s.-   *.e.  5 r.r.u.b   =.e..   s.s.s.s.s.s.s.s.s.",
"s.s.s.s.s.s.s.@ a P w 0 $.,.t.t.t.<.-.z 9 H k $ s.s.s.s.s.s.s.s.",
"s.s.s.s.s.s.s.& l { 2 o ,.8.1.1.1.5.8.9 X ^ R $ ; s.s.s.s.s.s.s.",
"s.s.s.s.s.  x w.>./ ^ E * . . . . . . H ) / ] w.Z   s.s.s.s.s.s.",
"s.s.s.s.s.9 V i.#.S ^ ) 3 < < < < < < L ) F Q u.+.q 1 s.s.s.s.s.",
"s.s.s.  9 r.r.y.n   J ` ) ) ) ) ) ) ) ` ~ X 8 r.r.u.m   s.s.s.s.",
"s.s.s.  9 r.t.u.b   J ` ) ) ) ) ) ) ) ) ~ X 8 r.t.i.n   s.s.s.s.",
"s.s.s.  q u.u.p.m   K { ` ' ' ' ` ' ' ' ^   7 u.u.p.m   s.s.s.s.",
"s.s.s.s.1 n n n v j p p i i i i i i i i i f g n n n e s.s.s.s.s.",
"s.s.s.s.s.      d } =                     ) L       s.s.s.s.s.s.",
"s.s.s.s.s.s.:   h ' L H H J J J K J H H J ) J   @ s.s.s.s.s.s.s.",
"s.s.s.s.s.s.s.  h ` _ ` ` ) ~ ~ ! ^ ` ` ` ` J   # s.s.s.s.s.s.s.",
"s.s.s.s.s.s.s.  s ` ! ! / F o o o h _ ! ! ( S   # s.s.s.s.s.s.s.",
"s.s.s.s.s.s.s.  N | [ [ | W       N >.| [ | W   # s.s.s.s.s.s.s.",
"s.s.s.s.s.s.s.  o.a.a.a.a.3.      o.a.a.a.a.3.  + s.s.s.s.s.s.s.",
"s.s.s.s.s.s.s.# M o.o.o.o.A # # @ M o.o.o.o.A # s.s.s.s.s.s.s.s.",
"s.s.s.s.s.s.s.s.;           s.s.s.-           s.s.s.s.s.s.s.s.s."
};
