/* XPM */
static char *result[] = {
/* columns rows colors chars-per-pixel */
"32 32 117 2 ",
"   c #010000",
".  c #0A0402",
"X  c #070B09",
"o  c #0A0B0A",
"O  c #120502",
"+  c #140905",
"@  c #190A06",
"#  c #140B08",
"$  c #1B0E0A",
"%  c #04120E",
"&  c #0A100D",
"*  c #1E110D",
"=  c #0C1613",
"-  c #0C1815",
";  c #161412",
":  c #111D19",
">  c #210B07",
",  c #24120D",
"<  c #241511",
"1  c #2B1511",
"2  c #2E1914",
"3  c #211E1C",
"4  c #311A15",
"5  c #12211C",
"6  c #28221E",
"7  c #162620",
"8  c #142A24",
"9  c #173129",
"0  c #252220",
"q  c #2E2622",
"w  c #3E2D26",
"e  c #372F2A",
"r  c #37302C",
"t  c #393832",
"y  c #433B35",
"u  c #4F3C34",
"i  c #4A3F39",
"p  c #3B443C",
"a  c #47443E",
"s  c #49423B",
"d  c #345549",
"f  c #386758",
"g  c #386D5E",
"h  c #397666",
"j  c #3D7867",
"k  c #3F7D6B",
"l  c #494A41",
"z  c #514842",
"x  c #465147",
"c  c #5E554E",
"v  c #5E5A52",
"b  c #604E46",
"n  c #655B53",
"m  c #685A52",
"M  c #406E5F",
"N  c #77665C",
"B  c #7B6B60",
"V  c #82746A",
"C  c #847D73",
"Z  c #8A7D72",
"A  c #3C8572",
"S  c #418573",
"D  c #438976",
"F  c #448C79",
"G  c #45917D",
"H  c #848076",
"J  c #85857A",
"K  c #998B7F",
"L  c #489782",
"P  c #4B9B86",
"I  c #4C9D88",
"U  c #619284",
"Y  c #4CA38C",
"T  c #4FA790",
"R  c #4CAF96",
"E  c #52AD96",
"W  c #53AF98",
"Q  c #4EB59B",
"!  c #55B59D",
"~  c #56B89F",
"^  c #73B09F",
"/  c #57BAA1",
"(  c #59BEA4",
")  c #7ABFAD",
"_  c #5DC5AA",
"`  c #7BC1AF",
"'  c #7DC4B1",
"]  c #64D2B6",
"[  c #9A8D82",
"{  c #999286",
"}  c #96918F",
"|  c #A29287",
" . c #A9978B",
".. c #AE9E92",
"X. c #B5A496",
"o. c #B8A395",
"O. c #BCA99C",
"+. c #AFABAA",
"@. c #B8B7B7",
"#. c #B9B8B8",
"$. c #D2BDAD",
"%. c #D1C5B5",
"&. c #E1CAB9",
"*. c #D2CFCE",
"=. c #E3D6C5",
"-. c #EAD4C3",
";. c #F6E0CE",
":. c #FAE7D5",
">. c #FFEEDC",
",. c #FFF0DC",
"<. c #FFF4E1",
"1. c #FFF9E6",
"2. c #FFFEEB",
"3. c #FAF5F5",
"4. c #FFFFF3",
"5. c #FFFFFE",
"6. c None",
/* pixels */
"6.6.6.6.6.6.6.6.6.6.6.< . . . . . . . 6.6.6.6.6.6.6.6.6.6.6.6.6.",
"6.6.6.6.6.6.6.6.6.6.6.$             . 6.6.6.6.6.6.6.6.6.6.6.6.6.",
"6.6.6.6.6.6.6.2 .   . .               . . . @ 6.6.6.6.6.6.6.6.6.",
"6.6.6.6.6.6.6.,                             . 6.6.6.6.6.6.6.6.6.",
"6.6.6.6.6.4   .                             .   # 6.6.6.6.6.6.6.",
"6.6.6.6.6.2                                     + 6.6.6.6.6.6.6.",
"6.6.6.6.6.4                                     + 6.6.6.6.6.6.6.",
"6.6.6.6.6.,   .                               . @ 6.6.6.6.6.6.6.",
"6.6.6.+                                             + 6.6.6.6.6.",
"6.6.6.#   .                                         @ 6.6.6.6.6.",
"6.6.6.#                                         .   @ 6.6.6.6.6.",
"6.6.6.#                                             @ 6.6.6.6.6.",
"6.6.6.#                                             O 6.6.6.6.6.",
"6.6.6.6.6.@   z J 0                     ; C n   6 C c 4 6.6.6.6.",
"6.6.6.6.6.2    .5.s                     3 4.%.  y 5.|   . 6.6.6.",
"6.6.6.6.6.6.6.u v V { [ [ ;     o H [ [ Z c m K X.<.K   . 6.6.6.",
"6.6.6.6.6.6.6.>   o.4.<.<.5     . ;.1.4.&.  q 2.1.2.[   . 6.6.6.",
"6.6.6.6.6.6., d F x s $.,.O.....X.:.-.i a A M s s a w 6.6.6.6.6.",
"6.6.6.6.6.1   h ] 9   O.<.<.<.<.<.,.%.. % _ G       O 6.6.6.6.6.",
"6.6.6.6.6.2   - 8 g L p e e e r e r t S G / F   O 6.6.6.6.6.6.6.",
"6.6.6.6.6.4       k _ 8             X ! / ~ D   @ 6.6.6.6.6.6.6.",
"6.6.6.< + N %.$.%.l 5 k P L L L L L P ~ P : -   + 6.6.6.6.6.6.6.",
"6.6.6.+   Z 2.>.1.i   S ~ W W ! W W W W G .     + 6.6.6.6.6.6.6.",
"6.6.6.#   C 1.>.1.i   X & & o o & & & & 5 Y j   @ 6.6.6.6.6.6.6.",
"6.6.6.* . N =.&.=.s o X X X X X X X X X 7 / F   O 6.6.6.6.6.6.6.",
"6.6.6.6.6.2 o o o j ~ W E W W W R T T T T ~ D   @ 6.6.6.6.6.6.6.",
"6.6.6.6.6.6.. . . f I L L L L L L ! ! ! ~ / D   O 6.6.6.6.6.6.6.",
"6.6.6.6.6.6.6.6.6.*             X Y Q R R Q A   + 6.6.6.6.6.6.6.",
"6.6.6.6.6.6.6.6.6.4 . O . O .   X ^ ) ) ) ' U   @ 6.6.6.6.6.6.6.",
"6.6.6.6.6.6.6.6.6.6.6.6.6.6.6.. o 3.5.5.5.5.*.  . 6.6.6.6.6.6.6.",
"6.6.6.6.6.6.6.6.6.6.6.6.6.6.6.$ * +.#.#.@.@.} @ , 6.6.6.6.6.6.6.",
"6.6.6.6.6.6.6.6.6.6.6.6.6.6.6.6.6.          . 6.6.6.6.6.6.6.6.6."
};
