/* XPM */
static char *result[] = {
/* columns rows colors chars-per-pixel */
"32 32 134 2 ",
"   c #010000",
".  c #0A0504",
"X  c #0F0807",
"o  c #040C0A",
"O  c #0D0B0A",
"+  c #130601",
"@  c #190600",
"#  c #110806",
"$  c #190904",
"%  c #140C09",
"&  c #1C0E0A",
"*  c #05120E",
"=  c #14100F",
"-  c #1A120D",
";  c #0B1612",
":  c #1E1816",
">  c #1C1D1B",
",  c #24120D",
"<  c #2A130D",
"1  c #231511",
"2  c #2C1611",
"3  c #2E1913",
"4  c #211C1A",
"5  c #341E16",
"6  c #172A24",
"7  c #1A352D",
"8  c #173E33",
"9  c #1D3A32",
"0  c #2A2A2A",
"q  c #312B27",
"w  c #3A2923",
"e  c #27302B",
"r  c #35312D",
"t  c #3F332D",
"y  c #203F37",
"u  c #2C3F36",
"i  c #3D3630",
"p  c #403530",
"a  c #1A4338",
"s  c #2B473C",
"d  c #4D423C",
"f  c #54423B",
"g  c #364B41",
"h  c #3C4D43",
"j  c #2C574B",
"k  c #325649",
"l  c #2D6152",
"z  c #2F6A5B",
"x  c #316355",
"c  c #336759",
"v  c #3E6558",
"b  c #34695B",
"n  c #376F60",
"m  c #3B7463",
"M  c #3D7D6C",
"N  c #4F4740",
"B  c #554A44",
"V  c #594F49",
"C  c #4A554C",
"Z  c #54514C",
"A  c #5B554E",
"S  c #62564E",
"D  c #675A52",
"F  c #695C54",
"G  c #6E625A",
"H  c #78685F",
"J  c #5F756E",
"K  c #6B6967",
"L  c #6E6D6C",
"P  c #757474",
"I  c #83776E",
"U  c #8B7E75",
"Y  c #907E72",
"T  c #418572",
"R  c #438C79",
"E  c #45917D",
"W  c #8A827C",
"Q  c #918278",
"!  c #469681",
"~  c #4B9C85",
"^  c #4AA48D",
"/  c #4DAC94",
"(  c #51A992",
")  c #4DB198",
"_  c #54B39A",
"`  c #56B89F",
"'  c #53BFA3",
"]  c #59BEA4",
"[  c #5BC0A6",
"{  c #5BC5AB",
"}  c #5EC9AE",
"|  c #60C7AB",
" . c #63D4B6",
".. c #928E8E",
"X. c #9A9186",
"o. c #989389",
"O. c #A3968A",
"+. c #A0988B",
"@. c #A19C90",
"#. c #B09E91",
"$. c #ADA59B",
"%. c #B1A69A",
"&. c #B0A99D",
"*. c #B3ACA4",
"=. c #BFBAAD",
"-. c #C9B5A7",
";. c #C2BEB0",
":. c #CDC7B8",
">. c #D8C0B1",
",. c #D2CABA",
"<. c #A3CCC1",
"1. c #AAD5C9",
"2. c #ABD8CB",
"3. c #B1E1D4",
"4. c #DED2C3",
"5. c #E5DAC9",
"6. c #EBDECD",
"7. c #F3DDCC",
"8. c #F0E0CF",
"9. c #EDE6D7",
"0. c #EDE6DE",
"q. c #F3E3D2",
"w. c #FBE6D3",
"e. c #FDEAD7",
"r. c #F2EADA",
"t. c #FFEEDB",
"y. c #F4ECE5",
"u. c #FFF7E4",
"i. c #FFFBE7",
"p. c #F3F1EF",
"a. c #FFFDEB",
"s. c #FFFDF3",
"d. c #FFFEFD",
"f. c None",
/* pixels */
"f.f.f.f.f.f.f.f.f.f.f.f.1 . . . . . . - f.f.f.f.f.f.f.f.f.f.f.f.",
"f.f.f.f.f.f.f.f.f.f.f.f.%             + f.f.f.f.f.f.f.f.f.f.f.f.",
"f.f.f.f.f.f.f.f.f.# % # .             . % % % f.f.f.f.f.f.f.f.f.",
"f.f.f.f.f.f.f.f.,                             $ f.f.f.f.f.f.f.f.",
"f.f.f.f.f.f.f.# .                             . # f.f.f.f.f.f.f.",
"f.f.f.f.f.f.<                                     f.f.f.f.f.f.f.",
"f.f.f.f.f.f.f.                                    f.f.f.f.f.f.f.",
"f.f.f.f.f.f.,                                     , f.f.f.f.f.f.",
"f.f.f.f.f.                                            f.f.f.f.f.",
"f.f.f.f.f..                                           f.f.f.f.f.",
"f.f.f.f.f..                                           f.f.f.f.f.",
"f.f.f.f.f..                                           f.f.f.f.f.",
"f.f.f.f.f.                                            f.f.f.f.f.",
"f.f.f.& f @.N   A $.r                     r %.Z   $ f.f.f.f.f.f.",
"f.f.f.  G s.I % W p.A X O O         O O O Z p.Y   f.f.f.f.f.f.f.",
"f.f.f.  G i.4.&.H d U *.$.O.O     4 o.&.*.Q d w f.f.f.f.f.f.f.f.",
"f.f.f.. D 5.9.0.G   X.y.i.t.q = % N r.a.y.O.  - f.f.f.f.f.f.f.f.",
"f.f.f.f.3 i i i v ! h p -.u.:.;.=.,.a.-.p g ^ k & f.f.f.f.f.f.f.",
"f.f.f.f.f.      z  .a   %.6.q.q.q.6.6.X.o 8 { l   f.f.f.f.f.f.f.",
"f.f.f.f.f.f., . b } ( ~ 0 4 4 4 4 > 4 u ( m ; o   f.f.f.f.f.f.f.",
"f.f.f.f.f.f.f.  j / _ ] 7 o o * * * o y ( J - : : 5 f.f.f.f.f.f.",
"f.f.f.f.f.f.3       M { ' _ _ _ _ _ ] T * d w.7.e.D   f.f.f.f.f.",
"f.f.f.f.f.f.3   ; 6 c E R R R R R R ! x   B u.t.a.F   f.f.f.f.f.",
"f.f.f.f.f.f.3 . x | 7                     B s.a.d.G   f.f.f.f.f.",
"f.f.f.f.f.f.3   b } x 9 9 9 9 9 9 9 9 9 a C +.o.+.f $ f.f.f.f.f.",
"f.f.f.f.f.f.5   l [ _ _ _ _ ] ] [ [ [ [ | M . . . f.f.f.f.f.f.f.",
"f.f.f.f.f.f.3   x ] _ ' ' _ m b b b b b n s @ @ + f.f.f.f.f.f.f.",
"f.f.f.f.f.f.3   l ' / ) / ^ ;         .   X f.f.f.f.f.f.f.f.f.f.",
"f.f.f.f.f.f.3 . J 3.1.1.2.<.>   $ $ $ $ $ f.f.f.f.f.f.f.f.f.f.f.",
"f.f.f.f.f.f.3 . ..d.d.d.d.d.0 # f.f.f.f.f.f.f.f.f.f.f.f.f.f.f.f.",
"f.f.f.f.f.f.f.f.B P L L L K 3 f.f.f.f.f.f.f.f.f.f.f.f.f.f.f.f.f.",
"f.f.f.f.f.f.f.f.<           f.f.f.f.f.f.f.f.f.f.f.f.f.f.f.f.f.f."
};
