/* XPM */
static char *result[] = {
/* columns rows colors chars-per-pixel */
"32 32 129 2 ",
"   c #010000",
".  c #0B0402",
"X  c #0F0805",
"o  c #050A08",
"O  c #0B0D0B",
"+  c #120401",
"@  c #150905",
"#  c #190B06",
"$  c #140B08",
"%  c #1C0F0A",
"&  c #0A110E",
"*  c #16110F",
"=  c #1E100C",
"-  c #0B1411",
";  c #0C1C17",
":  c #0F1C18",
">  c #141513",
",  c #1A1614",
"<  c #1C1916",
"1  c #101E19",
"2  c #220F09",
"3  c #24130F",
"4  c #29140E",
"5  c #271510",
"6  c #2A1711",
"7  c #201A16",
"8  c #2E1913",
"9  c #221D1A",
"0  c #291E1B",
"q  c #0D211C",
"w  c #26211D",
"e  c #172721",
"r  c #182721",
"t  c #202121",
"y  c #2F2925",
"u  c #2E2B28",
"i  c #3D2922",
"p  c #362E2A",
"a  c #37302C",
"s  c #39322D",
"d  c #373531",
"f  c #383530",
"g  c #3C3C36",
"h  c #443A35",
"j  c #47453F",
"k  c #4A413B",
"l  c #54443B",
"z  c #376B5D",
"x  c #3A6D5E",
"c  c #377767",
"v  c #3B7867",
"b  c #3D7B6A",
"n  c #464C44",
"m  c #554943",
"M  c #5B534D",
"N  c #5A5650",
"B  c #5B5A54",
"V  c #645148",
"C  c #6C5C54",
"Z  c #42695B",
"A  c #6F655D",
"S  c #74655C",
"D  c #726A61",
"F  c #7E736A",
"G  c #86776D",
"H  c #88786E",
"J  c #8C7C72",
"K  c #3C806F",
"L  c #418472",
"P  c #428875",
"I  c #468E7A",
"U  c #568276",
"Y  c #47917D",
"T  c #958378",
"R  c #99867A",
"E  c #97897E",
"W  c #9A897D",
"Q  c #479581",
"!  c #489782",
"~  c #4A9B86",
"^  c #4C9E88",
"/  c #4EA38D",
"(  c #4CAD95",
")  c #51AC95",
"_  c #53AF98",
"`  c #4DB297",
"'  c #54B49B",
"]  c #54B89F",
"[  c #57BAA1",
"{  c #59BCA3",
"}  c #7ABDAB",
"|  c #5ECAAE",
" . c #7BC0AE",
".. c #7EC5B2",
"X. c #898381",
"o. c #9A8E82",
"O. c #A39285",
"+. c #A69488",
"@. c #AD9A8D",
"#. c #AFA194",
"$. c #AFAB9D",
"%. c #B5A294",
"&. c #BFAB9D",
"*. c #B7B6B5",
"=. c #B9B5B4",
"-. c #BABAB9",
";. c #C2AE9F",
":. c #C1AEA0",
">. c #C1B5A6",
",. c #C8B4A5",
"<. c #CAB8A9",
"1. c #D3BEAE",
"2. c #D7C2B2",
"3. c #DBC5B5",
"4. c #DFC9B9",
"5. c #E0CABA",
"6. c #EDD6C5",
"7. c #F4DDCC",
"8. c #F0E3D1",
"9. c #FEE6D4",
"0. c #FFE8D6",
"q. c #FFECD9",
"w. c #FFF1DE",
"e. c #FFF4E1",
"r. c #FFFAE6",
"t. c #FFFEEC",
"y. c #FFFFF4",
"u. c white",
"i. c None",
/* pixels */
"i.i.i.i.i.i.i.i.i.i.i.i.= . . . . . . X i.i.i.i.i.i.i.i.i.i.i.i.",
"i.i.i.i.i.i.i.i.i.i.i.i.$             . i.i.i.i.i.i.i.i.i.i.i.i.",
"i.i.i.i.i.i.i.i.5 . . .                 . . . # i.i.i.i.i.i.i.i.",
"i.i.i.i.i.i.i.i.%                             @ i.i.i.i.i.i.i.i.",
"i.i.i.i.i.i.6   .                             . . # i.i.i.i.i.i.",
"i.i.i.i.i.i.5                                     # i.i.i.i.i.i.",
"i.i.i.i.i.i.6                                     # i.i.i.i.i.i.",
"i.i.i.i.i.i.3   y n O                             $ i.i.i.i.i.i.",
"i.i.i.i.6       #.t.u                                 . i.i.i.i.",
"i.i.i.i.8   s N <.e.F M M M o                 , B s     i.i.i.i.",
"i.i.i.i.8   O.t.q.9.q.e.e.q.O                 g y.+.  . i.i.i.i.",
"i.i.i.i.8   W e.9.9.9.9.9.9.F A A A A A A A A E r.o.  . i.i.i.i.",
"i.i.i.i.8   O.t.q.9.9.0.e.e.e.e.e.e.t.t.e.w.e.e.t.+.    i.i.i.i.",
"i.i.i.i.8   h D 1.q.0.9.G S 6.q.0.6.S H 9.9.q.1.D l i.i.i.i.i.i.",
"i.i.i.i.4       @.t.q.0.,   3.q.q.4.  > 9.q.t.%.  + i.i.i.i.i.i.",
"i.i.i.6 V o.W o.C N 2.q.w   3.q.q.4.  w 0.3.M h   # i.i.i.i.i.i.",
"i.i.X   J t.r.y.h   ;.r.<   3.q.q.5.  < r.,.      + i.i.i.i.i.i.",
"i.i.$   H t.J k Z P n k R %.7.q.q.7.#.o.k a   y $.S 3 i.i.i.i.i.",
"i.i.$   H y.m   b | q   2.t.q.0.0.q.r.3.      h y.+.    i.i.i.i.",
"i.i.i.i.i d *   b { Q I g a p p p s f h ;.:.>.T f 9   . i.i.i.i.",
"i.i.i.i.8       b [ ' { ;             9 q.e.t.%.      . i.i.i.i.",
"i.i.i.i.i.i.=   - q 1 1 L ~ ! ! ~ P   w q.q.e.%.  # i.i.i.i.i.i.",
"i.i.i.i.i.i.6     .     I ' _ _ ' ^   9 6.7.8.+.  # i.i.i.i.i.i.",
"i.i.i.i.i.i.5   z / ^ ^ e - - - & O     $ > $ O   # i.i.i.i.i.i.",
"i.i.i.i.i.i.5   b { [ [ e o     o o O O o o o o   # i.i.i.i.i.i.",
"i.i.i.i.i.i.5   v [ ' ' ( / -   ^ _ ( ) ( ( ' v   @ i.i.i.i.i.i.",
"i.i.i.i.i.i.5   v [ ' ' ' ) & . I ^ ^ ~ ~ ~ / x . 2 i.i.i.i.i.i.",
"i.i.i.i.i.i.5   c ] ( ` ` ( &     o   o       # i.i.i.i.i.i.i.i.",
"i.i.i.i.i.i.5   U ..} } } } >   . @ . . . + . 2 i.i.i.i.i.i.i.i.",
"i.i.i.i.i.i.3   =.u.u.u.u.u.r   i.i.i.i.i.i.i.i.i.i.i.i.i.i.i.i.",
"i.i.i.i.i.i.i.+ X.-.-.-.-.=.0 # i.i.i.i.i.i.i.i.i.i.i.i.i.i.i.i.",
"i.i.i.i.i.i.i.i.#           i.i.i.i.i.i.i.i.i.i.i.i.i.i.i.i.i.i."
};
