/* XPM */
static char *result[] = {
/* columns rows colors chars-per-pixel */
"32 32 126 2 ",
"   c #000000",
".  c #0A0503",
"X  c #0E0806",
"o  c #150906",
"O  c #1D0C06",
"+  c #130B08",
"@  c #1B0E0B",
"#  c #1F110D",
"$  c #1B1714",
"%  c #200D07",
"&  c #220F09",
"*  c #22120D",
"=  c #2B150F",
"-  c #2C1C16",
";  c #231E1B",
":  c #301D18",
">  c #27231F",
",  c #35211B",
"<  c #1D362E",
"1  c #1E3931",
"2  c #2E2A24",
"3  c #3D2B24",
"4  c #372F2B",
"5  c #37312C",
"6  c #38332E",
"7  c #383530",
"8  c #3F3E3D",
"9  c #433530",
"0  c #423C37",
"q  c #4A3B36",
"w  c #473F39",
"e  c #214037",
"r  c #234339",
"t  c #23483D",
"y  c #47423C",
"u  c #4B433E",
"i  c #50443E",
"p  c #2B5549",
"a  c #2E5B4E",
"s  c #336557",
"d  c #356E5F",
"f  c #386E5F",
"g  c #376F60",
"h  c #377362",
"j  c #3F7D6C",
"k  c #4B4540",
"l  c #554A44",
"z  c #5A4D47",
"x  c #564F49",
"c  c #5B524C",
"v  c #535251",
"b  c #5C5B5A",
"n  c #60554D",
"m  c #665850",
"M  c #6F5D53",
"N  c #426658",
"B  c #57645E",
"V  c #6E6057",
"C  c #71665D",
"Z  c #71685F",
"A  c #676464",
"S  c #766C64",
"D  c #7C6D64",
"F  c #7E7067",
"G  c #6D7671",
"H  c #84756A",
"J  c #88766B",
"K  c #87786E",
"L  c #8D7E74",
"P  c #408472",
"I  c #428976",
"U  c #46917D",
"Y  c #8D8176",
"T  c #88817F",
"R  c #958479",
"E  c #99877C",
"W  c #9A897E",
"Q  c #4B9E89",
"!  c #54B39B",
"~  c #58B79F",
"^  c #58B89F",
"/  c #56BAA1",
"(  c #58BDA3",
")  c #5CC0A7",
"_  c #5CC5AA",
"`  c #60CDB2",
"'  c #858383",
"]  c #8C8B8B",
"[  c #9D8C81",
"{  c #939090",
"}  c #A09083",
"|  c #A9978A",
" . c #A9988B",
".. c #AF9F92",
"X. c #B09E90",
"o. c #B3A093",
"O. c #BFAEA1",
"+. c #B0AEAD",
"@. c #B2B0AF",
"#. c #B3B1B0",
"$. c #C0AD9F",
"%. c #C0AFA1",
"&. c #C1B6A7",
"*. c #C2B7A8",
"=. c #C1BAAC",
"-. c #C1BFB1",
";. c #C1C0BF",
":. c #D7C4B4",
">. c #D3CABA",
",. c #DCC9B9",
"<. c #E2CEBE",
"1. c #C8C7C6",
"2. c #CECDCC",
"3. c #D1D1C2",
"4. c #DAD9D8",
"5. c #E7D1C0",
"6. c #FEE7D5",
"7. c #FFE9D6",
"8. c #FFECDA",
"9. c #FFF1DE",
"0. c #FFF4E1",
"q. c #FFFAE6",
"w. c #FFFEEB",
"e. c #FFFFF6",
"r. c #FFFFFF",
"t. c None",
/* pixels */
"t.t.t.t.t.t.t.t.t.t.t.- . . . . . .   t.t.t.t.t.t.t.t.t.t.t.t.t.",
"t.t.t.t.t.t.t.t.t.t.t.=               = t.t.t.t.t.t.t.t.t.t.t.t.",
"t.t.t.t.t.t.t.- . . + .               . + . . t.t.t.t.t.t.t.t.t.",
"t.t.t.t.t.t.t.@                               & t.t.t.t.t.t.t.t.",
"t.t.t.t.t.: + .                               + + t.t.t.t.t.t.t.",
"t.t.t.t.t.@                                       O t.t.t.t.t.t.",
"t.t.t.t.t.#                                       O t.t.t.t.t.t.",
"t.t.t.t.t.*   .                                   & t.t.t.t.t.t.",
"t.t.t.* + .   L 3.0                               . + @ t.t.t.t.",
"t.t.t.X       ..e.x                                   . t.t.t.t.",
"t.t.t.t.t.@    .0.<.>.u                               . t.t.t.t.",
"t.t.t.t.t.*    .0.7.0.c                               . t.t.t.t.",
"t.t.t.t.t.#    .w.V > L 3.k       S 3.c               . t.t.t.t.",
"t.t.t.t.t.#    .w.u   } e.c       Y e.C               . t.t.t.t.",
"t.t.t.t.t.#    .w.l   [ q.:.O.%.O.,.8.,.=.c           . t.t.t.t.",
"t.t.t.t.t.#    .w.i   W 0.8.9.9.0.8.6.8.w.D           . t.t.t.t.",
"t.t.t.t.t.t.t.3 7 L *.5.8.6.6.6.6.6.6.6.8.,.=.n   O t.t.t.t.t.t.",
"t.t.t.t.t.t.t.@    .w.8.6.6.6.6.6.6.6.6.6.8.w.H   & t.t.t.t.t.t.",
"t.t.t.t.t.t.t.*   ; 5 o.9.7.7.7.6.8.8.8.0.R 6 $   O t.t.t.t.t.t.",
"t.t.t.t.t.t.t.@       W 0.7.7.7.7.7.6.6.q.C       O t.t.t.t.t.t.",
"t.t.t.t.t., @ H &.$.&.m 5 5 5 5 4 4 5 5 5 $   c -.M @ t.t.t.t.t.",
"t.t.t.t.t.@   ..w.9.w.l                       F e.K     t.t.t.t.",
"t.t.t.t.t.#    .0.7.9.z   p U I I I I I U r   D e.H   . t.t.t.t.",
"t.t.t.t.t.#   o.q.9.q.z   h _ / / / / / _ a   D e.K   . t.t.t.t.",
"t.t.t.t.t.#   2 y w y N P Q ! ! ! ! ! ! ( p   ; k 3 t.t.t.t.t.t.",
"t.t.t.t.t.O           h _ / ^ ~ ! ! ! ~ _ p       o t.t.t.t.t.t.",
"t.t.t.- * ' #.#.#.8   g ) s < j ! ! ^ f 1 G #.b   % t.t.t.t.t.t.",
"t.t.t..   ;.r.r.r.b   f ` e   s _ ~ _ t   ' r.]   O t.t.t.t.t.t.",
"t.t.t.t.t.i v 1.r.2.#.B 1 - t.2 < < < G #.4.r.'   % t.t.t.t.t.t.",
"t.t.t.t.t.o   +.r.r.r.A   t.t.=       { r.r.r.]   O t.t.t.t.t.t.",
"t.t.t.t.t.t.t.u v v v 3 t.t.t.t.t.t.t.q v v v 9 t.t.t.t.t.t.t.t.",
"t.t.t.t.t.t.t.O       t.t.t.t.t.t.t.t.=       t.t.t.t.t.t.t.t.t."
};
