/* XPM */
static char *result[] = {
/* columns rows colors chars-per-pixel */
"32 32 134 2 ",
"   c #010000",
".  c #0A0403",
"X  c #0E0806",
"o  c #0E0C0A",
"O  c #140703",
"+  c #130A07",
"@  c #190A05",
"#  c #130C0A",
"$  c #1A0E0A",
"%  c #03100D",
"&  c #0C110E",
"*  c #0B1D18",
"=  c #161412",
"-  c #1A1715",
";  c #1F1816",
":  c #111E1A",
">  c #1F1D1B",
",  c #22110C",
"<  c #251410",
"1  c #261916",
"2  c #2C1A15",
"3  c #211D1A",
"4  c #12201B",
"5  c #21201A",
"6  c #39221A",
"7  c #1D3C34",
"8  c #272522",
"9  c #292622",
"0  c #342923",
"q  c #3E2C26",
"w  c #342F2B",
"e  c #203E36",
"r  c #412D25",
"t  c #453632",
"y  c #423A35",
"u  c #4B3A34",
"i  c #453F3A",
"p  c #1E4137",
"a  c #214239",
"s  c #24493E",
"d  c #46453E",
"f  c #4D433E",
"g  c #364F45",
"h  c #295146",
"j  c #28574A",
"k  c #336356",
"l  c #326659",
"z  c #346B5D",
"x  c #366F60",
"c  c #377262",
"v  c #3C7A6A",
"b  c #4F4A44",
"n  c #504640",
"m  c #5C514B",
"M  c #585250",
"N  c #545957",
"B  c #62564F",
"V  c #665750",
"C  c #645B54",
"Z  c #695E56",
"A  c #6B6057",
"S  c #6E6159",
"D  c #71645C",
"F  c #606D62",
"G  c #607A6D",
"H  c #7D7066",
"J  c #7D776C",
"K  c #837268",
"L  c #8A7E73",
"P  c #3E816F",
"I  c #418472",
"U  c #47937F",
"Y  c #49947F",
"T  c #8C8076",
"R  c #908176",
"E  c #93857A",
"W  c #97897F",
"Q  c #479682",
"!  c #499783",
"~  c #4B9B86",
"^  c #4B9C88",
"/  c #599885",
"(  c #4DA28C",
")  c #50AA93",
"_  c #4EB79E",
"`  c #4EB99E",
"'  c #53B29A",
"]  c #58B79E",
"[  c #55B89F",
"{  c #5AB89F",
"}  c #56BBA2",
"|  c #59BCA3",
" . c #5CC1A7",
".. c #5CC3A9",
"X. c #8A8584",
"o. c #9F8E82",
"O. c #9F9085",
"+. c #8E9492",
"@. c #9D9796",
"#. c #A69487",
"$. c #A69488",
"%. c #A99689",
"&. c #AB9E91",
"*. c #AEAB9B",
"=. c #B4A093",
"-. c #B6A698",
";. c #A3A8A5",
":. c #BEADA0",
">. c #BEBAB9",
",. c #C1AFA2",
"<. c #C9B5A6",
"1. c #CBB7A8",
"2. c #CDB9AA",
"3. c #8AC8B1",
"4. c #CFC1B1",
"5. c #D6C1B1",
"6. c #DAC5B5",
"7. c #DDCCBC",
"8. c #C9D1CE",
"9. c #DDDADA",
"0. c #ECD7C6",
"q. c #F5DECD",
"w. c #CDE1CB",
"e. c #F7E0CE",
"r. c #FDE6D4",
"t. c #FFE9D7",
"y. c #FEECDA",
"u. c #FFF1DE",
"i. c #FFF4E1",
"p. c #FFF9E5",
"a. c #FFFDEA",
"s. c #ECF7F3",
"d. c #EEF9F5",
"f. c None",
/* pixels */
"f.f.f.f.f.f.f.f.f.f.f.f.. . .   . . # f.f.f.f.f.f.f.f.f.f.f.f.f.",
"f.f.f.f.f.f.f.f.f.f.f.f.            . f.f.f.f.f.f.f.f.f.f.f.f.f.",
"f.f.f.f.f.f.f.f.,                           f.f.f.f.f.f.f.f.f.f.",
"f.f.f.f.f.f.f.f.$                           , f.f.f.f.f.f.f.f.f.",
"f.f.f.f.f.f.f.                                  f.f.f.f.f.f.f.f.",
"f.f.f.f.f.f.f.                                  f.f.f.f.f.f.f.f.",
"f.f.f.f.f.f.f.    .                             f.f.f.f.f.f.f.f.",
"f.f.f.f.f.+     o.7.=                           X $ f.f.f.f.f.f.",
"f.f.f.f.f.  # 8 :.u.i 8 9 =                 - 8   . f.f.f.f.f.f.",
"f.f.f.f.f.  S i.t.t.r.r.i.E                 O.t.3   f.f.f.f.f.f.",
"f.f.f.f.f.  D i.t.t.t.t.i.-.C C C C C C C C 1.t.3   f.f.f.f.f.f.",
"f.f.f.f.f.  D a.t.t.t.t.y.i.i.i.i.a.a.i.i.i.i.t.3   f.f.f.f.f.f.",
"f.f.f.f.f.f.r b <.y.y.7.n E y.y.e.V C t.t.i.L f f.f.f.f.f.f.f.f.",
"f.f.f.f.f.f.f.  $.y.y.2.  m i.y.q.o - r.t.y.f   f.f.f.f.f.f.f.f.",
"f.f.f.f.f.f.f.f.2 3 0.6.  m i.t.e.# > i.%.3 f.f.f.f.f.f.f.f.f.f.",
"f.f.f.f.f.f.f.f.4 : -.=.9 H u.t.e.y y 4.K * f.f.f.f.f.f.f.f.f.f.",
"f.f.f.f.f.f.f.  v [   1 u.i.i.i.i.a.5.  p ..7   f.f.f.f.f.f.f.f.",
"f.f.f.f.f.f.u A / [ j g R R T R T E J h c } G C 6 f.f.f.f.f.f.f.",
"f.f.f.f.f.  A a.3.` ..~             % [  ._ w.y.=   f.f.f.f.f.f.",
"f.f.f.2 q o.<.i.F p ( ) c c c c c c v [ I p *.y.&.K < f.f.f.f.f.",
"f.f.f.  w i.u.u.t   Q } } } } } } } } | l   o.i.a.5.  f.f.f.f.f.",
"f.f.f.  w u.u.p.i   ^ | [ [ [ [ [ [ [  .z   $.a.p.5.  f.f.f.f.f.",
"f.f.f.X 0 2.2.4.d : I Q U U U Q U U U ~ k : L 4.4.%.. f.f.f.f.f.",
"f.f.f.f.f.      v ' &                   a  .7     . f.f.f.f.f.f.",
"f.f.f.f.f.@ .   v } h e a a a a a a a e x  .7   O , f.f.f.f.f.f.",
"f.f.f.f.f.f.f.  v } } } | |  . ...| } } [ } 7   f.f.f.f.f.f.f.f.",
"f.f.f.f.f.f.f.  v } ' ' } I 7 7 e ( [ ' ' } 7   f.f.f.f.f.f.f.f.",
"f.f.f.f.f.f.f.  v } ) ' | k       Y } ) ' { e   f.f.f.f.f.f.f.f.",
"f.f.f.f.f.f.f.  ;.d.s.s.d.+.      8.d.d.s.d.N   f.f.f.f.f.f.f.f.",
"f.f.f.f.f.f.f.. @.9.9.9.9.X.. X # 2.9.9.9.9.M . f.f.f.f.f.f.f.f.",
"f.f.f.f.f.f.f.f.,         $ f.f.f.#         f.f.f.f.f.f.f.f.f.f.",
"f.f.f.f.f.f.f.f.f.. .   . f.f.f.f.#   .   . f.f.f.f.f.f.f.f.f.f."
};
