/* XPM */
static char *result[] = {
/* columns rows colors chars-per-pixel */
"32 32 126 2 ",
"   c #000000",
".  c #0A0503",
"X  c #0E0806",
"o  c #150906",
"O  c #1D0C06",
"+  c #130B08",
"@  c #1B0E0B",
"#  c #1F110D",
"$  c #1B1714",
"%  c #200D07",
"&  c #220F09",
"*  c #22120D",
"=  c #2B150F",
"-  c #2C1C16",
";  c #231E1B",
":  c #301D18",
">  c #27231F",
",  c #35211B",
"<  c #1D362E",
"1  c #1E3931",
"2  c #2E2A24",
"3  c #3D2B24",
"4  c #372F2B",
"5  c #37312C",
"6  c #38332E",
"7  c #383530",
"8  c #3F3E3D",
"9  c #433530",
"0  c #423C37",
"q  c #4A3B36",
"w  c #473F39",
"e  c #214037",
"r  c #234339",
"t  c #23483D",
"y  c #47423C",
"u  c #4B433E",
"i  c #50443E",
"p  c #2B5549",
"a  c #2E5B4E",
"s  c #336557",
"d  c #356E5F",
"f  c #386E5F",
"g  c #376F60",
"h  c #377362",
"j  c #3F7D6C",
"k  c #4B4540",
"l  c #554A44",
"z  c #5A4D47",
"x  c #564F49",
"c  c #5B524C",
"v  c #535251",
"b  c #5C5B5A",
"n  c #60554D",
"m  c #665850",
"M  c #6F5D53",
"N  c #426658",
"B  c #57645E",
"V  c #6E6057",
"C  c #71665D",
"Z  c #71685F",
"A  c #676464",
"S  c #766C64",
"D  c #7C6D64",
"F  c #7E7067",
"G  c #6D7671",
"H  c #84756A",
"J  c #88766B",
"K  c #87786E",
"L  c #8D7E74",
"P  c #408472",
"I  c #428976",
"U  c #46917D",
"Y  c #8D8176",
"T  c #88817F",
"R  c #958479",
"E  c #99877C",
"W  c #9A897E",
"Q  c #4B9E89",
"!  c #54B39B",
"~  c #58B79F",
"^  c #58B89F",
"/  c #56BAA1",
"(  c #58BDA3",
")  c #5CC0A7",
"_  c #5CC5AA",
"`  c #60CDB2",
"'  c #858383",
"]  c #8C8B8B",
"[  c #9D8C81",
"{  c #939090",
"}  c #A09083",
"|  c #A9978A",
" . c #A9988B",
".. c #AF9F92",
"X. c #B09E90",
"o. c #B3A093",
"O. c #BFAEA1",
"+. c #B0AEAD",
"@. c #B2B0AF",
"#. c #B3B1B0",
"$. c #C0AD9F",
"%. c #C0AFA1",
"&. c #C1B6A7",
"*. c #C2B7A8",
"=. c #C1BAAC",
"-. c #C1BFB1",
";. c #C1C0BF",
":. c #D7C4B4",
">. c #D3CABA",
",. c #DCC9B9",
"<. c #E2CEBE",
"1. c #C8C7C6",
"2. c #CECDCC",
"3. c #D1D1C2",
"4. c #DAD9D8",
"5. c #E7D1C0",
"6. c #FEE7D5",
"7. c #FFE9D6",
"8. c #FFECDA",
"9. c #FFF1DE",
"0. c #FFF4E1",
"q. c #FFFAE6",
"w. c #FFFEEB",
"e. c #FFFFF6",
"r. c #FFFFFF",
"t. c None",
/* pixels */
"t.t.t.t.t.t.t.t.t.t.t.t.. . . . . .   : t.t.t.t.t.t.t.t.t.t.t.t.",
"t.t.t.t.t.t.t.t.t.t.t.*               * t.t.t.t.t.t.t.t.t.t.t.t.",
"t.t.t.t.t.t.t.t.. X o X               . X . X - t.t.t.t.t.t.t.t.",
"t.t.t.t.t.t.t.&                               * t.t.t.t.t.t.t.t.",
"t.t.t.t.t.t.+ X                               . + : t.t.t.t.t.t.",
"t.t.t.t.t.O                                       @ t.t.t.t.t.t.",
"t.t.t.t.t.%                                       # t.t.t.t.t.t.",
"t.t.t.t.t.*                                   .   * t.t.t.t.t.t.",
"t.t.t.@ @ X                               0 3.L   . + * t.t.t.t.",
"t.t.t..                                   x e...      X t.t.t.t.",
"t.t.t..                               y >.<.0. .  @ t.t.t.t.t.t.",
"t.t.t..                               c 0.7.9. .  * t.t.t.t.t.t.",
"t.t.t..               c 3.S       k 3.Y > V w. .  # t.t.t.t.t.t.",
"t.t.t..               Z e.Y       c e.}   u w.|   # t.t.t.t.t.t.",
"t.t.t..           c O.,.8.,.O.%.O.:.q.[   l w. .  # t.t.t.t.t.t.",
"t.t.t..           S e.8.6.8.0.9.0.8.0.W   k w. .  # t.t.t.t.t.t.",
"t.t.t.t.t.O   n =.,.7.6.6.6.6.6.6.6.7.5.*.L 7 3 t.t.t.t.t.t.t.t.",
"t.t.t.t.t.%   H w.8.6.6.6.6.6.6.6.6.6.7.w. .  @ t.t.t.t.t.t.t.t.",
"t.t.t.t.t.O   $ 7 R 0.7.7.7.7.7.7.7.0.o.5 ;   * t.t.t.t.t.t.t.t.",
"t.t.t.t.t.%       C q.7.7.7.7.7.7.7.0.E       @ t.t.t.t.t.t.t.t.",
"t.t.t.t.@ M -.c   $ 5 5 5 4 5 5 5 5 6 m &.%.&.J @ , t.t.t.t.t.t.",
"t.t.t.    K r.F                       l w.9.w...  @ t.t.t.t.t.t.",
"t.t.t..   H w.S   r U I I I I I U p   z 9.7.0. .  # t.t.t.t.t.t.",
"t.t.t..   K e.F   a _ / / / / ^ _ g   z q.9.q.X.  # t.t.t.t.t.t.",
"t.t.t.t.t.3 y ;   p ( ! ! ! ! ! ~ Q P N y w y 2   # t.t.t.t.t.t.",
"t.t.t.t.t.O       p _ ~ ! ! ! ! / / _ h           O t.t.t.t.t.t.",
"t.t.t.t.t.O   b @.G 1 f ~ ! ~ j < s ( g   8 #.@.#.T * - t.t.t.t.",
"t.t.t.t.t.&   ] r.'   t _ ^ _ s   e ` d   b r.r.r.;.  . t.t.t.t.",
"t.t.t.t.t.@   ' r.4.#.G < < 1 2 t.- 1 B #.2.r.1.v k t.t.t.t.t.t.",
"t.t.t.t.t.O   ] r.r.r.{       = t.t.  A r.r.r.+.  o t.t.t.t.t.t.",
"t.t.t.t.t.t.t.9 v v v q t.t.t.t.t.t.t.3 v v v k t.t.t.t.t.t.t.t.",
"t.t.t.t.t.t.t.t.      = t.t.t.t.t.t.t.t.      O t.t.t.t.t.t.t.t."
};
