/* XPM */
static char *result[] = {
/* columns rows colors chars-per-pixel */
"32 32 241 2 ",
"   c black",
".  c #010000",
"X  c #010100",
"o  c #010101",
"O  c #020000",
"+  c #020100",
"@  c #030100",
"#  c #020101",
"$  c #040100",
"%  c #050100",
"&  c #060000",
"*  c #070000",
"=  c #040201",
"-  c #060201",
";  c #060301",
":  c #050303",
">  c #070302",
",  c #000403",
"<  c #040403",
"1  c #050707",
"2  c #070606",
"3  c #070706",
"4  c #080000",
"5  c #090000",
"6  c #080100",
"7  c #0A0100",
"8  c #080301",
"9  c #0C0200",
"0  c #0A0401",
"q  c #080402",
"w  c #090402",
"e  c #0B0402",
"r  c #0A0403",
"t  c #0D0401",
"y  c #0D0402",
"u  c #0F0502",
"i  c #0F0503",
"p  c #080707",
"a  c #0D0604",
"s  c #0D0705",
"d  c #0E0706",
"f  c #030907",
"g  c #050807",
"h  c #050A08",
"j  c #0B0A09",
"k  c #090F0D",
"l  c #110603",
"z  c #120703",
"x  c #140705",
"c  c #130805",
"v  c #120907",
"b  c #120A07",
"n  c #150804",
"m  c #140905",
"M  c #150907",
"N  c #160A07",
"B  c #180904",
"V  c #1A0B05",
"C  c #1D0B05",
"Z  c #1E0C06",
"A  c #120A08",
"S  c #130A08",
"D  c #150B08",
"F  c #160C09",
"G  c #180C0A",
"H  c #180D0A",
"J  c #190D0A",
"K  c #1A0D0A",
"L  c #1D0E0B",
"P  c #1D0F0C",
"I  c #05120F",
"U  c #1F100B",
"Y  c #1E110C",
"T  c #091210",
"R  c #0A1410",
"E  c #151413",
"W  c #191513",
"Q  c #1E1E1D",
"!  c #1E1E1E",
"~  c #20110C",
"^  c #23120E",
"/  c #24120E",
"(  c #25140F",
")  c #261410",
"_  c #271410",
"`  c #271510",
"'  c #291610",
"]  c #2B1711",
"[  c #231E1C",
"{  c #311D18",
"}  c #311E18",
"|  c #321E19",
" . c #1C261F",
".. c #21201E",
"X. c #24221F",
"o. c #172C26",
"O. c #1E3931",
"+. c #2B2220",
"@. c #2C2926",
"#. c #322B26",
"$. c #342C27",
"%. c #302C28",
"&. c #322E2A",
"*. c #352F2A",
"=. c #352F2B",
"-. c #36312E",
";. c #36332E",
":. c #38302B",
">. c #393430",
",. c #3A3531",
"<. c #373831",
"1. c #463F3A",
"2. c #28453B",
"3. c #26483D",
"4. c #46403B",
"5. c #49443F",
"6. c #295247",
"7. c #325A4D",
"8. c #345B4E",
"9. c #316355",
"0. c #336A5C",
"q. c #346B5C",
"w. c #346C5D",
"e. c #3A6F5F",
"r. c #3C7C6A",
"t. c #4E4742",
"y. c #534C46",
"u. c #5B534C",
"i. c #5B564F",
"p. c #5C544E",
"a. c #5D554F",
"s. c #66584F",
"d. c #68584F",
"f. c #675850",
"g. c #6F5D53",
"h. c #6F5D54",
"j. c #756358",
"k. c #756860",
"l. c #756960",
"z. c #766C63",
"x. c #877D71",
"c. c #877C72",
"v. c #877D72",
"b. c #40826F",
"n. c #418976",
"m. c #8E8176",
"M. c #998A7F",
"N. c #4B9581",
"B. c #489682",
"V. c #489782",
"C. c #489883",
"Z. c #4B9B85",
"A. c #4B9D88",
"S. c #4DA18B",
"D. c #51A48D",
"F. c #55B39B",
"G. c #55B49C",
"H. c #55B59D",
"J. c #58B29A",
"K. c #58B79E",
"L. c #58BAA1",
"P. c #5CBCA4",
"I. c #5AC2A8",
"U. c #5DC7AC",
"Y. c #60CAAE",
"T. c #998C80",
"R. c #9C9588",
"E. c #A8988D",
"W. c #AE9C8F",
"Q. c #B1A093",
"!. c #B6A497",
"~. c #C4B1A3",
"^. c #C7B3A4",
"/. c #CCB8A9",
"(. c #CDB8A9",
"). c #CEBAAB",
"_. c #D1BDAD",
"`. c #D2BDAD",
"'. c #BCC3BF",
"]. c #D5C3B4",
"[. c #D8C2B3",
"{. c #D8C3B3",
"}. c #DAC3B3",
"|. c #DAC4B4",
" X c #DCC7B7",
".X c #E2CCBB",
"XX c #E1CDBD",
"oX c #E2CEBF",
"OX c #E6D0BF",
"+X c #CBC7C6",
"@X c #CDD7D3",
"#X c #D7D6D5",
"$X c #D7D6D6",
"%X c #D9D9D8",
"&X c #DADAD9",
"*X c #DEDBDA",
"=X c #E9D3C2",
"-X c #EBD3C2",
";X c #EAD5C5",
":X c #F5DDCC",
">X c #F6E0CF",
",X c #F7E1CF",
"<X c #FEE6D4",
"1X c #FEE7D5",
"2X c #FFE7D5",
"3X c #FFE8D5",
"4X c #FFE8D6",
"5X c #FFEBD8",
"6X c #FFEBD9",
"7X c #FFECD9",
"8X c #FFECDA",
"9X c #FFEDDA",
"0X c #FFEDDB",
"qX c #FFEEDC",
"wX c #FFEFDC",
"eX c #FFEFDD",
"rX c #F5F0DE",
"tX c #FFF0DC",
"yX c #FFF0DD",
"uX c #FFF0DE",
"iX c #FFF1DE",
"pX c #FFF2DF",
"aX c #E8F2EF",
"sX c #FFF4E0",
"dX c #FFF5E1",
"fX c #FFF7E5",
"gX c #FFF9E5",
"hX c #FFF9E6",
"jX c #FFFBE8",
"kX c #FFFCE8",
"lX c #FFFEE9",
"zX c #FFFEEA",
"xX c #E8F3F0",
"cX c #FAF7F7",
"vX c #FFFFF2",
"bX c #FFFFF6",
"nX c #FFFFF7",
"mX c #FAF7F8",
"MX c #FBFBFB",
"NX c #FCFBFB",
"BX c None",
/* pixels */
"BXBXBXBXBXBXBXBXBXBXBXBXv             % BXBXBXBXBXBXBXBXBXBXBXBX",
"BXBXBXBXBXBXBXBX} v A S q + + + + + + ; D S b ~ BXBXBXBXBXBXBXBX",
"BXBXBXBXBXBXBXBXL       +             X       y BXBXBXBXBXBXBXBX",
"BXBXBXBXBXBX{ s q + + @ .               @ + + > d U BXBXBXBXBXBX",
"BXBXBXBXBXBX/   O                             o   l BXBXBXBXBXBX",
"BXBXBXBXBXBX_                                 #   z BXBXBXBXBXBX",
"BXBXBXBXBXBX^ + W ..3                         # + c BXBXBXBXBXBX",
"BXBXBXBXF # $ . E.rX%.                          . = : a BXBXBXBX",
"BXBXBXBXY 0 8 . Q.jXp.@.p                         +   8 BXBXBXBX",
"BXBXBXBXBXBX( . W.pXqXiXX.                        +   w BXBXBXBX",
"BXBXBXBXBXBX`   W.sX_.~.t.>.3     < -.&.o         +   w BXBXBXBX",
"BXBXBXBXBXBX)   W.gX$.  ).qXE     2 >XoX          +   w BXBXBXBX",
"BXBXBXBXBXBX)   W.gX:.  /.0Xa.4.4.y.,X;X5.,.      +   w BXBXBXBX",
"BXBXBXBXBXBX^   !.vX#.  ^.uXwXyXyXeX1X4XfX].      X   - BXBXBXBX",
"BXBXBXBXBXBXBXB j.R.s.u. X8X2X4X4X3X1X1X8XXXi.1.@ e V BXBXBXBXBX",
"BXBXBXBXBXBXBXBXn   (.bX8X<X1X1X1X1X1X1X<X7XnX[.  i BXBXBXBXBXBX",
"BXBXBXBXBXBXBXBXBXC g.v.OX6X1X1X1X1X1X1X5X=Xc.h.Z BXBXBXBXBXBXBX",
"BXBXBXBXBXBXBXBXBXBX9   `.zXdXdXdXdXdXdXlX|.    BXBXBXBXBXBXBXBX",
"BXBXBXBXBXBXBXBXBXBXBXBXd.z.l.l.l.l.k.k.z.f.BXBXBXBXBXBXBXBXBXBX",
"BXBXBXBXBXBXBXBXBXBXBXBX4                   BXBXBXBXBXBXBXBXBXBX",
"BXBXBXBXBXBXBXBXBXBXBX] 8.q.k     g 9.0.w.7.' BXBXBXBXBXBXBXBXBX",
"BXBXBXBXBXBXBXBXBXBXM   S.Y.I     , L.U.I.A.  7 BXBXBXBXBXBXBXBX",
"BXBXBXBXBXBXBXBXBXBXK   O.3.x.T.M.m.2.6.H.B.  u BXBXBXBXBXBXBXBX",
"BXBXBXBXBXBXBXBXBXBXH       .XkXhX:X& h F.V.  u BXBXBXBXBXBXBXBX",
"BXBXBXBXBXBXBXBXBXBXBXBXa   {.yX0X=Xr T G.C.  u BXBXBXBXBXBXBXBX",
"BXBXBXBXBXBXBXBXBXBXBXBXx   }.tX9X-X5 k K.Z.  u BXBXBXBXBXBXBXBX",
"BXBXBXBXBXBXBXBXBXBX| J e.n.<.=.*.;.b.r.o. .BXBXBXBXBXBXBXBXBXBX",
"BXBXBXBXBXBXBXBXBXBXN   N.P.R     f J.D.  4 BXBXBXBXBXBXBXBXBXBX",
"BXBXBXBXBXBXBXBXBXBXG   '.xX&X#X$X%XaX@X1 6 BXBXBXBXBXBXBXBXBXBX",
"BXBXBXBXBXBXBXBXBXBXP @ +XcXMXNXNXMXmX*Xj t BXBXBXBXBXBXBXBXBXBX",
"BXBXBXBXBXBXBXBXBXBXBXBX+.! Q Q Q Q ! [ BXBXBXBXBXBXBXBXBXBXBXBX",
"BXBXBXBXBXBXBXBXBXBXBXBXm             * BXBXBXBXBXBXBXBXBXBXBXBX"
};
