/* XPM */
static char *result[] = {
/* columns rows colors chars-per-pixel */
"32 32 227 2 ",
"   c #5F4B3E",
".  c #6D5231",
"X  c #7C7358",
"o  c #9B533B",
"O  c #A5532A",
"+  c #AE5232",
"@  c #A65D34",
"#  c #B45733",
"$  c #BF5633",
"%  c #B15832",
"&  c #8F7B3C",
"*  c #9E793A",
"=  c #A76234",
"-  c #AD6333",
";  c #AB6433",
":  c #A96237",
">  c #A96435",
",  c #AB6434",
"<  c #AA6437",
"1  c #A36835",
"2  c #AA643D",
"3  c #A17636",
"4  c #A67D39",
"5  c #C44A26",
"6  c #C85126",
"7  c #C4532B",
"8  c #D95328",
"9  c #DA5B2C",
"0  c #DC5A2E",
"q  c #DE5D2F",
"w  c #C05732",
"e  c #D15932",
"r  c #D75931",
"t  c #DB5B32",
"y  c #DF5E33",
"u  c #E05C2F",
"i  c #E15C2F",
"p  c #E15D30",
"a  c #E15D31",
"s  c #E15E31",
"d  c #E65C31",
"f  c #E55E33",
"g  c #ED6028",
"h  c #EC612A",
"j  c #E46A3B",
"k  c #E56A3B",
"l  c #E66A3B",
"z  c #E46A3C",
"x  c #E46C3E",
"c  c #E56C3E",
"v  c #ED6938",
"b  c #EF6B3A",
"n  c #F26737",
"m  c #F56436",
"M  c #FA6536",
"N  c #F26937",
"B  c #FB6A35",
"V  c #FF6B35",
"C  c #FF6936",
"Z  c #FC6B36",
"A  c #FC6B37",
"S  c #FF6B36",
"D  c #FF6A37",
"F  c #FF6B37",
"G  c #FF6C35",
"H  c #FD6C36",
"J  c #FC6C37",
"K  c #FD6C37",
"L  c #FE6D36",
"P  c #FE6C37",
"I  c #FE6D37",
"U  c #FF6D37",
"Y  c #FF6E36",
"T  c #FF6F36",
"R  c #FF6E37",
"E  c #FF6F37",
"W  c #F36B39",
"Q  c #FD6A38",
"!  c #FF6A38",
"~  c #FF6B39",
"^  c #FB6C38",
"/  c #FB6D38",
"(  c #F86D3B",
")  c #FD6C38",
"_  c #FD6D38",
"`  c #FD6D39",
"'  c #FF6C39",
"]  c #FF6D39",
"[  c #FD6E39",
"{  c #FF6E38",
"}  c #FF6E39",
"|  c #FF6F39",
" . c #FD6E3A",
".. c #FD6F3B",
"X. c #915E4B",
"o. c #8B6752",
"O. c #916B5C",
"+. c #976E5E",
"@. c #A66142",
"#. c #A96442",
"$. c #AA6442",
"%. c #A86346",
"&. c #A96446",
"*. c #847566",
"=. c #947167",
"-. c #A18538",
";. c #AB913F",
":. c #9E954E",
">. c #AE9940",
",. c #B39B40",
"<. c #B79941",
"1. c #B49A41",
"2. c #B49B41",
"3. c #B99F42",
"4. c #AA9D52",
"5. c #ACA346",
"6. c #ADA148",
"7. c #ACA04C",
"8. c #AFA24D",
"9. c #AEA84B",
"0. c #B7A243",
"q. c #B1A44A",
"w. c #B2A44A",
"e. c #B0A34F",
"r. c #B2A54C",
"t. c #B3A54D",
"y. c #B1A74D",
"u. c #B8AB4D",
"i. c #BDB44E",
"p. c #AFA250",
"a. c #A9A05E",
"s. c #8F8962",
"d. c #908E61",
"f. c #908A66",
"g. c #98846B",
"h. c #9B9567",
"j. c #9C9564",
"k. c #B89574",
"l. c #B89F7F",
"z. c #ADA562",
"x. c #A8A26A",
"c. c #C4B340",
"v. c #C7B543",
"b. c #CDBC41",
"n. c #C9B845",
"m. c #CBB944",
"M. c #CCBB46",
"N. c #C2B44A",
"B. c #C7B94C",
"V. c #D1BB42",
"C. c #D1BA43",
"Z. c #C2936F",
"A. c #C5C14C",
"S. c #DBCA45",
"D. c #D8C749",
"F. c #DFD24C",
"G. c #E1CE46",
"H. c #E2CE46",
"J. c #E4D754",
"K. c #E6D953",
"L. c #EBDD53",
"P. c #ECDD53",
"I. c #EBDE54",
"U. c #FAE34C",
"Y. c #FCE54F",
"T. c #FFE84F",
"R. c #E9E154",
"E. c #EDE055",
"W. c #F1E255",
"Q. c #F4E454",
"!. c #FBE352",
"~. c #FBE253",
"^. c #FCE352",
"/. c #FDE352",
"(. c #FCE353",
"). c #FBE452",
"_. c #FAE453",
"`. c #FBE453",
"'. c #FCE452",
"]. c #FDE453",
"[. c #FEE553",
"{. c #FFE553",
"}. c #FCE354",
"|. c #FAE455",
" X c #FDE554",
".X c #FDE555",
"XX c #FEE654",
"oX c #FFEA50",
"OX c #FFEA53",
"+X c #FFEC53",
"@X c #FFE954",
"#X c #FCEB55",
"$X c #FFEA54",
"%X c #FFEB54",
"&X c #FFEA55",
"*X c #FFEB55",
"=X c #FFEC55",
"-X c #FFEE54",
";X c #FFEE55",
":X c #FFED56",
">X c #FFED57",
",X c #FFEE56",
"<X c #FFEE57",
"1X c #FDE758",
"2X c #FEEB59",
"3X c #FFED58",
"4X c #FFEE58",
"5X c #FFF053",
"6X c #FFF059",
"7X c #FFF159",
"8X c #FFF458",
"9X c #FFF658",
"0X c #FFF759",
"qX c #C1B699",
"wX c #D3C1A0",
"eX c #D0C4A2",
"rX c #D9CDA3",
"tX c #E6D4AD",
"yX c #EADBB4",
"uX c #F6E4B3",
"iX c #F6E3B6",
"pX c #F5E3B8",
"aX c #FFEEBA",
"sX c #FFF4C1",
"dX c #FFF6C3",
"fX c #FFFAC7",
"gX c None",
/* pixels */
"gXgXgXgXgXgXgXgXgXgXgXgX  N.2X|.`.1XJ.. =.gXgXgXgXgXgXgXgXgXgXgX",
"gXgXgXgXgXgXgXgXgXgX+.5 4 7X!._.).~.6X<.8 + gXgXgXgXgXgXgXgXgXgX",
"gXgXgXgXgXgXgXgXgXX.h M * 6X{.[.[.{.8X;.f E 6 gXgXgXgXgXgXgXgXgX",
"gXgXgXgXgXgXgXgXO.g R ] # 5.R.I.L.E.A.: Q K T 7 gXgXgXgXgXgXgXgX",
"gXgXgXx.8.q.z.*.9 E K P H w = ; - , % n I K K G o d.y.w.a.gXgXgX",
"gXgXb.T.%X5XF.O R K ) K K { F D S D ] U K K K { d -.9X%XoXS.s.gX",
"gXc.;X(.(.,X>.r } K K K K K K K K K K K K K K ) ~ @ K.XX(.*XH.gX",
"h.U.].(.'.#X3 m P K K K K K K K K K K K K K K K | $ B.$X(.}.:X7.",
"p.+X(.(. XW.1 C K K K K K K K K K K K K K K K K R e 0.>X(.(.&Xn.",
"t.OX(.(..XP.> D P K K K K K K K K K K K K K K K R t ,.3X(.(.&XV.",
"r.OX(.(. XP.< ! K K K K K K K K K K K K K K K K Y t 2.<X(.(.@XC.",
"e.%X^.(. XP.2 ! K K K K K K K K K K K K K K K K Y t 2.<X(.(.&Xm.",
"j.Y./.(. XP.#.! K K K K K K K K K K K K K K K K Y t 2.<X(.}.-X6.",
"gXv.;X(. XP.#.! K K K K K K K K K K K K K K K K Y t 1.<X(.=XG.gX",
"gXgXM.+X4XQ.$.! K K K K K K K K K K K K K K K K Y t 3.0X%XD.f.gX",
"gXgXgX:.u.9.@.' K K K K K K K K K K K K K K K K Y y & i.4.X gXgX",
"gXgXgXtXwXqX%.V K K K K K K K K K K K K K K K K Y q g.eXyXgXgXgX",
"gXgXgXgXsXpX&.N K K K K K K K K K K K K K K K K Y 0 l.dXaXgXgXgX",
"gXgXgXgXuXiX&.v K K K K K K K K K K K K K K K K Y u k.fXgXgXgXgX",
"gXgXgXgXgXrX&.l K K K K K K K K K K K K K K K K L i Z.gXgXgXgXgX",
"gXgXgXgXgXgX&.j K K K K K K K K K K K K K K K K B i o.gXgXgXgXgX",
"gXgXgXgXgXgX&.z J J A K K Z K K H K H K K K K K ^ p gXgXgXgXgXgX",
"gXgXgXgXgXgX&.c ` ) ) K K ( K J / K K K K K K K _ a gXgXgXgXgXgX",
"gXgXgXgXgXgX&.x ` _ _ K K ..K K ` _ K K K K K K ) a gXgXgXgXgXgX",
"gXgXgXgXgXgX&.c _ _  .K K _ K K [ K K K K K K K K s gXgXgXgXgXgX",
"gXgXgXgXgXgX&.k K K K K K K K K K K K K K K K K K i gXgXgXgXgXgX",
"gXgXgXgXgXgX&.j K K K K K K K K K K K K K K K K K i gXgXgXgXgXgX",
"gXgXgXgXgXgX&.j K K K K K K K K K K K K K K K K K i gXgXgXgXgXgX",
"gXgXgXgXgXgX&.b K K K K K K K K K K K K K K K K K i gXgXgXgXgXgX",
"gXgXgXgXgXgX&.W K K K K K K K K K K K K K K K K K i gXgXgXgXgXgX",
"gXgXgXgXgXgX&.W K K K K K K K K K K K K K K K K K i gXgXgXgXgXgX",
"gXgXgXgXgXgX&.W K K K K K K K K K K K K K K K K K i gXgXgXgXgXgX"
};
