/* XPM */
static char *result[] = {
/* columns rows colors chars-per-pixel */
"32 32 109 2 ",
"   c #171414",
".  c #171415",
"X  c #191415",
"o  c #181515",
"O  c #181416",
"+  c #181516",
"@  c #191516",
"#  c #181517",
"$  c #191616",
"%  c #191617",
"&  c #1A1617",
"*  c #1B1617",
"=  c #1A1717",
"-  c #1A1518",
";  c #1A1618",
":  c #1B1618",
">  c #1A1718",
",  c #1B1718",
"<  c #1A1919",
"1  c #1B181A",
"2  c #1C1819",
"3  c #1D1819",
"4  c #1C191A",
"5  c #1E191B",
"6  c #1D1A1B",
"7  c #1F1A1B",
"8  c #1E1B1B",
"9  c #1E1B1C",
"0  c #1F1B1C",
"q  c #1F1B1D",
"w  c #1E1C1D",
"e  c #1E1D1D",
"r  c #1F1C1E",
"t  c #1F1D1E",
"y  c #1E1E1E",
"u  c #1F1E1E",
"i  c #201719",
"p  c #201C1D",
"a  c #221E1D",
"s  c #201C1E",
"d  c #201D1E",
"f  c #211D1F",
"g  c #221D1F",
"h  c #211E1E",
"j  c #201E1F",
"k  c #211E1F",
"l  c #221E1E",
"z  c #221E1F",
"x  c #231E1F",
"c  c #221F1F",
"v  c #241E1F",
"b  c #251E1F",
"n  c #211E20",
"m  c #201F20",
"M  c #211F20",
"N  c #221E20",
"B  c #231E20",
"V  c #221F20",
"C  c #231F20",
"Z  c #221F21",
"A  c #241E20",
"S  c #241F20",
"D  c #251F20",
"F  c #261F20",
"G  c #2B1F20",
"H  c #222021",
"J  c #232121",
"K  c #222022",
"L  c #242021",
"P  c #252122",
"I  c #252222",
"U  c #262323",
"Y  c #272323",
"T  c #272324",
"R  c #262424",
"E  c #2A2021",
"W  c #292225",
"Q  c #292325",
"!  c #292525",
"~  c #282426",
"^  c #292526",
"/  c #292627",
"(  c #282727",
")  c #2A2626",
"_  c #292628",
"`  c #2B2628",
"'  c #2C272A",
"]  c #292828",
"[  c #2D2929",
"{  c #2E2B2C",
"}  c #2F2B2C",
"|  c #2E2C2C",
" . c #302A29",
".. c #312B2A",
"X. c #322E2F",
"o. c #323031",
"O. c #353032",
"+. c #353132",
"@. c #3B3737",
"#. c #393738",
"$. c #3C393A",
"%. c #3C3A3A",
"&. c #80755B",
"*. c #807A77",
"=. c #9B8B62",
"-. c #9F8E62",
";. c #A79569",
":. c #969898",
">. c None",
/* pixels */
">.>.>.>.>.>.>.>.>.>.>.>.>.>.>.>.>.>.>.>.>.>.>.>.>.>.>.>.>.>.>.>.",
">.>.>.>.>.>.>.>.>.>.>.>.>.>.>.>.>.>.>.>.>.>.>.>.>.>.>.>.>.>.>.>.",
">.>.>.>.>.>.>.>.>.>.>.>.>.>.>.>.>.>.>.>.>.>.>.>.>.>.>.>.>.>.>.>.",
">.>.>.>.>.>.>.>.>.>.>.>.>.>.>.>.>.>.>.>.>.>.>.>.>.>.>.>.>.>.>.>.",
">.>.>.>.>.>.>.>.>.>.>.>.>.>.>.>.>.>.>.>.>.>.>.>.>.>.>.>.>.>.>.>.",
">.>.>.>.>.>.>.>.>.>.>.>.>.>.>.>.>.>.>.>.>.>.>.>.>.>.>.>.>.>.>.>.",
">.>.>.>.>.>.>.>.>.>.>.>.>.>.>.>.>.>.>.>.>.>.>.>.>.>.>.>.>.>.>.>.",
">.>.>.>.>.>.>.>.>.>.>.>.>.>.>.>.>.>.>.>.>.>.>.>.>.>.>.>.>.>.>.>.",
">.>.>.>.>.>.>.>.>.>.>.>.>.>.>.>.>.>.>.>.>.>.>.>.>.>.>.>.>.>.>.>.",
">.>.>.>.>.>.>.>.>.>.>.>.>.>.>.Q W >.>.>.>.>.>.>.>.>.>.>.>.>.>.>.",
">.>.>.>.>.>.>.>.>.>.>.` * , p B B q & 6 ) >.>.>.>.>.>.>.>.>.>.>.",
">.>.>.>.>.>.>.>.>.>.+ z C C C C C N N S a - >.>.>.>.>.>.>.>.>.>.",
">.>.>.>.>.>.>.>.U 5 C C C C C C C C A x F D i ' >.>.>.>.>.>.>.>.",
">.>.>.>.>.>.>.( 0 C C C C C C C z F S S S S S < | >.>.>.>.>.>.>.",
">.>.>.>.>.>.>.* B C C C C C C C C C C C C D b V . >.>.>.>.>.>.>.",
">.>.>.>.>.>.1 L C C C C C C C C C C C C C c V C L l >.>.>.>.>.>.",
">.>.>.>.>.>.2 C C C N C C C C C C C C C C C C C C . >.>.>.>.>.>.",
">.>.>.>.>.R L C Z r C C C C C C C C C C C C z C C M ~ >.>.>.>.>.",
">.>.>.>.>.7 C C f C C C C C C C C C C C C C C C C C ~ >.>.>.>.>.",
">.>.>.>.>.o C N C C C C C C C C C C C C C C C C C C 6 >.>.>.>.>.",
">.>.>.>.>.X h z C C C C C C C C C C C C C C C C C V = >.>.>.>.>.",
">.>.>.>.>.@ k C C C C C C C C C C C C C C C C C C N 8 >.>.>.>.>.",
">.>.>.>.>.w N C C C C C C C C C C C C C C C C C C M ^ >.>.>.>.>.",
">.>.>.>.>._ m D C C C C C C C C C C C C C C C C S u [ >.>.>.>.>.",
">.>.] T } +.y G C C C C C C C C C C C C C C C C N d X.! P ^ >.>.",
">.+ k C C z v y E C C C C C C C C C C C C C C C n x z C C C % >.",
"I C C C C C C V j C C C C C C C C C C C C C C n C C C C C C C H ",
"@ C C C C C z C p C C C C C C C C C C C C C k 9 L x C C C C C & ",
"$ C C C C C z +.>.4 C C C C C C C C C C C z O >.O.z C C C C C & ",
"s C C C C C 0 %.>.>.t 3 z C C C C C C x : K >.>.@.p C C C C C J ",
">.> S C C j e >.>.>.>.>.R ;  .L Y ..  ] >.>.>.>.>.h g C C C # >.",
">.>.{ V I o.>.>.>.>.>.>.>.*.=.-.;.&.:.>.>.>.>.>.>.>.#./ U $.>.>."
};
