/* XPM */
static char *result[] = {
/* columns rows colors chars-per-pixel */
"32 32 132 2 ",
"   c #010001",
".  c #07050B",
"X  c #0D090B",
"o  c #120D0E",
"O  c #070F10",
"+  c #0D0E10",
"@  c #120E11",
"#  c #1B0D10",
"$  c #0D1314",
"%  c #161214",
"&  c #1A1516",
"*  c #171519",
"=  c #1A1618",
"-  c #131B1C",
";  c #1D1A1C",
":  c #2F1114",
">  c #211718",
",  c #211D1E",
"<  c #301D1E",
"1  c #231F20",
"2  c #252122",
"3  c #2C2726",
"4  c #252729",
"5  c #2D2A2B",
"6  c #3A2122",
"7  c #312D2D",
"8  c #343332",
"9  c #393536",
"0  c #3D3A36",
"q  c #3D3A3C",
"w  c #452323",
"e  c #433E37",
"r  c #423D3E",
"t  c #742C2C",
"y  c #454039",
"u  c #4A443C",
"i  c #464445",
"p  c #484546",
"a  c #4D4B4B",
"s  c #504C4D",
"d  c #5F5046",
"f  c #515349",
"g  c #5D584B",
"h  c #555354",
"j  c #585556",
"k  c #5D5A5B",
"l  c #7A514B",
"z  c #635D50",
"x  c #6B5C56",
"c  c #605F5F",
"v  c #656053",
"b  c #646464",
"n  c #767261",
"m  c #7F7A65",
"M  c gray44",
"N  c #8C3130",
"B  c #BD2E2E",
"V  c #A33434",
"C  c #A83534",
"Z  c #B33635",
"A  c #B93938",
"S  c #C72B2E",
"D  c #CB2B2D",
"F  c #CB3733",
"G  c #CF3E3C",
"H  c #D73C3A",
"J  c #E02828",
"K  c #E93232",
"L  c #E23936",
"P  c #F23333",
"I  c #FA3634",
"U  c #FF3E3A",
"Y  c #ED423F",
"T  c #FF423E",
"R  c #B94942",
"E  c #B95248",
"W  c #A95C50",
"Q  c #806757",
"!  c #837C67",
"~  c #897F67",
"^  c #957A66",
"/  c #AD7562",
"(  c #A87F6B",
")  c #B37261",
"_  c #B57C6A",
"`  c #FF4642",
"'  c #8C856D",
"]  c #908B71",
"[  c #9C967C",
"{  c #A5936A",
"}  c #B78F77",
"|  c #A99F7F",
" . c #C3AF7E",
".. c #C6B17D",
"X. c #828485",
"o. c #9A9591",
"O. c #BCA788",
"+. c #BDB091",
"@. c #C79E84",
"#. c #C0A486",
"$. c #CEA388",
"%. c #C0AA94",
"&. c #C2B292",
"*. c #C1BA97",
"=. c #CBBA97",
"-. c #C2BE9A",
";. c #CEC89F",
":. c #D0C9A1",
">. c #D2D0A5",
",. c #D8D4A9",
"<. c #DDD9AD",
"1. c #D7D9B0",
"2. c #E6CAAF",
"3. c #E3CBB0",
"4. c #E3DDB2",
"5. c #EBDFB2",
"6. c #E5E0B4",
"7. c #E5E6B8",
"8. c #EFEABA",
"9. c #F2E5B6",
"0. c #FFE4B5",
"q. c #FFE8B7",
"w. c #F4E9B9",
"e. c #FFECBB",
"r. c #F3F1BF",
"t. c #FDF1BF",
"y. c #EFF4C6",
"u. c #F7F1C0",
"i. c #FFF5C1",
"p. c #FEFAC6",
"a. c #FFFEC8",
"s. c None",
/* pixels */
"s.s.s.s.s.s.s.s.s.s.s.s.s.s.s.s.s.s.s.s.s.s.s.s.s.s.s.s.s.s.s.s.",
"s.s.s.s.s.s.s.s.s.s.s.s.s.s.s.s.s.s.s.s.s.s.s.s.s.s.s.s.s.s.s.s.",
"s.s.s.s.s.s.s.s.s.s.s.s.s.s.s.s.s.s.s.s.s.s.s.s.s.s.s.s.s.s.s.s.",
"s.s.s.s.s.s.s.s.s.s.s.s.s.s.s.s.s.s.s.s.s.s.s.s.s.s.s.s.s.s.s.s.",
"s.s.s.s.s.s.s.s.s.s.s.s.s.s.s.s.s.s.s.s.s.s.s.s.s.s.s.s.s.s.s.s.",
"s.s.s.s.s.s.s.s.s.s.s.s.s.s.s.s.s.s.s.s.s.s.s.s.s.s.s.s.s.s.s.s.",
"s.s.s.s.s.s.s.s.s.s.s.s.s.s.s.s.s.s.s.s.s.s.s.s.s.s.s.s.s.s.s.s.",
"s.s.s.s.s.s.s.s.s.s.s.s.s.s.s.s.s.s.s.s.s.s.s.s.s.s.s.s.s.s.s.s.",
"s.s.s.s.s.s.s.s.s.s.s.s.s.s.s.s.s.s.s.s.s.s.s.s.s.s.s.s.s.s.s.s.",
"s.s.s.s.s.s.s.s.s.s.s.s.s.s.s.s.s.s.s.s.s.s.s.s.s.s.s.s.s.s.s.s.",
"s.s.s.s.s.s.s.s.s.s.s.j 9 , & @ o = 1 7 s.s.s.s.s.s.s.s.s.s.s.s.",
"s.s.s.s.s.s.s.s.s.s.4 % = , 1 2 2 2 , & o q s.s.s.s.s.s.s.s.s.s.",
"s.s.s.s.s.s.s.s.j % * 2 2 1 1 1 , , 2 , 1 % < s.s.s.s.s.s.s.s.s.",
"s.s.s.s.s.s.s.v X , 2 1 1 1 1 1 2 2 2 2 , 3 = % s.s.s.s.s.s.s.s.",
"s.s.s.s.s.s.s.@ , 2 1 1 , = * = * = > 1 2 , 2 & , s.s.s.s.s.s.s.",
"s.s.s.s.s.s.5 = 2 1 , % * 3 e u u 0 2 & * 1 , 1 o h s.s.s.s.s.s.",
"s.s.s.s.s.s.% 2 1 = * e ] ;.9.9.9.5.-.m 7 @ ; 2 * 1 s.s.s.s.s.s.",
"s.s.s.s.s.i & 2 * * ! 4.p.i.e.e.e.e.i.p.>.z @ , 1 % s.s.s.s.s.s.",
"s.s.s.s.s.5 , = = o.p.i.0.0.0.0.0.0.0.0.i.r.n % 1 % a s.s.s.s.s.",
"s.s.s.s.s.2 > & ' i.q.0.0.0.0.0.0.0.0.0.0.e.u.z % % p s.s.s.s.s.",
"s.s.s.s.s.2 % s u.p.q.0.0.0.0.0.0.0.0.0.0.q.p.1.8 X r s.s.s.s.s.",
"s.s.s.s.s.1 * n $.&.8.e.0.0.0.0.0.0.0.0.t.4.O.$.d . p s.s.s.s.s.",
"s.s.s.s.s.4 < F K B { 5.q.0.0.q.0.0.0.i.,.W D K C X h s.s.s.s.s.",
"s.s.s.s.s.i > G ` U S O.e.0.0.0.0.0.q.8./ J T ` V O M s.s.s.s.s.",
"s.s.i q a 9 - t ` ` P ) e.0.0.0.0.0.t.,.R I ` ` w - r i r p s.s.",
"s., * % o , , , A ` P _ u.0.0.0.0.0.e.<.E K ` N - 2 = % % o 7 s.",
"3 = 2 2 1 1 2 - 6 H G =.e.0.0.0.0.0.0.r.} L Z ; 1 1 1 1 2 , ; ; ",
"% 2 2 2 1 1 , 2 - : ^ p.i.e.q.q.q.q.e.a.7.l # ; 4 , 1 1 1 1 1 , ",
"% 2 1 1 1 1 = i s.$ , m :.9.9.w.w.w.w.*.v $ 4 s.9 = 1 , 1 2 , ; ",
"; , 2 1 1 1 * b s.s.4   = g | &.+.' u o   r s.s.k o 2 1 1 2 , = ",
"s.o = 4 1 o 5 s.s.s.s.s.4 1 %.3.3.x . q s.s.s.s.s.; o , , o 2 j ",
"s.s.7 ; 2 p s.s.s.s.s.s.s.o.{ .. .~ X.s.s.s.s.s.s.s.a 4 2 i s.s."
};
