/* XPM */
static char *result[] = {
/* columns rows colors chars-per-pixel */
"32 32 137 2 ",
"   c #080608",
".  c #090708",
"X  c #0D0A0B",
"o  c #0F0A0B",
"O  c #0D090D",
"+  c #0E0A0C",
"@  c #100D0E",
"#  c #120E10",
"$  c #151215",
"%  c #171314",
"&  c #171415",
"*  c #171515",
"=  c #1A1417",
"-  c #1B1517",
";  c #181616",
":  c #191717",
">  c #1A1617",
",  c #191518",
"<  c #1B1718",
"1  c #1A1919",
"2  c #1B181A",
"3  c #1D181A",
"4  c #1D191A",
"5  c #1D191B",
"6  c #1D1A1B",
"7  c #1D191C",
"8  c #1E1B1C",
"9  c #1F1B1C",
"0  c #1F1B1D",
"q  c #1F1E1E",
"w  c #25171A",
"e  c #201B1D",
"r  c #201D1D",
"t  c #201D1E",
"y  c #211D1E",
"u  c #211E1F",
"i  c #221E1E",
"p  c #221E1F",
"a  c #231F1F",
"s  c #261E1F",
"d  c #2D1E1F",
"f  c #39211F",
"g  c #211F20",
"h  c #221E20",
"j  c #231E20",
"k  c #221F20",
"l  c #231F20",
"z  c #231F21",
"x  c #241F20",
"c  c #241F21",
"v  c #261F20",
"b  c #271F20",
"n  c #212020",
"m  c #242020",
"M  c #242021",
"N  c #252021",
"B  c #252121",
"V  c #262020",
"C  c #262222",
"Z  c #272323",
"A  c #252224",
"S  c #272224",
"D  c #282426",
"F  c #2A2626",
"G  c #2C2525",
"H  c #2C2726",
"J  c #2D2826",
"K  c #2F2A27",
"L  c #2C272A",
"P  c #2E2C2C",
"I  c #312B28",
"U  c #342E2C",
"Y  c #3D312D",
"T  c #3D332E",
"R  c #412D29",
"E  c #7F3A32",
"W  c #47402A",
"Q  c #4E453D",
"!  c #7B473F",
"~  c #574F44",
"^  c #695F50",
"/  c #6C6555",
"(  c #716454",
")  c #7B6E5B",
"_  c #797471",
"`  c #8F2B28",
"'  c #8E2E2A",
"]  c #83312C",
"[  c #923B35",
"{  c #B13E39",
"}  c #A0483E",
"|  c #EC403B",
" . c #F6433D",
".. c #F7433E",
"X. c #F8433E",
"o. c #8A4C40",
"O. c #935C4D",
"+. c #80735F",
"@. c #8E7F69",
"#. c #D04941",
"$. c #EB4640",
"%. c #9C856D",
"&. c #AC9A7D",
"*. c #BF9275",
"=. c #B29F81",
"-. c #B0A181",
";. c #C8B38F",
":. c #D3B28F",
">. c #CAB491",
",. c #CDB893",
"<. c #D5B590",
"1. c #D8BF99",
"2. c #C5C09A",
"3. c #DFC79F",
"4. c #E6C79E",
"5. c #DBD2A8",
"6. c #E7CEA4",
"7. c #FDD8AC",
"8. c #FEDCAF",
"9. c #F8DEB0",
"0. c #FADFB1",
"q. c #FBDFB1",
"w. c #FBE0B2",
"e. c #FCE1B2",
"r. c #FCE1B3",
"t. c #FEE2B4",
"y. c #FFE2B4",
"u. c #FEE3B4",
"i. c #FFE3B4",
"p. c #FFE3B5",
"a. c #FEE4B4",
"s. c #FEE4B5",
"d. c moccasin",
"f. c #FEE5B5",
"g. c #FFE5B5",
"h. c #FDE6B6",
"j. c None",
/* pixels */
"j.j.j.j.j.j.j.j.j.j.j.j.j.j.j.j.j.j.j.j.j.j.j.j.j.j.j.j.j.j.j.j.",
"j.j.j.j.j.j.j.j.j.j.j.j.j.j.j.j.j.j.j.j.j.j.j.j.j.j.j.j.j.j.j.j.",
"j.j.j.j.j.j.j.j.j.j.j.j.j.j.j.j.j.j.j.j.j.j.j.j.j.j.j.j.j.j.j.j.",
"j.j.j.j.j.j.j.j.j.j.j.j.j.j.j.j.j.j.j.j.j.j.j.j.j.j.j.j.j.j.j.j.",
"j.j.j.j.j.j.j.j.j.j.j.j.j.j.j.j.j.j.j.j.j.j.j.j.j.j.j.j.j.j.j.j.",
"j.j.j.j.j.j.j.j.j.j.j.j.j.j.j.j.j.j.j.j.j.j.j.j.j.j.j.j.j.j.j.j.",
"j.j.j.j.j.j.j.j.j.j.j.j.j.j.j.j.j.j.j.j.j.j.j.j.j.j.j.j.j.j.j.j.",
"j.j.j.j.j.j.j.j.j.j.j.j.j.j.j.j.j.j.j.j.j.j.j.j.j.j.j.j.j.j.j.j.",
"j.j.j.j.j.j.j.j.j.j.j.j.j.j.j.j.j.j.j.j.j.j.j.j.j.j.j.j.j.j.j.j.",
"j.j.j.j.j.j.j.j.j.j.j.j.j.j.j.- S j.j.j.j.j.j.j.j.j.j.j.j.j.j.j.",
"j.j.j.j.j.j.j.j.j.j.j.j.j.o % 3 y 0 > 6 F j.j.j.j.j.j.j.j.j.j.j.",
"j.j.j.j.j.j.j.j.j.j.j.X < l l l l k l l i , j.j.j.j.j.j.j.j.j.j.",
"j.j.j.j.j.j.j.j.j.j.+ p l l l l l j x l l v w L j.j.j.j.j.j.j.j.",
"j.j.j.j.j.j.j.j.j.# < l l l l l l l l x x l b 1 P j.j.j.j.j.j.j.",
"j.j.j.j.j.j.j.j.j.9 l l l l l l l l l l l l l k & j.j.j.j.j.j.j.",
"j.j.j.j.j.j.j.j.j.p l y 7 Z l l l l l p p l k l M i j.j.j.j.j.j.",
"j.j.j.j.j.j.j.j.a j h ^ -.5.~ l l l l l l l l l l & j.j.j.j.j.j.",
"j.j.j.j.j.j.j.j.k +.9.g.f.u.,.H l l l l B M l l l g D j.j.j.j.j.",
"j.j.j.j.j.j.j.j.Q w.p.u.d.d.e.( l l l l m C M M M M D j.j.j.j.j.",
"j.j.j.j.j.j.j.j.@.u.a.s.d.d.d.;.N l l l l B M M M M 4 j.j.j.j.j.",
"j.j.j.j.j.j.j.j.&.u.d.d.d.d.y.1.J l l l l l M M M M ; j.j.j.j.j.",
"j.j.j.j.j.j.j.V >.d.u.r.d.<.E } T l l l l l M M M M @ j.j.j.j.j.",
"j.j.j.j.j.j.j.G 6.d.u.u.4.]  .X.! p l l M M M M M k   j.j.j.j.j.",
"j.j.j.j.j.j.j.n 3.d.u.t.O.| ..#.R 5 0 l M M M M M * j.j.j.j.j.j.",
"j.j.j.j.j.j.j.j.=.d.d.8.` X.{ s M M M M M M M M p . j.j.j.j.j.j.",
"j.j.j.j.j.j.j.j.) i.d.7.' $.d M M M M M M M M c 2 j.j.j.j.j.j.j.",
"j.j.j.j.j.j.j.j.U :.0.q.o.[ l M M M M M M z j.j.j.j.j.j.j.j.j.j.",
"j.j.j.j.j.j.j.j.I Y %.h.*.f M M M M M M M l j.j.j.j.j.j.j.j.j.j.",
"j.j.j.j.j.j.j.j.j.q A / 2.K M M M M M M M t j.j.j.j.j.j.j.j.j.j.",
"j.j.j.j.j.j.j.j.j.j.j.= e $ z M M M M M M : j.j.j.j.j.j.j.j.j.j.",
"j.j.j.j.j.j.j.j.j.j.j.j.j.O 8 M M M M M u j.j.j.j.j.j.j.j.j.j.j.",
"j.j.j.j.j.j.j.j.j.j.j.j.j._ W r M M M p j.j.j.j.j.j.j.j.j.j.j.j."
};
