/* XPM */
static char *result[] = {
/* columns rows colors chars-per-pixel */
"32 32 194 2 ",
"   c #080405",
".  c #0D0A0B",
"X  c #0F0A0B",
"o  c #0E0A0C",
"O  c #0F0C0C",
"+  c #100D0E",
"@  c #120E0F",
"#  c #120E10",
"$  c #141011",
"%  c #171314",
"&  c #171415",
"*  c #191514",
"=  c #181415",
"-  c #191417",
";  c #191517",
":  c #1A1417",
">  c #1B1517",
",  c #181617",
"<  c #1A1617",
"1  c #1A1717",
"2  c #191518",
"3  c #1A1718",
"4  c #1B1718",
"5  c #1A1919",
"6  c #1D181A",
"7  c #1D1A1B",
"8  c #1E1B1B",
"9  c #1D191C",
"0  c #1C1A1C",
"q  c #1F1B1C",
"w  c #1F1B1D",
"e  c #1F1E1E",
"r  c #25171A",
"t  c #201A1B",
"y  c #201B1F",
"u  c #211C1D",
"i  c #221C1C",
"p  c #211C1E",
"a  c #211D1E",
"s  c #211D1F",
"d  c #201E1E",
"f  c #211E1E",
"g  c #211E1F",
"h  c #211F1F",
"j  c #221E1E",
"k  c #221E1F",
"l  c #231F1F",
"z  c #261D1D",
"x  c #251F1E",
"c  c #211F20",
"v  c #231E20",
"b  c #221F20",
"n  c #231F20",
"m  c #241F20",
"M  c #261F20",
"N  c #271F20",
"B  c #202020",
"V  c #212020",
"C  c #232021",
"Z  c #232121",
"A  c #242020",
"S  c #252020",
"D  c #242021",
"F  c #252021",
"G  c #252121",
"H  c #242122",
"J  c #262123",
"K  c #252222",
"L  c #252224",
"P  c #242324",
"I  c #272224",
"U  c #272626",
"Y  c #282121",
"T  c #292323",
"R  c #2B2521",
"E  c #292424",
"W  c #292524",
"Q  c #282425",
"!  c #2B2424",
"~  c #2A2524",
"^  c #2A2625",
"/  c #282426",
"(  c #292426",
")  c #2A2626",
"_  c #2B2626",
"`  c #2E2927",
"'  c #2F2927",
"]  c #2C272A",
"[  c #2B2828",
"{  c #2B2A2A",
"}  c #2E292B",
"|  c #2E2D2B",
" . c #2E2C2C",
".. c #372420",
"X. c #3B2423",
"o. c #392E2A",
"O. c #3A332D",
"+. c #343132",
"@. c #373435",
"#. c #373536",
"$. c #3F3835",
"%. c #4E2626",
"&. c #462827",
"*. c #423C33",
"=. c #433B35",
"-. c #433F39",
";. c #453F39",
":. c #583A34",
">. c #6F2322",
",. c #782827",
"<. c #732C2B",
"1. c #454038",
"2. c #4B4538",
"3. c #4E4438",
"4. c #5C463E",
"5. c #524B40",
"6. c #514D44",
"7. c #5C5041",
"8. c #6C6555",
"9. c #756E5D",
"0. c #7C735E",
"q. c #993935",
"w. c #943D38",
"e. c #C83C39",
"r. c #DB3D3A",
"t. c #DF3E3A",
"y. c #93453E",
"u. c #D3403C",
"i. c #E9443F",
"p. c #F5413D",
"a. c #F7413E",
"s. c #F0443F",
"d. c #F8423E",
"f. c #9A4F46",
"g. c #985248",
"h. c #A15046",
"j. c #A05349",
"k. c #AE594D",
"l. c #896253",
"z. c #83785D",
"x. c #AD6254",
"c. c #8A7969",
"v. c #917A65",
"b. c #997C67",
"n. c #807C77",
"m. c #B17F69",
"M. c #92866D",
"N. c #A4806A",
"B. c #A5936A",
"V. c #BA9579",
"C. c #B3A071",
"Z. c #B8A576",
"A. c #C29378",
"S. c #989898",
"D. c #AC9E83",
"F. c #AC9E84",
"G. c #AAA484",
"H. c #B7A585",
"J. c #BCA885",
"K. c #CD9E81",
"L. c #C5AF8C",
"P. c #D5BF99",
"I. c #E4B894",
"U. c #DCC59E",
"Y. c #E7C49D",
"T. c #CEC9A1",
"R. c #D9C4A4",
"E. c #DBCBA1",
"W. c #EBCFAB",
"Q. c #E9D0A6",
"!. c #F3D6AB",
"~. c #F4D9AC",
"^. c #F5DAAD",
"/. c #F8DCAF",
"(. c #E7DDB0",
"). c #F0D6B3",
"_. c #F6E3B7",
"`. c #FCE2B3",
"'. c #FEE3B4",
"]. c #FFE3B4",
"[. c #FFE3B5",
"{. c #FEE4B4",
"}. c #FEE4B5",
"|. c moccasin",
" X c #FCE6B7",
".X c #FDE6B7",
"XX c #FEE7B6",
"oX c #F6EBBB",
"OX c #FDECBC",
"+X c #FFECBC",
"@X c #FFEDBD",
"#X c #FFEEBD",
"$X c #FFEFBD",
"%X c None",
/* pixels */
"%X%X%X%X%X%X%X%X%X%X%X%X%X%X%X%X%X%X%X%X%X%X%X%X%X%X%X%X%X%X%X%X",
"%X%X%X%X%X%X%X%X%X%X%X%X%X%X%X%X%X%X%X%X%X%X%X%X%X%X%X%X%X%X%X%X",
"%X%X%X%X%X%X%X%X%X%X%X%X%X%X%X%X%X%X%X%X%X%X%X%X%X%X%X%X%X%X%X%X",
"%X%X%X%X%X%X%X%X%X%X%X%X%X%X%X%X%X%X%X%X%X%X%X%X%X%X%X%X%X%X%X%X",
"%X%X%X%X%X%X%X%X%X%X%X%X%X%X%X%X%X%X%X%X%X%X%X%X%X%X%X%X%X%X%X%X",
"%X%X%X%X%X%X%X%X%X%X%X%X%X%X%X%X%X%X%X%X%X%X%X%X%X%X%X%X%X%X%X%X",
"%X%X%X%X%X%X%X%X%X%X%X%X%X%X%X%X%X%X%X%X%X%X%X%X%X%X%X%X%X%X%X%X",
"%X%X%X%X%X%X%X%X%X%X%X%X%X%X%X%X%X%X%X%X%X%X%X%X%X%X%X%X%X%X%X%X",
"%X%X%X%X%X%X%X%X%X%X%X%X%X%X%X%X%X%X%X%X%X%X%X%X%X%X%X%X%X%X%X%X",
"%X%X%X%X%X%X%X%X%X%X%X%X%X%X%X> I %X%X%X%X%X%X%X%X%X%X%X%X%X%X%X",
"%X%X%X%X%X%X%X%X%X%X%X%X%XX % 6 a w < 7 ) %X%X%X%X%X%X%X%X%X%X%X",
"%X%X%X%X%X%X%X%X%X%X%X. 4 n n n n b n n j 2 %X%X%X%X%X%X%X%X%X%X",
"%X%X%X%X%X%X%X%X%X%Xo k n n n n n v m n n M r ] %X%X%X%X%X%X%X%X",
"%X%X%X%X%X%X%X%X%X# 4 n n n n n n m n m m n N 5  .%X%X%X%X%X%X%X",
"%X%X%X%X%X%X%X%X%Xq n n n n s u s a k n n n n b & %X%X%X%X%X%X%X",
"%X%X%X%X%X%X%X%X%Xk n a 9 ~ 1.5.*.* = a k n b n D j %X%X%X%X%X%X",
"%X%X%X%X%X%X%X%Xl v y -.G.(.@X$X$XE.2.k G n n n n & %X%X%X%X%X%X",
"%X%X%X%X%X%X%X%Xb k 9.oXXX'.}.|.|.|.^.3.^ D n n n c / %X%X%X%X%X",
"%X%X%X%X%X%X%X%Xn 6._.'.|.|.|.|.|.|.|.J.O.E n n n n / %X%X%X%X%X",
"%X%X%X%X%X%X%X%Xn H.'.}.|.|.|.|.|.|.|.'.7.` F n k n 7 %X%X%X%X%X",
"%X%X%X%X%X%X%XA _ U.|.|.|.|.|.|.|.|.|.|.L.x G n A n 1 %X%X%X%X%X",
"%X%X%X%X%X%X%XS =.Q.|.|.|.|.|.|.|.|.|.`.Q.R C b n n 8 %X%X%X%X%X",
"%X%X%X%X%X%X%XT :.x.Y.|.|.|.|.|.|.~.b.j.k...G c n c Q %X%X%X%X%X",
"%X%X%X%X%XH k b &.s.f./.[.|.|.|.[.N.i.d.d.>.z d = 3 [ %X%X%X%X%X",
"%X%X%X%X%XV c b X.p.e.I.|.|.|.|.].g.d.d.d.,.$   @ 8 ( %X%X%X%X%X",
"%X%X%X%X%XV V c Y t.r.A.|.|.|.|.].y.d.d.d.<.O i n n n ; %X%X%X%X",
"%X%X%X%X%XV V V W q.w.K.].|.|.|.].l.u.d.a.%.3 m n n n k { %X%X%X",
"%X%X%X%X%XV V V ' o.v..X{.].|.|.|.!.V.m.h.! m n n n n n g %X%X%X",
"%X%X%X%X%Xh V V V e L 8.T.OX#X+X+X#X XP.4.#.J n n n n n f %X%X%X",
"%X%X%X%X%X%X%XZ B %X0 - p ;.M.D.F.0.$.t 4 U } k n n n k | %X%X%X",
"%X%X%X%X%X%X%X%X%X%X%X%XP : R.W.).c.+ U %X%X%X< m n n , %X%X%X%X",
"%X%X%X%X%X%X%X%X%X%X%X%X%Xn.B.C.Z.z.S.%X%X%X%X%X+.K @.%X%X%X%X%X"
};
