/* XPM */
static char *result[] = {
/* columns rows colors chars-per-pixel */
"32 32 82 1 ",
"  c #100E0F",
". c #120F10",
"X c #121012",
"o c #171415",
"O c #171516",
"+ c #181415",
"@ c #181617",
"# c #1A1617",
"$ c #1B1619",
"% c #1B1719",
"& c #1C1719",
"* c #1B191A",
"= c #1C1819",
"- c #1D1819",
"; c #1C1919",
": c #1D191A",
"> c #1D1A1B",
", c #1E1A1B",
"< c #1E1B1C",
"1 c #1F1B1C",
"2 c #1F1B1D",
"3 c #1F1C1C",
"4 c #1F1C1D",
"5 c #1F1D1D",
"6 c #1F1D1E",
"7 c #201B1D",
"8 c #211C1D",
"9 c #201D1E",
"0 c #211D1E",
"q c #201E1E",
"w c #211E1E",
"e c #201E1F",
"r c #211E1F",
"t c #211F1F",
"y c #221E1E",
"u c #221E1F",
"i c #231E1F",
"p c #221F1F",
"a c #2B1A1C",
"s c #211F20",
"d c #221E20",
"f c #231E20",
"g c #221F20",
"h c #231F20",
"j c #221F21",
"k c #241E20",
"l c #241F20",
"z c #261F20",
"x c #271F20",
"c c #232021",
"v c #242020",
"b c #242021",
"n c #262121",
"m c #272122",
"M c #262123",
"N c #252222",
"B c #252223",
"V c #262223",
"C c #272223",
"Z c #272224",
"A c #272626",
"S c #282525",
"D c #2A2526",
"F c #2A2829",
"G c #2E292B",
"H c #2E2C2B",
"J c #2E2B2C",
"K c #343132",
"L c #373435",
"P c #3D3532",
"I c #383535",
"U c #383536",
"Y c #453D38",
"T c #4F453F",
"R c #504740",
"E c #83785D",
"W c #807A77",
"Q c #9E8D65",
"! c #AA986A",
"~ c #B4A173",
"^ c #989898",
"/ c None",
/* pixels */
"////////////////////////////////",
"////////////////////////////////",
"////////////////////////////////",
"////////////////////////////////",
"////////////////////////////////",
"////////////////////////////////",
"////////////////////////////////",
"////////////////////////////////",
"////////////////////////////////",
"///////////////;Z///////////////",
"////////////t69102#>////////////",
"///////////jchhhhghhy%//////////",
"//////////schhhhhflhhza/////////",
"/////////q,hhhlllllllhx/////////",
"/////////4hhhlllllllhhhg////////",
"////////5uhllllllllllhghk///////",
"////////8ffllllllllllhhhg///////",
"///////20ullllllllllllhhh///////",
"///////4ulllllllllllllhhhv//////",
"///////1illlllllllllllllup//////",
"///////ellllllllllllllllhf//////",
"///////rlllllllllllllllllf//////",
"///////4nlllllllllllllllld//////",
"/////*wBllllllllllllllllhD//////",
"//// >0uhhlllllllllllllhuhVI////",
"////ohhhhullllllllllllhhhhh#////",
"///X<hhhhhllllllllllllhhhhhuF///",
"///J7hhhhhlllllllllllblhhhhhr///",
"////=hhhh3ClllllllllmUMhhhhh9///",
"////:fhhh<F-illllli8&AGuhhhuH///",
"/////+11O///S$YPRT.A///#lhh@////",
"/////////////WQ!~E^/////KNL/////"
};
