/* XPM */
static char *result[] = {
/* columns rows colors chars-per-pixel */
"32 32 195 2 ",
"   c #C78219",
".  c #C7831A",
"X  c #CA861D",
"o  c #CB881F",
"O  c #CB8720",
"+  c #CC8820",
"@  c #CC8A22",
"#  c #CE8B24",
"$  c #CE8C25",
"%  c #CE8E26",
"&  c #D08F28",
"*  c #D08F2A",
"=  c #D08F2B",
"-  c #D09029",
";  c #D1902B",
":  c #D2932E",
">  c #D2942D",
",  c #D3942E",
"<  c #D3962F",
"1  c #D4942F",
"2  c #D4952F",
"3  c #D49630",
"4  c #D69631",
"5  c #D59632",
"6  c #D59732",
"7  c #D59733",
"8  c #D59833",
"9  c #D89A36",
"0  c #D99B36",
"q  c #D89B37",
"w  c #D99C39",
"e  c #D99D3A",
"r  c #DA9C3A",
"t  c #DA9E3B",
"y  c #DB9F3D",
"u  c #DBA03C",
"i  c #DCA03E",
"p  c #DCA13E",
"a  c #DCA23F",
"s  c #DDA140",
"d  c #DCA240",
"f  c #DFA645",
"g  c #E0A645",
"h  c #E0A746",
"j  c #E1A746",
"k  c #E1A647",
"l  c #E1A747",
"z  c #E2A747",
"x  c #E1A849",
"c  c #E2A949",
"v  c #E3AB4B",
"b  c #E4AB4B",
"n  c #E3AC4B",
"m  c #E4AB4C",
"M  c #E3AC4C",
"N  c #E4AC4D",
"B  c #E4AE4E",
"V  c #E5AE4F",
"C  c #E6AE50",
"Z  c #E7B154",
"A  c #E7B254",
"S  c #E8B154",
"D  c #E8B254",
"F  c #E8B354",
"G  c #E8B255",
"H  c #E9B355",
"J  c #E9B356",
"K  c #E9B456",
"L  c #E9B457",
"P  c #EAB457",
"I  c #EAB557",
"U  c #EAB558",
"Y  c #EBB558",
"T  c #EBB659",
"R  c #EBB65A",
"E  c #ECB75A",
"W  c #ECB75C",
"Q  c #EDB85A",
"!  c #ECB85B",
"~  c #EDB85B",
"^  c #EDB95C",
"/  c #EDB85D",
"(  c #EDB95D",
")  c #EDBA5E",
"_  c #EDBB5F",
"`  c #EEBA5E",
"'  c #EEBB5E",
"]  c #EEBA5F",
"[  c #EDBC5E",
"{  c #EDBC5F",
"}  c #EFBC5F",
"|  c #EFBB60",
" . c #EFBC60",
".. c #EFBD62",
"X. c #F0BD62",
"o. c #F1BE63",
"O. c #F0BF64",
"+. c #F1BF65",
"@. c #F2BF64",
"#. c #F2C066",
"$. c #F2C166",
"%. c #F3C166",
"&. c #F3C167",
"*. c #F3C267",
"=. c #F6C267",
"-. c #F4C269",
";. c #F4C369",
":. c #F6C268",
">. c #F6C369",
",. c #F4C36A",
"<. c #F4C46A",
"1. c #F5C46A",
"2. c #F5C56A",
"3. c #F5C46B",
"4. c #F5C56B",
"5. c #F6C46A",
"6. c #F6C46B",
"7. c #F6C56B",
"8. c #F5C46C",
"9. c #F5C56C",
"0. c #F6C56C",
"q. c #F6C56D",
"w. c #F5C66D",
"e. c #F6C66C",
"r. c #F6C66D",
"t. c #F7C66D",
"y. c #F6C76D",
"u. c #F7C76D",
"i. c #F7C56E",
"p. c #F6C66E",
"a. c #F7C66E",
"s. c #F6C76E",
"d. c #F7C76E",
"f. c #F7C76F",
"g. c #F8C76D",
"h. c #F7C86E",
"j. c #F6C86F",
"k. c #F7C86F",
"l. c #F8C86F",
"z. c #F7C870",
"x. c #F7C970",
"c. c #F7C971",
"v. c #F7CA71",
"b. c #F6CB72",
"n. c #F7CA73",
"m. c #F7CC76",
"M. c #F7CC77",
"N. c #F8C870",
"B. c #F9C870",
"V. c #F8C970",
"C. c #F8C871",
"Z. c #F8C971",
"A. c #F9C971",
"S. c #F8CA71",
"D. c #F9CA71",
"F. c #F8C972",
"G. c #F8CA72",
"H. c #F9CA72",
"J. c #F8CA73",
"K. c #F9CA73",
"L. c #F9CB73",
"P. c #FACB73",
"I. c #F9CD73",
"U. c #FACC73",
"Y. c #F9CB74",
"T. c #FACC74",
"R. c #FBCC74",
"E. c #FACD75",
"W. c #FBCD75",
"Q. c #F7CF7B",
"!. c #FCD079",
"~. c #F8DA8B",
"^. c #FBDC8D",
"/. c #F9DF9D",
"(. c #F9E49B",
"). c #FAE39C",
"_. c #FAE2A3",
"`. c #FAE7A3",
"'. c #FCEFB1",
"]. c #FBEBB4",
"[. c #FBEBB5",
"{. c #FCEFC2",
"}. c #FCF0C1",
"|. c #FEF3C3",
" X c #FCF3CE",
".X c #FDF6D7",
"XX c #FFFDF4",
"oX c #FFFDF7",
"OX c #FEFDF9",
"+X c #FFFEFC",
"@X c #FFFEFD",
"#X c #FFFFFD",
"$X c #FFFFFE",
"%X c white",
"&X c None",
/* pixels */
"&X&X&X&X&X&X&X&X&X&X&X&X&X0 0 0 0 0 0 &X&X&X&X&X&X&X&X&X&X&X&X&X",
"&X&X&X&X&X&X&X&X&X&X&X&X&X0 0 0 0 0 0 &X&X&X&X&X&X&X&X&X&X&X&X&X",
"&X&X&X&X&X&X&X&X&X&X0 0 0 %X|.I.B.H.R.0 0 0 &X&X&X&X&X&X&X&X&X&X",
"&X&X&X&X&X&X&X&X&X0 0 $X#X[.c.5.r.r.r.6.q.0 0 &X&X&X&X&X&X&X&X&X",
"&X&X&X&X&X&X&X&X0 0 +XXX{.Q.7.0.r.r.r.r.N.6.0 0 &X&X&X&X&X&X&X&X",
"&X&X&X&X&X&X&X&X0 @XXX(.~.=.0.r.r.r.r.r.r.k.d.0 &X&X&X&X&X&X&X&X",
"&X&X&X&X&X&X&X0 0 $X/.>.r.r.r.r.s.d.r.r.r.r.k.4.0 &X&X&X&X&X&X&X",
"&X&X&X&X&X&X0 0 OX_.j.7.e.r.N.y.h R W.k.r.r.s.d.0 &X&X&X&X&X&X&X",
"&X&X&X&X&X0 0 %X].b.:.p.d.1.E H % p )  .k.r.r.d.Y.0 0 &X&X&X&X&X",
"&X&X&X&X&X0 %X.Xv.5.r.r.H.] o   O X . r U.r.r.r.p.J.b 0 &X&X&X&X",
"&X&X&X&X&X0 oX'.m.7.r.V.( q K T U P U h a V.N.r.s.Z.c 0 &X&X&X&X",
"&X&X&X&X&X0  X).n.7.l.#.j e V.W.H.H.W.U 7 W f.s.t.k.F 0 &X&X&X&X",
"&X&X&X0 0 %X`.t.5.y.Z.z < T.t.r.r.r.r.P.Y & +.V.r.r.K.0 0 &X&X&X",
"&X&X&X0 0 }.M.0.r.Z.l u &.k.r.z.d.s.f.h.s.K 8 ..Z.r.F.0 0 &X&X&X",
"&X&X&X0 0 ^.5.0.s.G.w t d.G <.K &.~ ) O.! @.# ) H.r.Z.0 0 &X&X&X",
"&X&X&X0 0 g.r.r.s.F.d i S - _ * J e s V : ' > } D.r.Z.0 0 &X&X&X",
"&X&X&X0 0 Z.r.r.r.p.-.k w I 5 L e N x y D 4 ^ u.d.r.Z.0 0 &X&X&X",
"&X&X&X0 0 Z.r.r.r.r.K.Q m ;.g *., V ` C $.f p.V.r.r.Z.0 0 &X&X&X",
"&X&X&X0 0 H.r.r.r.r.r.Z.L.s.E.4.1 v !.H.h.P.a.r.r.r.F.0 0 &X&X&X",
"&X&X&X0 0 H.r.r.r.r.r.r.r.r.d.1.2 M E.r.r.r.r.r.r.r.H.0 0 &X&X&X",
"&X&X&X&X0 0 0.d.r.r.r.r.r.p.Z.1.2 M E.r.r.r.r.r.r.f.0 0 &X&X&X&X",
"&X&X&X&X0 0 i.N.r.r.r.r.p.<.o.,.3 M E.r.r.r.r.r.p.A.0 0 &X&X&X&X",
"&X&X&X&X0 0 e.z.r.r.r.r.F.( ; | 6 n E.r.r.r.r.r.s.Z.0 0 &X&X&X&X",
"&X&X&X&X&X0 0 8.k.r.r.r.G./ + 9 $ B E.r.r.r.r.s.V.0 0 &X&X&X&X&X",
"&X&X&X&X&X&X0 T l.f.r.r.S.X.1 @ = P L.r.r.r.r.N.%.0 &X&X&X&X&X&X",
"&X&X&X&X&X&X&X0 [ x.r.r.r.r.3.9.3.r.p.r.r.r.z.2.0 &X&X&X&X&X&X&X",
"&X&X&X&X&X&X&X&X0 { L.e.r.r.k.x.x.f.r.r.r.d.e.0 &X&X&X&X&X&X&X&X",
"&X&X&X&X&X&X&X&X0 0 0.N.k.r.r.r.r.r.r.p.C.a.0 0 &X&X&X&X&X&X&X&X",
"&X&X&X&X&X&X&X&X&X0 0 Z.e.s.s.s.s.s.d.w.d.| 0 &X&X&X&X&X&X&X&X&X",
"&X&X&X&X&X&X&X&X&X&X0 0 0 V.N.k.k.k.S.0 0 0 &X&X&X&X&X&X&X&X&X&X",
"&X&X&X&X&X&X&X&X&X&X0 0 0 H A Z Z Z G 0 0 0 &X&X&X&X&X&X&X&X&X&X",
"&X&X&X&X&X&X&X&X&X&X&X&X&X0 0 0 0 0 0 @ &X&X&X&X&X&X&X&X&X&X&X&X"
};
