/* XPM */
static char *result[] = {
/* columns rows colors chars-per-pixel */
"32 32 78 1 ",
"  c #CF8C26",
". c #D69833",
"X c #D99C38",
"o c #DB9E3C",
"O c #DCA03D",
"+ c #DDA240",
"@ c #DDA341",
"# c #DFA443",
"$ c #DFA544",
"% c #E3A94A",
"& c #E4AC4C",
"* c #E4AD4D",
"= c #E5AE4F",
"- c #E7AF50",
"; c #E6AF51",
": c #E7AF51",
"> c #E8B152",
", c #E8B254",
"< c #E9B254",
"1 c #EBB456",
"2 c #ECB656",
"3 c #EAB558",
"4 c #EAB559",
"5 c #EBB659",
"6 c #ECB75C",
"7 c #EDB95C",
"8 c #ECB95D",
"9 c #EDB95D",
"0 c #EEBB5E",
"q c #EEBB5F",
"w c #EEBB60",
"e c #EFBC60",
"r c #F0BD60",
"t c #F0BD61",
"y c #F2BE61",
"u c #F1BE63",
"i c #F1BE64",
"p c #F3C062",
"a c #F2C065",
"s c #F2C066",
"d c #F3C168",
"f c #F3C268",
"g c #F4C268",
"h c #F4C369",
"j c #F6C468",
"k c #F5C46A",
"l c #F4C46B",
"z c #F5C46C",
"x c #F6C56C",
"c c #F6C56D",
"v c #F7C76F",
"b c #F9C66C",
"n c #F7C86F",
"m c #F9C86E",
"M c #F8C86F",
"N c #F8C870",
"B c #F8C971",
"V c #F8CA70",
"C c #F8C972",
"Z c #F9CA72",
"A c #F9CA73",
"S c #F9CB73",
"D c #FBCD73",
"F c #F9CB74",
"G c #FACC74",
"H c #FACC75",
"J c #FBCC75",
"K c #FBCD75",
"L c #FBCC76",
"P c #FBCD76",
"I c #FBCE77",
"U c #F9D181",
"Y c #FCD381",
"T c #FCD78D",
"R c #FCDB96",
"E c #FADC99",
"W c #FAE1A8",
"Q c None",
/* pixels */
"QQQQQQQQQQQQQQXXQQQQQQQQQQQQQQQQ",
"QQQQQQQQQQQQQQXXQQQQQQQQQQQQQQQQ",
"QQQQQQQQQQQQQXpWXQQQQQQQQQQQQQQQ",
"QQQQQQQQQQQQQXbRXQQQQQQQQQQQQQQQ",
"QQQQQQQQQQQQQXmUXQQQQQQQQQQQQQQQ",
"QQQQQQQQQQQQQXNVXQQQQQQQQQQQQQQQ",
"QQQQQQQQQQQQXlnjEXQQQQQQQQQQQQQQ",
"QQQQQQQQQQQQXZsyTXQQQQQQQQQQQQQQ",
"QQQQQQQQQQQQXK*>YXQQQQQQQQQQQQQQ",
"QQQQQQQQQQQQXS .DXQQQQQQQQQQQQQQ",
"QQQQQQQQQQQQXf;:cXQQQQQQQQQQQQQQ",
"QQQQQQQQQQQQXwdtuXQQQQQQQQQQQQQQ",
"QQQQQQQQQQQQX3ka2XQQQQQQQQQQQQQQ",
"QQQQQQQQQQQQX5Mz1XQQQQQQQQQQQQQQ",
"QQQQQQQQQQQQX,e0,XQQQQQQQQQQQQQQ",
"QQQQQQQQQQQQX&@+:XQQQQQQQQQQQQQQ",
"QQQQQQQQQQQQX<$#6XQQQQQQQQQQQQQQ",
"QQQQQQQQQQQQXi=-gXQQQQQQQQQQQQQQ",
"QQQQQQQQQQQQXGquSXQQQQQQQQQQQQQQ",
"QQQQQQQQQQQQXZ7rBXQQQQQQQQQQQQQQ",
"QQQQQQQQQQQQXS7tAXQQQQQQQQQQQQQQ",
"QQQQQQQQQQQQXH89SXQQQQQQQQQQQQQQ",
"QQQQQQQQQQQQXH7%AXQQQQQQQQQQQQQQ",
"QQQQQQQQQQQQXP3oLXQQQQQQQQQQQQQQ",
"QQQQQQQQQQQQXJ4OIXQQQQQQQQQQQQQQ",
"QQQQQQQQQQQQQXvxXQQQQQQQQQQQQQQQ",
"QQQQQQQQQQQQQXCBXQQQQQQQQQQQQQQQ",
"QQQQQQQQQQQQQXABXQQQQQQQQQQQQQQQ",
"QQQQQQQQQQQQQXFSXQQQQQQQQQQQQQQQ",
"QQQQQQQQQQQQQXhvXQQQQQQQQQQQQQQQ",
"QQQQQQQQQQQQQQXXQQQQQQQQQQQQQQQQ",
"QQQQQQQQQQQQQQXXQQQQQQQQQQQQQQQQ"
};
