/* XPM */
static char *result[] = {
/* columns rows colors chars-per-pixel */
"32 32 201 2 ",
"   c #C58117",
".  c #C78218",
"X  c #C78219",
"o  c #C7831A",
"O  c #CA861D",
"+  c #CB881F",
"@  c #CB8720",
"#  c #CC8820",
"$  c #CC8A22",
"%  c #CE8B24",
"&  c #CE8C25",
"*  c #CE8E26",
"=  c #CD8E2A",
"-  c #D08F28",
";  c #D08F2A",
":  c #D08F2B",
">  c #D09028",
",  c #D09029",
"<  c #D1902B",
"1  c #D2932E",
"2  c #D2942D",
"3  c #D3942E",
"4  c #D3962F",
"5  c #D4942F",
"6  c #D4952F",
"7  c #D49630",
"8  c #D69631",
"9  c #D59632",
"0  c #D59732",
"q  c #D59733",
"w  c #D59833",
"e  c #D89A36",
"r  c #D99B36",
"t  c #D89B37",
"y  c #D99C39",
"u  c #D99D3A",
"i  c #DA9C3A",
"p  c #DA9E3B",
"a  c #DB9F3D",
"s  c #DBA03C",
"d  c #DCA03E",
"f  c #DCA13E",
"g  c #DCA23F",
"h  c #DDA140",
"j  c #DCA240",
"k  c #DFA645",
"l  c #E0A645",
"z  c #E0A746",
"x  c #E1A746",
"c  c #E1A647",
"v  c #E1A747",
"b  c #E2A747",
"n  c #E1A849",
"m  c #E2A849",
"M  c #E3AB4B",
"N  c #E3AC4B",
"B  c #E4AB4C",
"V  c #E3AC4C",
"C  c #E4AC4D",
"Z  c #E4AE4E",
"A  c #E5AE4F",
"S  c #E6AE50",
"D  c #E7B154",
"F  c #E7B254",
"G  c #E8B154",
"H  c #E8B254",
"J  c #E8B255",
"K  c #E9B355",
"L  c #E9B356",
"P  c #E9B456",
"I  c #E9B457",
"U  c #EAB457",
"Y  c #EAB557",
"T  c #EAB558",
"R  c #EBB558",
"E  c #EBB659",
"W  c #EBB65A",
"Q  c #ECB75A",
"!  c #ECB75C",
"~  c #EDB85A",
"^  c #ECB85B",
"/  c #EDB85B",
"(  c #EDB95C",
")  c #EDB85D",
"_  c #EDB95D",
"`  c #EDBA5E",
"'  c #EDBB5F",
"]  c #EEBA5E",
"[  c #EEBB5E",
"{  c #EEBA5F",
"}  c #EDBC5E",
"|  c #EDBC5F",
" . c #EFBC5F",
".. c #EFBB60",
"X. c #EFBC60",
"o. c #EFBD62",
"O. c #F0BD62",
"+. c #F1BE63",
"@. c #F0BF64",
"#. c #F1BF65",
"$. c #F2BF64",
"%. c #F2C066",
"&. c #F2C166",
"*. c #F3C166",
"=. c #F3C167",
"-. c #F3C267",
";. c #F6C267",
":. c #F4C269",
">. c #F4C369",
",. c #F6C268",
"<. c #F6C369",
"1. c #F4C36A",
"2. c #F4C46A",
"3. c #F5C46A",
"4. c #F5C56A",
"5. c #F5C46B",
"6. c #F5C56B",
"7. c #F6C46A",
"8. c #F6C46B",
"9. c #F6C56B",
"0. c #F5C46C",
"q. c #F5C56C",
"w. c #F6C56C",
"e. c #F6C56D",
"r. c #F5C66D",
"t. c #F6C66C",
"y. c #F6C66D",
"u. c #F7C66D",
"i. c #F6C76D",
"p. c #F7C76D",
"a. c #F7C56E",
"s. c #F6C66E",
"d. c #F7C66E",
"f. c #F6C76E",
"g. c #F7C76E",
"h. c #F7C76F",
"j. c #F8C76D",
"k. c #F7C86E",
"l. c #F6C86F",
"z. c #F7C86F",
"x. c #F8C86F",
"c. c #F7C870",
"v. c #F7C970",
"b. c #F7C971",
"n. c #F7CA71",
"m. c #F6CB72",
"M. c #F7CA73",
"N. c #F7CC76",
"B. c #F7CC77",
"V. c #F8C870",
"C. c #F9C870",
"Z. c #F8C970",
"A. c #F8C871",
"S. c #F8C971",
"D. c #F9C971",
"F. c #F8CA71",
"G. c #F9CA71",
"H. c #F8C972",
"J. c #F8CA72",
"K. c #F9CA72",
"L. c #F8CA73",
"P. c #F9CA73",
"I. c #F9CB73",
"U. c #FACB73",
"Y. c #F9CD73",
"T. c #FACC73",
"R. c #F9CB74",
"E. c #FACC74",
"W. c #FBCC74",
"Q. c #FACD75",
"!. c #FBCD75",
"~. c #F7CF7B",
"^. c #FCD079",
"/. c #F8DA8B",
"(. c #FBDC8D",
"). c #E5C492",
"_. c #F9DF9D",
"`. c #F9E49B",
"'. c #FAE39C",
"]. c #FAE2A3",
"[. c #FAE7A3",
"{. c #FCEFB1",
"}. c #FBEBB4",
"|. c #FBEBB5",
" X c #FCEFC2",
".X c #FCF0C1",
"XX c #FEF3C3",
"oX c #FCF3CE",
"OX c #F5E7D1",
"+X c #FDF6D7",
"@X c #F8EFE3",
"#X c #FCF9F3",
"$X c #FFFDF4",
"%X c #FFFDF7",
"&X c #FEFDF9",
"*X c #FFFEFC",
"=X c #FFFEFD",
"-X c #FFFFFD",
";X c #FFFFFE",
":X c white",
">X c None",
/* pixels */
">X>X>X>X>X>X>X>X>X>X>X>X>Xr r r r r r >X>X>X>X>X>X>X>X>X>X>X>X>X",
">X>X>X>X>X>X>X>X>X>X>X>X>Xr r r r r r >X>X>X>X>X>X>X>X>X>X>X>X>X",
">X>X>X>X>X>X>X>X>X>Xr r r W.K.C.Y.XX:Xr r r >X>X>X>X>X>X>X>X>X>X",
">X>X>X>X>X>X>X>X>Xr r e.8.y.y.y.7.b.|.-X;Xr r >X>X>X>X>X>X>X>X>X",
">X>X>X>X>X>X>X>Xr r 8.V.y.y.y.y.w.9.~. X$X*Xr r >X>X>X>X>X>X>X>X",
">X>X>X>X>X>X>X>Xr g.z.y.y.y.y.y.y.w.;./.`.$X=Xr >X>X>X>X>X>X>X>X",
">X>X>X>X>X>X>Xr r z.y.y.y.y.g.f.y.y.y.y.<._.;X@Xr >X>X>X>X>X>X>X",
">X>X>X>X>X>Xr r g.f.y.y.z.!.W z i.V.y.t.9.l.].&Xr = >X>X>X>X>X>X",
">X>X>X>X>Xr r R.g.y.y.z.X.` f * K Q 3.g.s.,.m.}.:Xr r >X>X>X>X>X",
">X>X>X>X. r L.s.y.y.y.T.i o O @ X + { K.y.y.7.n.+X:X).r >X>X>X>X",
">X>X>X>X  r S.f.y.V.Z.g z T U T E P t _ Z.y.9.N.{.%XOXr >X>X>X>X",
">X>X>X>X> r z.u.f.h.! q T !.K.K.!.Z.u x %.x.9.M.'.oX#Xr >X>X>X>X",
">X>X>Xr r P.y.y.Z.#.- R U.y.y.y.y.u.E.4 b S.i.7.u.[.:Xr r >X>X>X",
">X>X>Xr r H.y.S.o.w P f.k.h.f.g.c.y.z.=.s v S.y.w.B..Xr r >X>X>X",
">X>X>Xr r S.y.K.` % $.^ @.` / =.P 2.J g.p y J.f.w.7.(.r r >X>X>X",
">X>X>Xr r S.y.G. .2 [ 1 A h u L ; ' , G d j H.f.y.y.j.r r >X>X>X",
">X>X>Xr r S.y.g.p.( 8 H a n C u I 9 Y y c :.s.y.y.y.S.r r >X>X>X",
">X>X>Xr r S.y.y.Z.s.k &.S ] A 3 -.l >.B ~ P.y.y.y.y.S.r r >X>X>X",
">X>X>Xr r H.y.y.y.d.U.k.K.^.M 5 6.Q.f.I.S.y.y.y.y.y.K.r r >X>X>X",
">X>X>Xr r K.y.y.y.y.y.y.y.Q.V 6 3.g.y.y.y.y.y.y.y.y.K.r r >X>X>X",
">X>X>X>Xr r h.y.y.y.y.y.y.Q.V 6 3.S.s.y.y.y.y.y.g.w.r r >X>X>X>X",
">X>X>X>Xr r D.s.y.y.y.y.y.Q.V 7 1.+.2.s.y.y.y.y.V.a.r r >X>X>X>X",
">X>X>X>Xr r S.f.y.y.y.y.y.Q.N 0 ..< _ H.y.y.y.y.c.t.r r >X>X>X>X",
">X>X>X>X>Xr r Z.f.y.y.y.y.Q.Z & e # ) J.y.y.y.z.0.r r >X>X>X>X>X",
">X>X>X>X>X>Xr *.V.y.y.y.y.I.U : $ 5 O.F.y.y.h.x.E r >X>X>X>X>X>X",
">X>X>X>X>X>X>Xr 4.c.y.y.y.s.y.5.q.5.y.y.y.y.v.} r >X>X>X>X>X>X>X",
">X>X>X>X>X>X>X>Xr t.g.y.y.y.h.v.v.z.y.y.t.I.| r >X>X>X>X>X>X>X>X",
">X>X>X>X>X>X>X>Xr r d.A.s.y.y.y.y.y.y.z.V.w.r r >X>X>X>X>X>X>X>X",
">X>X>X>X>X>X>X>X>Xr r g.r.g.f.f.f.f.f.t.S.m r >X>X>X>X>X>X>X>X>X",
">X>X>X>X>X>X>X>X>X>Xr r r F.z.z.z.V.Z.r r r >X>X>X>X>X>X>X>X>X>X",
">X>X>X>X>X>X>X>X>X>Xr r r J D D D F K r r r >X>X>X>X>X>X>X>X>X>X",
">X>X>X>X>X>X>X>X>X>X>X>X$ r r r r r r >X>X>X>X>X>X>X>X>X>X>X>X>X"
};
