/* XPM */
static char *result[] = {
/* columns rows colors chars-per-pixel */
"32 32 121 2 ",
"   c #C67F16",
".  c #CA861E",
"X  c #CE8C25",
"o  c #CF8E27",
"O  c #D99C38",
"+  c #DA9F3C",
"@  c #DDA13E",
"#  c #DDA341",
"$  c #DEA240",
"%  c #DEA341",
"&  c #DEA442",
"*  c #DFA444",
"=  c #DFA544",
"-  c #E0A646",
";  c #E1A646",
":  c #E1A847",
">  c #E1A848",
",  c #E2A948",
"<  c #E2A849",
"1  c #E2A949",
"2  c #E2AA49",
"3  c #E2AA4A",
"4  c #E3AA4A",
"5  c #E3AB4B",
"6  c #E4AB4D",
"7  c #E3AC4C",
"8  c #E4AD4D",
"9  c #E5AD4D",
"0  c #E4AD4E",
"q  c #E6AE51",
"w  c #E6B051",
"e  c #E7B052",
"r  c #E7B152",
"t  c #E7B053",
"y  c #E9B456",
"u  c #E9B457",
"i  c #EAB457",
"p  c #EBB557",
"a  c #EBB659",
"s  c #EBB65A",
"d  c #EBB75A",
"f  c #EDBA5D",
"g  c #EDBA5E",
"h  c #EEBA5E",
"j  c #EEBB5F",
"k  c #EEBB60",
"l  c #EFBB60",
"z  c #EFBC60",
"x  c #EFBD60",
"c  c #EFBD62",
"v  c #F1BD61",
"b  c #F0BE63",
"n  c #F1BE63",
"m  c #F1BF64",
"M  c #F1BF65",
"N  c #F2C066",
"B  c #F3C066",
"V  c #F3C167",
"C  c #F3C267",
"Z  c #F6C265",
"A  c #F6C467",
"S  c #F3C268",
"D  c #F3C269",
"F  c #F6C368",
"G  c #F7C469",
"H  c #F7C569",
"J  c #F4C56A",
"K  c #F5C46B",
"L  c #F7C76A",
"P  c #F6C66B",
"I  c #F6C46C",
"U  c #F6C56C",
"Y  c #F6C56D",
"T  c #F6C66C",
"R  c #F6C66D",
"E  c #F6C66E",
"W  c #F7C66E",
"Q  c #F6C76E",
"!  c #F7C76E",
"~  c #F7C76F",
"^  c #F7C86F",
"/  c #F8C86F",
"(  c #F9C86F",
")  c #F7C970",
"_  c #F7CA70",
"`  c #F8C870",
"'  c #F8C970",
"]  c #F8C871",
"[  c #F8C971",
"{  c #F9C971",
"}  c #F8CA71",
"|  c #F9CA71",
" . c #F8C972",
".. c #F8CA72",
"X. c #F9CA72",
"o. c #F9CA73",
"O. c #F9CB73",
"+. c #FACB72",
"@. c #FACB73",
"#. c #FACA74",
"$. c #FACC74",
"%. c #FACC75",
"&. c #FBCD75",
"*. c #FBCD76",
"=. c #FDCF78",
"-. c #FCD179",
";. c #FAD17E",
":. c #F8D080",
">. c #FAD88D",
",. c #FBDB92",
"<. c #FAE29B",
"1. c #FBE0A1",
"2. c #FCE5AC",
"3. c #FAE8AB",
"4. c #FDEAAB",
"5. c #FBEDC4",
"6. c #FBEFC5",
"7. c #F9EEC7",
"8. c #F9EDC9",
"9. c #FDF5C6",
"0. c None",
/* pixels */
"0.0.0.0.0.0.0.0.0.0.0.0.0.0.0.O O O 0.0.0.0.0.0.0.0.0.0.0.0.0.0.",
"0.0.0.0.0.0.0.0.0.0.0.0.0.0.O O O O O 0.0.0.0.0.0.0.0.0.0.0.0.0.",
"0.0.0.0.0.0.0.0.0.0.0.0.0.0.O 8.-.( O 0.0.0.0.0.0.0.0.0.0.0.0.0.",
"0.0.0.0.0.0.0.0.0.0.0.0.0.O 7.1.Z W I O 0.0.0.0.0.0.0.0.0.0.0.0.",
"0.0.0.0.0.0.0.0.0.0.0.0.0.O 9.:.F R X.O 0.0.0.0.0.0.0.0.0.0.0.0.",
"0.0.0.0.0.0.0.0.0.0.0.0.0.O 4.P U R { O 0.0.0.0.0.0.0.0.0.0.0.0.",
"0.0.0.0.0.0.0.0.0.0.0.0.O 5._ U Q R ! ) O 0.0.0.0.0.0.0.0.0.0.0.",
"0.0.0.0.0.0.0.0.0.0.0.0.O 2.A / d N [ } O 0.0.0.0.0.0.0.0.0.0.0.",
"0.0.0.0.0.0.0.0.0.0.0.0.O >.G V + 7 T X.O 0.0.0.0.0.0.0.0.0.0.0.",
"0.0.0.0.0.0.0.0.0.0.0.O 6.L +.:   . j |  .O 0.0.0.0.0.0.0.0.0.0.",
"0.0.0.0.0.0.0.0.0.0.0.O 3...B 1 s e 8 [ [ O 0.0.0.0.0.0.0.0.0.0.",
"0.0.0.0.0.0.0.0.0.0.0.O <.{ a w =.~ > D | O 0.0.0.0.0.0.0.0.0.0.",
"0.0.0.0.0.0.0.0.0.0.0.O ,.H 4 n ^ X.r y %.O 0.0.0.0.0.0.0.0.0.0.",
"0.0.0.0.0.0.0.0.0.0.0.O ;.v 5 ~ ~ ` C 3 [ O 0.0.0.0.0.0.0.0.0.0.",
"0.0.0.0.0.0.0.0.0.0.0.O *.l > b z j j ; ' O 0.0.0.0.0.0.0.0.0.0.",
"0.0.0.0.0.0.0.0.0.0.0.O $.m $ & = # & 2 | O 0.0.0.0.0.0.0.0.0.0.",
"0.0.0.0.0.0.0.0.0.0.0.O X.E 6 * - > % p $.O 0.0.0.0.0.0.0.0.0.0.",
"0.0.0.0.0.0.0.0.0.0.0.O X.` h p , r i M @.O 0.0.0.0.0.0.0.0.0.0.",
"0.0.0.0.0.0.0.0.0.0.0.O X.R ) %.9 k &.~ ] O 0.0.0.0.0.0.0.0.0.0.",
"0.0.0.0.0.0.0.0.0.0.0.O X.R R ' 9 f [ R [ O 0.0.0.0.0.0.0.0.0.0.",
"0.0.0.0.0.0.0.0.0.0.0.O ^ E R  .9 f [ R [ O 0.0.0.0.0.0.0.0.0.0.",
"0.0.0.0.0.0.0.0.0.0.0.O Y ! E K 5 g [ R ] O 0.0.0.0.0.0.0.0.0.0.",
"0.0.0.0.0.0.0.0.0.0.0.O R Q  .q @ x [ R [ O 0.0.0.0.0.0.0.0.0.0.",
"0.0.0.0.0.0.0.0.0.0.0.0.O [ o.< o c [ ` O 0.0.0.0.0.0.0.0.0.0.0.",
"0.0.0.0.0.0.0.0.0.0.0.0.O O.O.9 X M ` X.O 0.0.0.0.0.0.0.0.0.0.0.",
"0.0.0.0.0.0.0.0.0.0.0.0.O J ^ U K E ! ) O 0.0.0.0.0.0.0.0.0.0.0.",
"0.0.0.0.0.0.0.0.0.0.0.0.0.O X.Q ) E ' O 0.0.0.0.0.0.0.0.0.0.0.0.",
"0.0.0.0.0.0.0.0.0.0.0.0.0.O o.Q R R #.O 0.0.0.0.0.0.0.0.0.0.0.0.",
"0.0.0.0.0.0.0.0.0.0.0.0.0.O S ) Q ^ E O 0.0.0.0.0.0.0.0.0.0.0.0.",
"0.0.0.0.0.0.0.0.0.0.0.0.0.0.O K X.^ O 0.0.0.0.0.0.0.0.0.0.0.0.0.",
"0.0.0.0.0.0.0.0.0.0.0.0.0.0.O 0 u t O 0.0.0.0.0.0.0.0.0.0.0.0.0.",
"0.0.0.0.0.0.0.0.0.0.0.0.0.0.0.O O O 0.0.0.0.0.0.0.0.0.0.0.0.0.0."
};
