/* XPM */
static char *result[] = {
/* columns rows colors chars-per-pixel */
"32 32 158 2 ",
"   c #C68016",
".  c #C78218",
"X  c #CB861F",
"o  c #CB881F",
"O  c #D08F28",
"+  c #D1922C",
"@  c #D3942F",
"#  c #D59734",
"$  c #D79935",
"%  c #D79A36",
"&  c #D89A36",
"*  c #D89B37",
"=  c #D99B38",
"-  c #D99C38",
";  c #DA9E3A",
":  c #DA9F3C",
">  c #DB9F3C",
",  c #DB9F3D",
"<  c #DDA23F",
"1  c #DCA140",
"2  c #DDA140",
"3  c #DDA141",
"4  c #DDA340",
"5  c #DEA241",
"6  c #DEA442",
"7  c #DEA443",
"8  c #DFA443",
"9  c #DFA444",
"0  c #DFA544",
"q  c #DFA644",
"w  c #DFA645",
"e  c #E0A646",
"r  c #E1A646",
"t  c #E1A848",
"y  c #E2A949",
"u  c #E3A94A",
"i  c #E3AA4B",
"p  c #E3AB4B",
"a  c #E4AC4C",
"s  c #E5AD4D",
"d  c #E5AE50",
"f  c #E5AF50",
"g  c #E6B051",
"h  c #E7B152",
"j  c #E7B252",
"k  c #E8B153",
"l  c #E8B154",
"z  c #E8B355",
"x  c #E9B456",
"c  c #EAB457",
"v  c #EAB557",
"b  c #EAB558",
"n  c #EBB559",
"m  c #EBB658",
"M  c #EBB659",
"N  c #ECB75B",
"B  c #EDB95C",
"V  c #EDB95D",
"C  c #EEBB5E",
"Z  c #EFBC5F",
"A  c #EEBB60",
"S  c #EFBC61",
"D  c #EFBD61",
"F  c #EFBD62",
"G  c #F0BD62",
"H  c #F0BE63",
"J  c #F1BE63",
"K  c #F1BE64",
"L  c #F1BF64",
"P  c #F2BF64",
"I  c #F2BF65",
"U  c #F1C064",
"Y  c #F1C065",
"T  c #F1C166",
"R  c #F2C166",
"E  c #F2C167",
"W  c #F3C167",
"Q  c #F2C267",
"!  c #F3C267",
"~  c #F6C266",
"^  c #F6C367",
"/  c #F4C268",
"(  c #F5C368",
")  c #F6C268",
"_  c #F6C368",
"`  c #F6C369",
"'  c #F6C469",
"]  c #F4C46A",
"[  c #F5C46A",
"{  c #F5C46B",
"}  c #F5C56B",
"|  c #F6C46B",
" . c #F6C56B",
".. c #F7C56B",
"X. c #F5C56C",
"o. c #F5C56D",
"O. c #F6C56C",
"+. c #F6C56D",
"@. c #F7C56D",
"#. c #F6C66C",
"$. c #F6C66D",
"%. c #F7C76D",
"&. c #F6C66E",
"*. c #F6C76E",
"=. c #F7C76E",
"-. c #F7C76F",
";. c #F9C76D",
":. c #F6C86D",
">. c #F7C86F",
",. c #F8C86F",
"<. c #F7C870",
"1. c #F7C970",
"2. c #F7C871",
"3. c #F6C972",
"4. c #F7C972",
"5. c #F8C870",
"6. c #F9C870",
"7. c #F8C970",
"8. c #F8C971",
"9. c #F9C971",
"0. c #F8CA71",
"q. c #F9CA71",
"w. c #F8C972",
"e. c #F9C972",
"r. c #F8CA72",
"t. c #F9CA72",
"y. c #F9CB72",
"u. c #F9CA73",
"i. c #FACB73",
"p. c #FACC73",
"a. c #F9CB74",
"s. c #FACB74",
"d. c #FBCD76",
"f. c #FCCD76",
"g. c #FDCF78",
"h. c #F8CF7C",
"j. c #F8D27D",
"k. c #FAD57D",
"l. c #F7D482",
"z. c #F7D682",
"x. c #F8D583",
"c. c #F9D98B",
"v. c #FADC94",
"b. c #F8E4A6",
"n. c #FCEBA6",
"m. c #FDEEB4",
"M. c #FCECB7",
"N. c #F4E6CD",
"B. c #F8EDCC",
"V. c #FDF0C3",
"C. c #FCF3C2",
"Z. c #FEF5C3",
"A. c #FFF5C7",
"S. c #FCF6E0",
"D. c #FFFEE7",
"F. c #FFFFE9",
"G. c #FFFDEA",
"H. c None",
/* pixels */
"H.H.H.H.H.H.H.H.H.H.H.H.H.H.- - - - H.H.H.H.H.H.H.H.H.H.H.H.H.H.",
"H.H.H.H.H.H.H.H.H.H.H.H.H.- - - - - - H.H.H.H.H.H.H.H.H.H.H.H.H.",
"H.H.H.H.H.H.H.H.H.H.H.H.- - f.;.k.D.- - H.H.H.H.H.H.H.H.H.H.H.H.",
"H.H.H.H.H.H.H.H.H.H.H.- { @.$.#._ c.G.- - H.H.H.H.H.H.H.H.H.H.H.",
"H.H.H.H.H.H.H.H.H.H.H.- 6.*.$.$.| 3.M.C.- - H.H.H.H.H.H.H.H.H.H.",
"H.H.H.H.H.H.H.H.H.H.- =.=.$.$.$.$.) z.m.N.- H.H.H.H.H.H.H.H.H.H.",
"H.H.H.H.H.H.H.H.H.H.- 0.$.$.$.*.$.$.| :.A.- - H.H.H.H.H.H.H.H.H.",
"H.H.H.H.H.H.H.H.H.- $.>.$.t.{ p } -. .' v.B.- H.H.H.H.H.H.H.H.H.",
"H.H.H.H.H.H.H.H.H.- u.$.>.L g + h P >.| :.V.- H.H.H.H.H.H.H.H.H.",
"H.H.H.H.H.H.H.H.- a.$.#.p., . X   8 i.*.^ j.F.- H.H.H.H.H.H.H.H.",
"H.H.H.H.H.H.H.H.- u.$.s.j q b b N 6 b 8.` x.Z.- H.H.H.H.H.H.H.H.",
"H.H.H.H.H.H.H.H.- 7.>.o.3 z d.t.g.f 0 { ..h.n.- H.H.H.H.H.H.H.H.",
"H.H.H.H.H.H.H.- w.$.y.d < t.&.$.#.i.; c 0.~ c.S.- H.H.H.H.H.H.H.",
"H.H.H.H.H.H.H.- <.8.F : R 7.-.=.-.<.G > I -.4.b.- H.H.H.H.H.H.H.",
"H.H.H.H.H.H.H.- >.t.V = J D B G C A G % S 8...l.- H.H.H.H.H.H.H.",
"H.H.H.H.H.H.H.- >.q.Z 4 q w > y 1 6 r > H 8.=.( - H.H.H.H.H.H.H.",
"H.H.H.H.H.H.H.- <.=.,.s 8 0 i 7 t e 2 l -.$.=.X.- H.H.H.H.H.H.H.",
"H.H.H.H.H.H.H.- <.$.t.A x n M ; v m k P 8.$.=.X.- H.H.H.H.H.H.H.",
"H.H.H.H.H.H.H.- 2.&.$.5.7.d.E $ [ r.r.>.$.$.=.#.- H.H.H.H.H.H.H.",
"H.H.H.H.H.H.H.- 8.&.$.$.$.0.Y & ! =.$.$.$.$.=.#.- H.H.H.H.H.H.H.",
"H.H.H.H.H.H.H.- - <.$.$.$.0.Y % / <.$.$.$.$.,.- - H.H.H.H.H.H.H.",
"H.H.H.H.H.H.H.H.- u.$.$.$.0.Y * K W &.$.$.=.e.- H.H.H.H.H.H.H.H.",
"H.H.H.H.H.H.H.H.- u.$.$.$.0.U ; u 9 w.&.$.*.8.- H.H.H.H.H.H.H.H.",
"H.H.H.H.H.H.H.H.- - 8.$.$.8.Q @ O 5 u.&.$.8.- - H.H.H.H.H.H.H.H.",
"H.H.H.H.H.H.H.H.H.- 9.&.$.5.] # o a y.$.<.=.- H.H.H.H.H.H.H.H.H.",
"H.H.H.H.H.H.H.H.H.H.- r.$.$.&.X.{ O.$.$.r.- H.H.H.H.H.H.H.H.H.H.",
"H.H.H.H.H.H.H.H.H.H.- %.=.$.&.1.1.*.O.8.T - H.H.H.H.H.H.H.H.H.H.",
"H.H.H.H.H.H.H.H.H.H.H.- e.&.$.$.$.$.>.e.- H.H.H.H.H.H.H.H.H.H.H.",
"H.H.H.H.H.H.H.H.H.H.H.- +.*.=.*.*.*.7.K - H.H.H.H.H.H.H.H.H.H.H.",
"H.H.H.H.H.H.H.H.H.H.H.H.- - y.>.>.t.- - H.H.H.H.H.H.H.H.H.H.H.H.",
"H.H.H.H.H.H.H.H.H.H.H.H.- - - - - - - - H.H.H.H.H.H.H.H.H.H.H.H.",
"H.H.H.H.H.H.H.H.H.H.H.H.H.H.- - - - H.H.H.H.H.H.H.H.H.H.H.H.H.H."
};
